<?xml version="1.0" standalone="no"?><!DOCTYPE svg PUBLIC "-//W3C//DTD SVG 1.1//EN" "http://www.w3.org/Graphics/SVG/1.1/DTD/svg11.dtd"><svg t="1773392541614" class="icon" viewBox="0 0 1024 1024" version="1.1" xmlns="http://www.w3.org/2000/svg" p-id="33113" xmlns:xlink="http://www.w3.org/1999/xlink" width="200" height="200"><path d="M848 806.016c0 9.856-3.776 46.08-7.488 56-7.488 49.28 56 78.912 56 78.912s-93.312 42.88-171.712 0c-78.4-42.752-156.8-138.24-44.8-200.768 26.176-13.184 48.576-19.712 67.2-19.712 59.776 0 97.024 46.08 100.8 85.568z m-392-128.448l37.376 52.736c59.648 52.608 97.024 32.896 97.024 32.896-29.824 69.12 0 115.2 14.976 131.648a424.448 424.448 0 0 1-93.44 9.92c-63.36 0-119.36-9.92-175.36-32.896-3.776 0-3.776-3.328-3.776-3.328-26.176-16.448-14.976-36.224-7.424-46.08a60.8 60.8 0 0 0 14.848-42.752c0-56-70.848-102.144-160.448-102.144H153.6c-14.976 0-44.8 9.92-56-26.24 0-3.328 0-3.328-3.776-6.592 0-3.392-3.648-6.592-3.648-6.592-7.552-16.512-7.552-16.512-7.552-19.84A398.848 398.848 0 0 1 64 499.968c0-108.672 48.576-204.16 126.976-276.608 97.024 167.936 264.96 454.272 264.96 454.272z m392-263.36c0-29.632-26.176-52.608-59.776-52.608-33.6 0-59.648 23.04-59.648 52.608 0 29.696 26.048 52.736 59.648 52.736 33.6 0 59.776-23.04 59.776-52.672z m-112-138.24c0-23.04-22.4-42.816-48.576-42.816-26.048 0-48.448 19.84-48.448 42.816 0 23.04 22.4 42.88 48.448 42.88 26.176 0 48.576-19.84 48.576-42.88zM575.36 196.992c0-13.184-14.848-26.304-29.824-26.304s-29.824 13.12-29.824 26.304 14.848 26.304 29.824 26.304 29.824-13.12 29.824-26.24zM960 503.168c0 88.832-29.888 171.2-85.888 236.992-33.6-62.592-130.688-62.592-145.536-62.592 18.56-52.608-18.752-102.016-18.752-102.016l-369.6-434.56c56-19.776 115.776-32.896 175.552-32.896 246.4-3.2 444.16 174.464 444.16 395.072zM216.96 71.808c26.176 19.776 455.552 533.312 455.552 533.312 26.048 29.696 14.848 79.04-26.24 102.016l-11.136 6.656c-41.024 23.04-93.376 13.12-115.776-26.368l-11.2-19.712c-63.424-108.608-321.024-539.84-336-569.472-7.424-19.84 3.776-32.96 22.4-32.96 7.552-3.264 14.976 0 22.4 6.656v-0.064z" fill="#08B68B" p-id="33114"></path></svg>