<?xml version="1.0" standalone="no"?><!DOCTYPE svg PUBLIC "-//W3C//DTD SVG 1.1//EN" "http://www.w3.org/Graphics/SVG/1.1/DTD/svg11.dtd"><svg t="1773393097760" class="icon" viewBox="0 0 1024 1024" version="1.1" xmlns="http://www.w3.org/2000/svg" p-id="51442" xmlns:xlink="http://www.w3.org/1999/xlink" width="200" height="200"><path d="M807.1 213.9v82.9h-0.1v580c0 30.5-24.8 55.2-55.2 55.2H227c-30.5 0-55.2-24.8-55.2-55.2V264.9h0.1v-51c0-30.5 24.8-55.2 55.2-55.2h524.8c30.4 0 55.2 24.7 55.2 55.2z" fill="#FEF8E6" p-id="51443"></path><path d="M709 374.1H269.8c-21.5 0-38.9-17.4-38.9-38.9v-50.4c0-21.5 17.4-38.9 38.9-38.9H709c21.5 0 38.9 17.4 38.9 38.9v50.4c0 21.4-17.4 38.9-38.9 38.9z" fill="#8ADCFF" p-id="51444"></path><path d="M702.4 474.4h-426c-12.1 0-22.1-9.9-22.1-22.1 0-12.1 9.9-22.1 22.1-22.1h426c12.1 0 22.1 9.9 22.1 22.1 0 12.1-10 22.1-22.1 22.1zM702.4 593.2h-426c-12.1 0-22.1-9.9-22.1-22.1 0-12.1 9.9-22.1 22.1-22.1h426c12.1 0 22.1 9.9 22.1 22.1 0 12.2-10 22.1-22.1 22.1zM643.2 712.1H276.4c-12.1 0-22.1-9.9-22.1-22.1 0-12.1 9.9-22.1 22.1-22.1h366.8c12.1 0 22.1 9.9 22.1 22.1 0 12.2-10 22.1-22.1 22.1zM465.7 831H276.4c-12.1 0-22.1-9.9-22.1-22.1 0-12.1 9.9-22.1 22.1-22.1h189.3c12.1 0 22.1 9.9 22.1 22.1-0.1 12.2-10 22.1-22.1 22.1z" fill="#A6B7BF" p-id="51445"></path><path d="M313.8 174.9c0 15.3 12.3 27.6 27.6 27.6s27.6-12.3 27.6-27.6v-55.2c0-15.3-12.3-27.6-27.6-27.6s-27.6 12.3-27.6 27.6v55.2zM461.8 174.9c0 15.3 12.3 27.6 27.6 27.6s27.6-12.3 27.6-27.6v-55.2c0-15.3-12.3-27.6-27.6-27.6s-27.6 12.3-27.6 27.6v55.2zM609.7 174.9c0 15.3 12.3 27.6 27.6 27.6s27.6-12.3 27.6-27.6v-55.2c0-15.3-12.3-27.6-27.6-27.6s-27.6 12.3-27.6 27.6v55.2z" fill="#50E6CC" p-id="51446"></path><path d="M807.1 213.9v82.9h-0.1v580c0 30.5-24.8 55.2-55.2 55.2h-49.3c30.5 0 55.2-24.8 55.2-55.2v-580h0.1v-82.9c0-30.5-24.8-55.2-55.2-55.2h49.3c30.4 0 55.2 24.7 55.2 55.2z" fill="#FCEFAD" p-id="51447"></path><path d="M369.1 119.6v55.2c0 15.3-12.3 27.6-27.6 27.6-3.5 0-6.8-0.6-9.9-1.8 10.4-4 17.8-14 17.8-25.8v-55.2c0-11.8-7.4-21.9-17.8-25.8 3.1-1.2 6.4-1.8 9.9-1.8 15.2 0 27.6 12.3 27.6 27.6zM517 119.6v55.2c0 15.3-12.3 27.6-27.6 27.6-3.5 0-6.8-0.6-9.9-1.8 10.4-4 17.8-14 17.8-25.8v-55.2c0-11.8-7.4-21.9-17.8-25.8 3.1-1.2 6.4-1.8 9.9-1.8 15.3 0 27.6 12.3 27.6 27.6zM665 119.6v55.2c0 15.3-12.3 27.6-27.6 27.6-3.5 0-6.8-0.6-9.9-1.8 10.4-4 17.8-14 17.8-25.8v-55.2c0-11.8-7.4-21.9-17.8-25.8 3.1-1.2 6.4-1.8 9.9-1.8 15.2 0 27.6 12.3 27.6 27.6z" fill="#45DABD" p-id="51448"></path><path d="M747.9 284.2v51.5c0 21.2-17.2 38.4-38.4 38.4h-49.3c21.2 0 38.4-17.2 38.4-38.4v-51.5c0-21.2-17.2-38.4-38.4-38.4h49.3c21.2 0 38.4 17.2 38.4 38.4z" fill="#46CDFB" p-id="51449"></path><path d="M724.5 452.3c0 6.1-2.5 11.6-6.5 15.6s-9.5 6.5-15.6 6.5h-49.3c6.1 0 11.6-2.5 15.6-6.5s6.5-9.5 6.5-15.6c0-12.2-9.9-22.1-22.1-22.1h49.3c12.1 0 22.1 9.9 22.1 22.1zM642.2 571.2c0 6.1-2.5 11.6-6.5 15.6s-9.5 6.5-15.6 6.5h-79.3c6.1 0 11.6-2.5 15.6-6.5s6.5-9.5 6.5-15.6c0-12.2-9.9-22.1-22.1-22.1h79.3c12.1 0 22.1 9.9 22.1 22.1zM520.2 690.1c0 6.1-2.5 11.6-6.5 15.6s-9.5 6.5-15.6 6.5h-49.3c6.1 0 11.6-2.5 15.6-6.5s6.5-9.5 6.5-15.6c0-12.1-9.9-22.1-22.1-22.1h49.3c12.1 0 22.1 9.9 22.1 22.1zM487.7 808.9c0 6.1-2.5 11.6-6.5 15.6s-9.5 6.5-15.6 6.5h-49.3c6.1 0 11.6-2.5 15.6-6.5s6.5-9.5 6.5-15.6c0-12.1-9.9-22.1-22.1-22.1h49.3c12.2 0 22.1 10 22.1 22.1z" fill="#889CA9" p-id="51450"></path><path d="M520.227 678.39l207.251-207.25 119.005 119.004-207.25 207.251z" fill="#8ADCFF" p-id="51451"></path><path d="M876.4 560.1l-119-119 19.2-19.2c20.5-20.5 53.7-20.5 74.2 0l44.9 44.9c20.5 20.5 20.5 53.7 0 74.2l-19.3 19.1z" fill="#F77490" p-id="51452"></path><path d="M727.408 471.018l29.981-29.98 119.005 119.004-29.98 29.981z" fill="#FDF17F" p-id="51453"></path><path d="M639.2 797.3L546 816.5l-56.6 11.6 11.6-56.6 19.2-93.2z" fill="#FBD1AA" p-id="51454"></path><path d="M546 816.5l-56.6 11.6 11.6-56.6z" fill="#889CA9" p-id="51455"></path><path d="M540.755 698.855l207.251-207.25 26.729 26.728-207.251 207.25zM591.979 750.058l207.251-207.25 20.506 20.505-207.251 207.251z" fill="#46CDFB" p-id="51456"></path><path d="M612.517 770.626l207.25-207.251 6.223 6.222-207.25 207.251z" fill="#15B7FF" p-id="51457"></path><path d="M618.679 776.747l207.25-207.25 20.506 20.505-207.25 207.251z" fill="#46CDFB" p-id="51458"></path><path d="M897.8 538.7l-21.4 21.4-26.8-26.8 21.4-21.4c19.2-19.2 19.2-50.4 0-69.7l26.8 26.8c19.3 19.3 19.3 50.5 0 69.7z" fill="#F65D73" p-id="51459"></path><path d="M819.71 563.355l29.981-29.981 26.8 26.799-29.982 29.98z" fill="#FDF17F" p-id="51460"></path><path d="M639.2 797.3L546 816.5l-56.6 11.6 6.9-33.6 22.9-4.8 93.3-19.1z" fill="#F7BD81" p-id="51461"></path><path d="M546 816.5l-56.6 11.6 6.9-33.6 22.9-4.8z" fill="#73859E" p-id="51462"></path><path d="M709 384.1c27 0 48.9-21.9 48.9-48.9v-50.4c0-27-21.9-48.9-48.9-48.9H269.8c-27 0-48.9 21.9-48.9 48.9v50.4c0 27 21.9 48.9 48.9 48.9H709z m-468.1-48.9v-50.4c0-15.9 13-28.9 28.9-28.9H709c15.9 0 28.9 13 28.9 28.9v50.4c0 15.9-13 28.9-28.9 28.9H269.8c-15.9 0-28.9-13-28.9-28.9z" fill="#00435B" p-id="51463"></path><path d="M902.8 459.7l-44.9-44.9c-11.3-11.3-26-17.4-40.9-18.2v-98.4c0.1-0.5 0.1-0.9 0.1-1.4v-82.9c0-36-29.2-65.2-65.2-65.2h-77v-29c0-20.7-16.9-37.6-37.6-37.6-20.7 0-37.6 16.9-37.6 37.6v29H527v-29c0-20.7-16.9-37.6-37.6-37.6s-37.6 16.9-37.6 37.6v29H379v-29c0-20.7-16.9-37.6-37.6-37.6s-37.6 16.9-37.6 37.6v29h-76.7c-36 0-65.2 29.2-65.2 65.2v49.6c-0.1 0.5-0.1 0.9-0.1 1.4v611.9c0 36 29.2 65.2 65.2 65.2h524.8c36 0 65.2-29.2 65.2-65.2V633.7l36.6-36.6c0.3-0.3 0.6-0.7 0.9-1l28.2-28.2c0.3-0.2 0.5-0.4 0.8-0.7l19.3-19.1c24.3-24.4 24.3-64 0-88.4z m-283.1-340c0-9.7 7.9-17.6 17.6-17.6 9.7 0 17.6 7.9 17.6 17.6v55.2c0 9.7-7.9 17.6-17.6 17.6-9.7 0-17.6-7.9-17.6-17.6v-55.2z m-147.9 0c0-9.7 7.9-17.6 17.6-17.6S507 110 507 119.7v55.2c0 9.7-7.9 17.6-17.6 17.6s-17.6-7.9-17.6-17.6v-55.2z m-148 0c0-9.7 7.9-17.6 17.6-17.6S359 110 359 119.7v55.2c0 9.7-7.9 17.6-17.6 17.6s-17.6-7.9-17.6-17.6v-55.2zM797 876.8c0 24.9-20.3 45.2-45.2 45.2H227c-24.9 0-45.2-20.3-45.2-45.2V266.3c0.1-0.5 0.1-0.9 0.1-1.4v-51c0-24.9 20.3-45.2 45.2-45.2h76.7v6.2c0 20.7 16.9 37.6 37.6 37.6s37.6-16.9 37.6-37.6v-6.2h72.8v6.2c0 20.7 16.9 37.6 37.6 37.6s37.6-16.9 37.6-37.6v-6.2h72.7v6.2c0 20.7 16.9 37.6 37.6 37.6 20.7 0 37.6-16.9 37.6-37.6v-6.2h77c24.9 0 45.2 20.3 45.2 45.2v81.5c-0.1 0.5-0.1 0.9-0.1 1.4v102c-10.1 2.8-19.6 8.1-27.5 16l-18.4 18.4c-0.3 0.2-0.6 0.5-0.8 0.7l-15.9 15.9c-1.2-16.6-15.1-29.7-32-29.7h-426c-17.7 0-32.1 14.4-32.1 32.1s14.4 32.1 32.1 32.1H700L645.4 539h-369c-8.6 0-16.6 3.4-22.7 9.4-6.1 6.1-9.4 14.1-9.4 22.7 0 17.7 14.4 32.1 32.1 32.1h304.8l-54.7 54.7H276.4c-8.6 0-16.6 3.4-22.7 9.4-6.1 6.1-9.4 14.1-9.4 22.7 0 17.7 14.4 32.1 32.1 32.1H501l-9.8 47.4-3.3 16.2c-5.8-5.5-13.6-8.9-22.2-8.9H276.4c-17.7 0-32.1 14.4-32.1 32.1s14.4 32.1 32.1 32.1h189.3c6.4 0 12.3-1.9 17.4-5.2 1.2 1 2.7 1.7 4.3 2h0.1c0.1 0 0.3 0 0.4 0.1 0.5 0.1 1 0.1 1.5 0.1 0.7 0 1.3-0.1 2-0.2l56.6-11.6 92.5-19.1c2.1-0.3 4.1-1.2 5.8-2.8L797 653.7v223.1z m-247.7-71.2l-23-23-14.4-14.4 11.1-54v-0.2l3.2-15.5 7.4 7.4 26.7 26.7 24.2 24.2 0.2 0.2 8.4 8.4 17.9 17.9c0.1 0.2 0.3 0.3 0.4 0.5l7.4 7.4-69.5 14.4z m51.9-222.4H276.4c-6.7 0-12.1-5.4-12.1-12.1 0-3.2 1.3-6.2 3.6-8.5s5.3-3.6 8.5-3.6h349l-24.2 24.2z m126.2-97.9l6.4 6.4-193 193-6.4-6.4 193-193z m-25-20.9h-426c-6.7 0-12.1-5.4-12.1-12.1s5.4-12.1 12.1-12.1h426c6.7 0 12.1 5.4 12.1 12.1 0 6.6-5.5 12.1-12.1 12.1z m109.3 105.1l-193 193.1-8.5-8.5-4.1-4.1 193.1-193 12.5 12.5z m14.2 14.2l6.3 6.3-193 193.1-6.3-6.3 193-193.1zM592 735.9l-10.3-10.3 193.1-193.1 10.3 10.3L592 735.9z m168.6-217.5l-193.1 193-12.6-12.6 193.1-193 12.6 12.6zM505.1 702.1H276.4c-6.7 0-12.1-5.4-12.1-12.1 0-3.2 1.3-6.2 3.6-8.5s5.3-3.6 8.5-3.6h233.7l-5 24.2z m-2.9 113.2l2.5-12.3 11.2-2.3 9.8 9.8-23.5 4.8z m-24.4-6.5c-0.1 6.7-5.5 12.2-12.1 12.2H276.4c-6.7 0-12.1-5.4-12.1-12.1s5.4-12.1 12.1-12.1h189.3c6.7 0 12.1 5.4 12.1 12z m368.6-232.9l-13-13c-0.1-0.1-0.2-0.3-0.4-0.4L817.6 547l-76-76 15.8-15.8 104.9 104.9-15.9 15.8z m42.3-42L876.4 546 771.5 441.1l12.1-12.1c16.6-16.6 43.5-16.6 60.1 0l44.9 44.9c16.6 16.5 16.6 43.5 0.1 60z" fill="#00435B" p-id="51464"></path></svg>