<svg xmlns="http://www.w3.org/2000/svg" width="678" height="425" fill="none"><g clip-path="url(#a)"><rect width="210" height="53" x="174" y="285" fill="#ff6464" rx="4"/><rect width="251" height="106" x="174" y="69" fill="#4b7eff" rx="4"/><path fill="#42b883" d="M171.625 276.945v-1.985l-4.014-1.34-.498-.176.498-.183 4.014-1.362v-1.978l-6.482 2.688v1.648zm4.87-9.609h-2.556V278h1.89v-3.157l-.088-4.79 1.252 4.431h1.018l1.399-4.629-.088 4.988V278h1.89v-10.664h-2.556l-1.15 4.006zm7.808 13.865q.615 0 1.062-.205.453-.206.769-.506.315-.3.52-.652.212-.351.344-.651l4.021-9.112h-2.248l-1.81 4.658-.3.791-.22-.805-1.816-4.644h-2.227l3.355 7.588-.469.872q-.088.16-.154.249a7 7 0 0 1-.19.263 1.7 1.7 0 0 1-.322.323.64.64 0 0 1-.425.153q-.117 0-.315-.014a8 8 0 0 0-.315-.008l-.249 1.553q.263.074.476.11a3 3 0 0 0 .513.037m15.088-6.541h-2.058q-.03.483-.162.828a1.5 1.5 0 0 1-.359.564 1.4 1.4 0 0 1-.549.322 2.4 2.4 0 0 1-.725.103q-.3 0-.549-.066a1.493 1.493 0 0 1-.769-.55 2.2 2.2 0 0 1-.242-.454 4 4 0 0 1-.22-.871 9 9 0 0 1-.066-1.143v-1.45q0-.469.044-.872.045-.41.139-.747.125-.432.33-.754.213-.33.513-.506.175-.102.381-.153.212-.052.454-.052.453 0 .776.125.33.117.549.351.212.243.323.601.117.359.146.835h2.051a5 5 0 0 0-.352-1.501 3.3 3.3 0 0 0-.761-1.128 3.3 3.3 0 0 0-1.172-.711q-.681-.249-1.56-.249-.594 0-1.114.154a3.5 3.5 0 0 0-.944.425 4 4 0 0 0-.865.805 4 4 0 0 0-.615 1.084 5 5 0 0 0-.307 1.084 7 7 0 0 0-.103 1.224v1.435q0 .689.11 1.304.117.615.329 1.128.22.513.535.937.322.425.733.725.446.322 1.003.498.564.17 1.223.169.835 0 1.524-.242.688-.249 1.186-.703t.791-1.099q.3-.644.352-1.45m1.399-.696v.154q0 .872.249 1.611.249.733.732 1.275.476.541 1.172.85.703.3 1.597.3.886 0 1.582-.3a3.34 3.34 0 0 0 1.171-.85q.477-.542.726-1.275a5 5 0 0 0 .249-1.611v-.154q0-.864-.249-1.596a3.7 3.7 0 0 0-.726-1.282 3.4 3.4 0 0 0-1.179-.85q-.695-.307-1.589-.307t-1.589.307a3.34 3.34 0 0 0-1.165.85 3.7 3.7 0 0 0-.732 1.282 5 5 0 0 0-.249 1.596m2.036.154v-.154q0-.483.095-.915a2.4 2.4 0 0 1 .3-.762q.206-.33.528-.52.321-.19.776-.19.462 0 .784.19.321.19.527.52.197.33.293.762t.095.915v.154q0 .498-.095.938a2.4 2.4 0 0 1-.293.754q-.206.33-.527.52a1.5 1.5 0 0 1-.769.191q-.462 0-.791-.191a1.54 1.54 0 0 1-.528-.52 2.3 2.3 0 0 1-.3-.754 4.4 4.4 0 0 1-.095-.938m8.518-4.043h-1.751V278h1.853v-5.933q.037-.095.081-.175a.593.593 0 0 1 .285-.264.6.6 0 0 1 .235-.044.6.6 0 0 1 .22.037.4.4 0 0 1 .183.109.6.6 0 0 1 .117.228q.044.146.044.373V278h1.794v-6.05a.6.6 0 0 1 .088-.139.7.7 0 0 1 .117-.117.8.8 0 0 1 .169-.081.7.7 0 0 1 .212-.029.6.6 0 0 1 .213.037.4.4 0 0 1 .19.109.6.6 0 0 1 .125.235q.051.146.051.373V278h1.853v-5.654q0-.66-.132-1.114a2.1 2.1 0 0 0-.352-.754 1.4 1.4 0 0 0-.549-.417 1.7 1.7 0 0 0-.666-.132q-.286 0-.528.073a1.54 1.54 0 0 0-.717.454 2 2 0 0 0-.228.315 1.4 1.4 0 0 0-.161-.322 1.016 1.016 0 0 0-.593-.454 1.7 1.7 0 0 0-.498-.066q-.572 0-.974.3a1.97 1.97 0 0 0-.623.806zm7.771 10.972h2.036v-3.735q.139.153.293.278t.322.227q.286.16.615.242.337.087.733.087.747 0 1.325-.307.579-.307.975-.85.388-.534.586-1.274a6 6 0 0 0 .205-1.604v-.154q0-.9-.205-1.641a3.7 3.7 0 0 0-.594-1.281 2.7 2.7 0 0 0-.974-.813q-.579-.293-1.333-.293-.367 0-.688.08-.315.073-.579.213a2.4 2.4 0 0 0-.41.278 2.4 2.4 0 0 0-.352.352l-.073-.777h-1.882zm5.053-7.09v.154q0 .49-.087.93a2.5 2.5 0 0 1-.279.762 1.46 1.46 0 0 1-.498.52q-.3.19-.732.19-.271 0-.491-.051a1.5 1.5 0 0 1-.388-.161 1.5 1.5 0 0 1-.315-.264 1.6 1.6 0 0 1-.227-.344v-3.311q.102-.204.242-.359.146-.154.336-.256a1.5 1.5 0 0 1 .374-.132q.205-.051.454-.051.432 0 .733.183.307.183.505.498.19.322.278.762.096.432.095.93m3.648.007v.154q0 .872.249 1.611.249.733.732 1.275.477.541 1.172.85.703.3 1.597.3.886 0 1.582-.3a3.35 3.35 0 0 0 1.172-.85q.476-.542.725-1.275a5 5 0 0 0 .249-1.611v-.154q0-.864-.249-1.596a3.7 3.7 0 0 0-.725-1.282 3.4 3.4 0 0 0-1.179-.85q-.696-.307-1.59-.307-.893 0-1.589.307a3.35 3.35 0 0 0-1.165.85 3.7 3.7 0 0 0-.732 1.282 5 5 0 0 0-.249 1.596m2.036.154v-.154q0-.483.095-.915.096-.432.301-.762.204-.33.527-.52a1.5 1.5 0 0 1 .776-.19q.462 0 .784.19.323.19.527.52.198.33.293.762t.095.915v.154q0 .498-.095.938a2.4 2.4 0 0 1-.293.754q-.204.33-.527.52a1.5 1.5 0 0 1-.769.191q-.462 0-.791-.191a1.5 1.5 0 0 1-.527-.52 2.3 2.3 0 0 1-.301-.754 4.5 4.5 0 0 1-.095-.938m7.251 3.882h2.043v-5.632q.104-.161.228-.293t.278-.227a1.4 1.4 0 0 1 .432-.198q.25-.066.542-.066.351 0 .63.073.278.066.476.242t.3.483q.11.301.11.769V278h2.036v-4.878q0-.864-.205-1.465a2.7 2.7 0 0 0-.556-.996 2.2 2.2 0 0 0-.865-.557 3.3 3.3 0 0 0-1.098-.175q-.469 0-.887.132a2.75 2.75 0 0 0-1.157.71 3 3 0 0 0-.337.403l-.124-1.099h-1.846zm12.854.146q1.15 0 1.992-.446.843-.447 1.231-.996l-1.018-1.099q-.352.454-.916.681a3.1 3.1 0 0 1-1.164.227q-.426 0-.784-.132a2 2 0 0 1-.637-.373 2 2 0 0 1-.432-.52 2.9 2.9 0 0 1-.264-.769v-.022h5.376v-.864q0-.872-.242-1.59a3.5 3.5 0 0 0-.703-1.238 3.2 3.2 0 0 0-1.143-.791q-.666-.285-1.523-.285-.828 0-1.531.3t-1.216.842a3.9 3.9 0 0 0-.798 1.297 4.6 4.6 0 0 0-.286 1.655v.293q0 .798.286 1.501.293.696.828 1.209.534.52 1.281.82.748.3 1.663.3m-.242-6.569q.388 0 .681.124.301.117.506.322.205.213.322.498.117.287.117.608v.162h-3.34q.074-.389.22-.704t.366-.542q.213-.227.498-.344.286-.124.63-.124m5.406 6.423h2.043v-5.632q.102-.161.227-.293t.278-.227q.19-.132.433-.198.249-.066.542-.066.351 0 .629.073.279.066.477.242t.3.483q.11.301.11.769V278h2.036v-4.878q0-.864-.205-1.465a2.7 2.7 0 0 0-.557-.996 2.2 2.2 0 0 0-.864-.557 3.3 3.3 0 0 0-1.099-.175q-.469 0-.886.132a2.7 2.7 0 0 0-.769.38 3.1 3.1 0 0 0-.725.733l-.125-1.099h-1.845zm12.744-9.866h-2.036v1.941h-1.809v1.502h1.809v3.603q0 .784.205 1.348a2.34 2.34 0 0 0 1.487 1.457q.534.17 1.186.169.337 0 .681-.037a7 7 0 0 0 .674-.088q.322-.059.608-.146.285-.096.498-.22l-.198-1.399a4 4 0 0 1-.337.073 6 6 0 0 1-.41.066 6.5 6.5 0 0 1-.952.081q-.322 0-.586-.073a1.03 1.03 0 0 1-.439-.249 1.1 1.1 0 0 1-.286-.454 2.4 2.4 0 0 1-.095-.726v-3.405h2.959v-1.502h-2.959zM284.667 278h1.911l3.01-7.925h-2.124l-1.735 5.589-.11.556-.11-.556-1.743-5.589h-2.124zm13.623-3.882v-1.648h-6.102v1.648zm6.987 1.707a.63.63 0 0 1-.095.337.8.8 0 0 1-.271.271 1.7 1.7 0 0 1-.491.19 3.2 3.2 0 0 1-.689.066q-.329 0-.644-.066a1.8 1.8 0 0 1-.549-.212 1.2 1.2 0 0 1-.396-.367 1.14 1.14 0 0 1-.176-.556h-1.941q0 .483.235.967.241.476.703.849.462.381 1.142.615.689.235 1.583.235a5.7 5.7 0 0 0 1.472-.176q.659-.183 1.128-.505a2.34 2.34 0 0 0 .71-.762q.256-.447.256-.974 0-.571-.256-.982a2.2 2.2 0 0 0-.696-.71 4.2 4.2 0 0 0-1.062-.469q-.615-.183-1.333-.3a6 6 0 0 1-.82-.169 2 2 0 0 1-.505-.227.7.7 0 0 1-.264-.263.76.76 0 0 1 .007-.659.85.85 0 0 1 .249-.279q.176-.132.454-.205.279-.073.652-.073.44 0 .747.11.315.11.498.293a.992.992 0 0 1 .264.681h2.036q0-.55-.242-1.018a2.4 2.4 0 0 0-.695-.813 3.6 3.6 0 0 0-1.121-.528 5.2 5.2 0 0 0-1.487-.197q-.79 0-1.421.197-.63.198-1.069.535a2.4 2.4 0 0 0-.674.784q-.234.447-.234.937 0 .505.227.894.234.388.644.681.41.3.982.513.579.204 1.274.344.55.102.908.205.36.102.579.22a.8.8 0 0 1 .293.263.6.6 0 0 1 .088.323m4.321-9.075v1.663h2.373v7.932h-2.373V278h6.702v-1.655h-2.271v-9.595zm8.306 7.214v.154q0 .872.249 1.611.249.733.732 1.275.476.541 1.172.85.703.3 1.597.3.886 0 1.582-.3a3.35 3.35 0 0 0 1.172-.85q.476-.542.725-1.275a5 5 0 0 0 .249-1.611v-.154q0-.864-.249-1.596a3.7 3.7 0 0 0-.725-1.282 3.4 3.4 0 0 0-1.179-.85q-.696-.307-1.59-.307t-1.589.307a3.35 3.35 0 0 0-1.165.85 3.7 3.7 0 0 0-.732 1.282 5 5 0 0 0-.249 1.596m2.036.154v-.154q0-.483.095-.915.096-.432.3-.762.205-.33.528-.52.322-.19.776-.19.462 0 .784.19t.527.52q.198.33.293.762.096.432.095.915v.154q0 .498-.095.938a2.4 2.4 0 0 1-.293.754q-.205.33-.527.52a1.5 1.5 0 0 1-.769.191q-.462 0-.791-.191a1.54 1.54 0 0 1-.528-.52 2.4 2.4 0 0 1-.3-.754 4.5 4.5 0 0 1-.095-.938m10.986-5.984h-2.036v1.941h-1.809v1.502h1.809v3.603q0 .784.205 1.348a2.35 2.35 0 0 0 1.487 1.457q.534.17 1.187.169.336 0 .681-.037a7 7 0 0 0 .674-.088q.322-.059.607-.146.286-.096.498-.22l-.197-1.399a4 4 0 0 1-.337.073 6 6 0 0 1-.41.066 6.6 6.6 0 0 1-.952.081q-.323 0-.586-.073a1.04 1.04 0 0 1-.44-.249 1.1 1.1 0 0 1-.286-.454 2.4 2.4 0 0 1-.095-.726v-3.405h2.959v-1.502h-2.959zm12.327 4.615v-1.67h-6.929v1.67zm0 3.156v-1.662h-6.929v1.662zm4.49-8.364v-.791h-1.509v3.867h1.296zm3.01 0v-.791h-1.502v3.867h1.297zm8.577 8.284a.63.63 0 0 1-.096.337.8.8 0 0 1-.271.271q-.19.117-.49.19a3.2 3.2 0 0 1-.689.066q-.33 0-.644-.066a1.8 1.8 0 0 1-.55-.212 1.2 1.2 0 0 1-.395-.367 1.13 1.13 0 0 1-.176-.556h-1.941q0 .483.234.967.242.476.704.849.46.381 1.142.615.689.235 1.582.235.813 0 1.472-.176.66-.183 1.128-.505.462-.322.711-.762.256-.447.256-.974 0-.571-.256-.982a2.2 2.2 0 0 0-.696-.71 4.2 4.2 0 0 0-1.062-.469q-.616-.183-1.333-.3a6 6 0 0 1-.82-.169 2 2 0 0 1-.506-.227.67.67 0 0 1-.263-.263.76.76 0 0 1-.074-.33q0-.176.081-.329a.85.85 0 0 1 .249-.279q.176-.132.454-.205.279-.073.652-.073.44 0 .747.11.315.11.498.293a.992.992 0 0 1 .264.681h2.036a2.2 2.2 0 0 0-.242-1.018 2.4 2.4 0 0 0-.696-.813 3.6 3.6 0 0 0-1.12-.528 5.2 5.2 0 0 0-1.487-.197q-.79 0-1.421.197-.63.198-1.069.535a2.4 2.4 0 0 0-.674.784q-.235.447-.235.937 0 .505.228.894.234.388.644.681.41.3.982.513.578.204 1.274.344.55.102.908.205.358.102.579.22a.8.8 0 0 1 .293.263.6.6 0 0 1 .088.323m4.321-9.075v1.663h2.373v7.932h-2.373V278h6.702v-1.655h-2.271v-9.595zm8.306 7.214v.154q0 .872.249 1.611.249.733.732 1.275.476.541 1.172.85.703.3 1.597.3.885 0 1.582-.3a3.34 3.34 0 0 0 1.171-.85q.477-.542.726-1.275a5 5 0 0 0 .249-1.611v-.154q0-.864-.249-1.596a3.7 3.7 0 0 0-.726-1.282 3.4 3.4 0 0 0-1.179-.85q-.695-.307-1.589-.307t-1.589.307a3.34 3.34 0 0 0-1.165.85 3.7 3.7 0 0 0-.732 1.282 5 5 0 0 0-.249 1.596m2.036.154v-.154q0-.483.095-.915a2.4 2.4 0 0 1 .3-.762q.205-.33.528-.52.321-.19.776-.19.462 0 .784.19.321.19.527.52.197.33.293.762t.095.915v.154q0 .498-.095.938a2.4 2.4 0 0 1-.293.754q-.206.33-.527.52a1.5 1.5 0 0 1-.769.191q-.462 0-.791-.191a1.54 1.54 0 0 1-.528-.52 2.3 2.3 0 0 1-.3-.754 4.4 4.4 0 0 1-.095-.938m10.986-5.984h-2.036v1.941h-1.809v1.502h1.809v3.603q0 .784.205 1.348a2.35 2.35 0 0 0 1.487 1.457 3.9 3.9 0 0 0 1.186.169q.337 0 .681-.037a7 7 0 0 0 .674-.088q.323-.059.608-.146.287-.096.498-.22l-.198-1.399a6.345 6.345 0 0 1-.747.139 6.5 6.5 0 0 1-.952.081q-.322 0-.586-.073a1.03 1.03 0 0 1-.439-.249 1.1 1.1 0 0 1-.286-.454 2.4 2.4 0 0 1-.095-.726v-3.405h2.959v-1.502h-2.959zm7.39 5.955h1.589q.872 0 1.575-.249a3.5 3.5 0 0 0 1.201-.696q.491-.44.755-1.047.27-.608.271-1.326 0-.77-.271-1.399a3.1 3.1 0 0 0-.755-1.084 3.5 3.5 0 0 0-1.201-.696 4.6 4.6 0 0 0-1.575-.256h-3.647V278h2.058zm0-1.67v-3.413h1.589q.44 0 .762.139.323.14.542.381.213.242.315.564.11.322.11.696 0 .321-.11.622a1.4 1.4 0 0 1-.315.52 1.6 1.6 0 0 1-.542.359 2 2 0 0 1-.762.132zm12.583-2.49q-.798 0-1.472.388a3.6 3.6 0 0 0-1.157 1.055l-.015-.176-.08-1.121h-1.897V278h2.036v-4.761q.139-.337.351-.586.213-.249.513-.41.249-.14.564-.205.322-.073.718-.073.381 0 .798.051.425.044.828.139l.3-2.029a5 5 0 0 0-.637-.131 5 5 0 0 0-.85-.066m3.04 4.035v.154q0 .872.249 1.611.249.733.732 1.275.477.541 1.172.85.703.3 1.597.3.886 0 1.582-.3a3.35 3.35 0 0 0 1.172-.85q.476-.542.725-1.275a5 5 0 0 0 .249-1.611v-.154q0-.864-.249-1.596a3.7 3.7 0 0 0-.725-1.282 3.4 3.4 0 0 0-1.18-.85q-.695-.307-1.589-.307-.893 0-1.589.307a3.35 3.35 0 0 0-1.165.85 3.7 3.7 0 0 0-.732 1.282 5 5 0 0 0-.249 1.596m2.036.154v-.154q0-.483.095-.915.096-.432.3-.762.206-.33.528-.52t.776-.19q.462 0 .784.19t.527.52q.198.33.293.762.096.432.095.915v.154q0 .498-.095.938a2.4 2.4 0 0 1-.293.754q-.205.33-.527.52a1.5 1.5 0 0 1-.769.191q-.462 0-.791-.191a1.54 1.54 0 0 1-.528-.52 2.4 2.4 0 0 1-.3-.754 4.5 4.5 0 0 1-.095-.938m7.28 6.929h2.036v-3.735a2.7 2.7 0 0 0 .615.505q.286.16.616.242.336.087.732.087.747 0 1.326-.307t.974-.85q.388-.534.586-1.274a6 6 0 0 0 .205-1.604v-.154q0-.9-.205-1.641a3.8 3.8 0 0 0-.593-1.281 2.7 2.7 0 0 0-.975-.813q-.578-.293-1.333-.293-.366 0-.688.08-.315.073-.579.213a2.4 2.4 0 0 0-.41.278q-.19.154-.351.352l-.074-.777h-1.882zm5.054-7.09v.154q0 .49-.088.93a2.5 2.5 0 0 1-.278.762 1.46 1.46 0 0 1-.498.52q-.301.19-.733.19-.271 0-.491-.051a1.5 1.5 0 0 1-.388-.161 1.5 1.5 0 0 1-.315-.264 1.7 1.7 0 0 1-.227-.344v-3.311q.103-.204.242-.359.147-.154.337-.256.168-.088.373-.132.205-.051.454-.051.433 0 .733.183.307.183.505.498.19.322.279.762.095.432.095.93m9.038 1.868a.63.63 0 0 1-.095.337.8.8 0 0 1-.271.271 1.7 1.7 0 0 1-.491.19 3.2 3.2 0 0 1-.689.066q-.329 0-.644-.066a1.8 1.8 0 0 1-.549-.212 1.2 1.2 0 0 1-.396-.367 1.14 1.14 0 0 1-.176-.556h-1.941q0 .483.235.967.241.476.703.849.461.381 1.143.615.688.235 1.582.235.813 0 1.472-.176.659-.183 1.128-.505a2.34 2.34 0 0 0 .71-.762q.256-.447.256-.974 0-.571-.256-.982a2.2 2.2 0 0 0-.696-.71 4.2 4.2 0 0 0-1.062-.469q-.615-.183-1.333-.3a6 6 0 0 1-.82-.169 2 2 0 0 1-.505-.227.7.7 0 0 1-.264-.263.76.76 0 0 1 .007-.659.85.85 0 0 1 .249-.279q.176-.132.454-.205.279-.073.652-.073.44 0 .747.11.315.11.498.293a.992.992 0 0 1 .264.681h2.036q0-.55-.242-1.018a2.4 2.4 0 0 0-.695-.813 3.6 3.6 0 0 0-1.121-.528 5.2 5.2 0 0 0-1.487-.197q-.79 0-1.421.197-.63.198-1.069.535a2.4 2.4 0 0 0-.674.784q-.234.447-.234.937 0 .505.227.894.234.388.644.681.41.3.982.513.579.204 1.274.344.55.102.908.205.36.102.579.22a.8.8 0 0 1 .293.263.6.6 0 0 1 .088.323m6.431-8.284v-.791h-1.509v3.867h1.296zm3.01 0v-.791h-1.502v3.867h1.297zm3.611 9.412 6.591-2.688v-1.663l-6.591-2.681v1.971l4.204 1.384.439.146-.447.147-4.196 1.406zm-272.827 74.992v-1.985l-4.014-1.34-.498-.176.498-.183 4.014-1.362v-1.978l-6.482 2.688v1.648zm4.892 1.971 3.992-11.58h-1.897l-3.992 11.58zm8.987-11.58h-2.556V353h1.889v-3.157l-.087-4.79 1.252 4.431h1.018l1.399-4.629-.088 4.988V353h1.89v-10.664h-2.556l-1.15 4.006zm7.808 13.865q.615 0 1.062-.205.453-.206.769-.506.315-.3.52-.652.212-.351.344-.651l4.021-9.112h-2.249l-1.809 4.658-.3.791-.22-.805-1.816-4.644h-2.227l3.355 7.588-.469.872q-.088.16-.154.249a7 7 0 0 1-.19.263 1.7 1.7 0 0 1-.323.323.64.64 0 0 1-.424.153q-.117 0-.315-.014a8 8 0 0 0-.315-.008l-.249 1.553q.263.074.476.11.219.036.513.037m15.087-6.541h-2.058a2.8 2.8 0 0 1-.161.828 1.5 1.5 0 0 1-.359.564 1.4 1.4 0 0 1-.549.322 2.4 2.4 0 0 1-.725.103q-.3 0-.549-.066a1.493 1.493 0 0 1-.769-.55 2.2 2.2 0 0 1-.242-.454 4 4 0 0 1-.22-.871 9 9 0 0 1-.066-1.143v-1.45q0-.469.044-.872a4.6 4.6 0 0 1 .139-.747q.124-.432.33-.754.212-.33.513-.506.176-.102.38-.153.213-.052.455-.052.453 0 .776.125.33.117.549.351.213.243.322.601.118.359.147.835h2.051a5 5 0 0 0-.352-1.501 3.3 3.3 0 0 0-.762-1.128 3.3 3.3 0 0 0-1.171-.711q-.683-.249-1.56-.249-.594 0-1.114.154a3.5 3.5 0 0 0-.945.425 4 4 0 0 0-.864.805 4 4 0 0 0-.615 1.084 5.2 5.2 0 0 0-.308 1.084 7 7 0 0 0-.102 1.224v1.435q0 .689.11 1.304.117.615.329 1.128.22.513.535.937.323.425.732.725.447.322 1.004.498.563.17 1.223.169.835 0 1.523-.242.689-.249 1.187-.703t.791-1.099q.3-.644.351-1.45m1.399-.696v.154q0 .872.249 1.611.25.733.733 1.275.476.541 1.172.85.703.3 1.596.3.887 0 1.582-.3a3.3 3.3 0 0 0 1.172-.85q.477-.542.725-1.275a5 5 0 0 0 .249-1.611v-.154q0-.864-.249-1.596a3.7 3.7 0 0 0-.725-1.282 3.4 3.4 0 0 0-1.179-.85q-.696-.307-1.589-.307-.894 0-1.59.307a3.3 3.3 0 0 0-1.164.85 3.7 3.7 0 0 0-.733 1.282 5 5 0 0 0-.249 1.596m2.036.154v-.154q0-.483.096-.915a2.4 2.4 0 0 1 .3-.762q.205-.33.527-.52t.777-.19q.461 0 .783.19t.528.52q.197.33.293.762t.095.915v.154q0 .498-.095.938a2.4 2.4 0 0 1-.293.754q-.206.33-.528.52a1.5 1.5 0 0 1-.769.191q-.46 0-.791-.191-.322-.19-.527-.52a2.3 2.3 0 0 1-.3-.754 4.4 4.4 0 0 1-.096-.938m8.519-4.043h-1.751V353h1.853v-5.933q.036-.095.081-.175a.593.593 0 0 1 .285-.264.6.6 0 0 1 .235-.044.6.6 0 0 1 .219.037q.103.029.183.109.073.081.118.228.044.146.044.373V353h1.794v-6.05a.6.6 0 0 1 .088-.139.7.7 0 0 1 .117-.117.8.8 0 0 1 .169-.081.7.7 0 0 1 .212-.029.6.6 0 0 1 .212.037.4.4 0 0 1 .191.109.6.6 0 0 1 .124.235q.052.146.052.373V353h1.853v-5.654q0-.66-.132-1.114a2.1 2.1 0 0 0-.352-.754 1.4 1.4 0 0 0-.549-.417 1.7 1.7 0 0 0-.667-.132q-.285 0-.527.073a1.54 1.54 0 0 0-.718.454 2 2 0 0 0-.227.315 1.4 1.4 0 0 0-.161-.322 1.031 1.031 0 0 0-.593-.454 1.7 1.7 0 0 0-.498-.066q-.572 0-.974.3a1.96 1.96 0 0 0-.623.806zm7.771 10.972h2.036v-3.735q.138.153.293.278t.322.227q.285.16.615.242.337.087.733.087a2.8 2.8 0 0 0 1.325-.307q.58-.307.974-.85.388-.534.586-1.274a6 6 0 0 0 .205-1.604v-.154q0-.9-.205-1.641a3.7 3.7 0 0 0-.593-1.281 2.7 2.7 0 0 0-.974-.813q-.579-.293-1.333-.293-.366 0-.689.08-.315.074-.578.213a2.3 2.3 0 0 0-.41.278 2.4 2.4 0 0 0-.352.352l-.073-.777h-1.882zm5.053-7.09v.154q0 .49-.088.93a2.5 2.5 0 0 1-.278.762 1.46 1.46 0 0 1-.498.52q-.3.19-.732.19-.272 0-.491-.051a1.5 1.5 0 0 1-.388-.161 1.43 1.43 0 0 1-.542-.608v-3.311q.102-.204.241-.359.147-.154.337-.256a1.5 1.5 0 0 1 .374-.132q.205-.051.454-.051.432 0 .732.183.308.183.506.498.19.322.278.762.095.432.095.93m3.648.007v.154q0 .872.249 1.611.249.733.732 1.275.477.541 1.172.85.703.3 1.597.3.886 0 1.582-.3a3.35 3.35 0 0 0 1.172-.85q.476-.542.725-1.275a5 5 0 0 0 .249-1.611v-.154q0-.864-.249-1.596a3.7 3.7 0 0 0-.725-1.282 3.4 3.4 0 0 0-1.18-.85q-.695-.307-1.589-.307-.893 0-1.589.307a3.35 3.35 0 0 0-1.165.85 3.7 3.7 0 0 0-.732 1.282 5 5 0 0 0-.249 1.596m2.036.154v-.154q0-.483.095-.915.096-.432.3-.762.206-.33.528-.52t.776-.19q.462 0 .784.19t.527.52q.198.33.293.762t.095.915v.154q0 .498-.095.938a2.4 2.4 0 0 1-.293.754q-.205.33-.527.52a1.5 1.5 0 0 1-.769.191q-.462 0-.791-.191a1.54 1.54 0 0 1-.528-.52 2.4 2.4 0 0 1-.3-.754 4.5 4.5 0 0 1-.095-.938m7.251 3.882h2.043v-5.632q.103-.161.227-.293t.279-.227a1.4 1.4 0 0 1 .432-.198q.249-.066.542-.066.351 0 .63.073.278.066.476.242.198.175.3.483.11.301.11.769V353h2.036v-4.878q0-.864-.205-1.465-.198-.608-.557-.996a2.2 2.2 0 0 0-.864-.557 3.3 3.3 0 0 0-1.099-.175q-.469 0-.886.132a2.75 2.75 0 0 0-1.157.71 3 3 0 0 0-.337.403l-.124-1.099h-1.846zm12.854.146q1.149 0 1.992-.446.843-.447 1.23-.996l-1.018-1.099q-.351.454-.915.681a3.1 3.1 0 0 1-1.165.227 2.3 2.3 0 0 1-.783-.132 2.03 2.03 0 0 1-1.07-.893 2.9 2.9 0 0 1-.263-.769v-.022h5.376v-.864q0-.872-.242-1.59a3.5 3.5 0 0 0-.703-1.238 3.2 3.2 0 0 0-1.143-.791q-.666-.285-1.523-.285-.828 0-1.531.3t-1.216.842a3.8 3.8 0 0 0-.798 1.297 4.6 4.6 0 0 0-.286 1.655v.293q0 .798.286 1.501.293.696.827 1.209a3.9 3.9 0 0 0 1.282.82q.747.3 1.663.3m-.242-6.569q.389 0 .681.124.3.117.506.322a1.58 1.58 0 0 1 .439 1.106v.162h-3.34q.073-.389.22-.704t.366-.542q.213-.227.498-.344.286-.124.63-.124m5.405 6.423h2.044v-5.632q.102-.161.227-.293t.278-.227a1.4 1.4 0 0 1 .432-.198q.25-.066.542-.066.353 0 .63.073.278.066.476.242.198.175.301.483.11.301.109.769V353h2.037v-4.878q0-.864-.205-1.465a2.7 2.7 0 0 0-.557-.996 2.2 2.2 0 0 0-.864-.557 3.3 3.3 0 0 0-1.099-.175q-.47 0-.886.132a2.7 2.7 0 0 0-.769.38 3.1 3.1 0 0 0-.725.733l-.125-1.099h-1.846zm12.745-9.866h-2.037v1.941h-1.809v1.502h1.809v3.603q0 .784.205 1.348.206.557.586.915.374.367.901.542.535.17 1.187.169.336 0 .681-.037a7 7 0 0 0 .674-.088q.322-.059.608-.146.285-.096.498-.22l-.198-1.399a4 4 0 0 1-.337.073 6 6 0 0 1-.41.066 6.5 6.5 0 0 1-.952.081q-.322 0-.586-.073a1.04 1.04 0 0 1-.44-.249 1.1 1.1 0 0 1-.285-.454 2.4 2.4 0 0 1-.095-.726v-3.405h2.959v-1.502h-2.959zm5.419 8.819 6.592-2.688v-1.663l-6.592-2.681v1.971l4.205 1.384.439.146-.447.147-4.197 1.406z"/><path fill="#fff" d="m188.902 305.637.249-1.158q-.366.015-.6-.19a1.35 1.35 0 0 1-.359-.527 3 3 0 0 1-.183-.74 7 7 0 0 1-.044-.798v-1.194q0-.872-.425-1.538-.425-.667-1.333-1.018.901-.353 1.326-1.026.432-.673.432-1.545v-1.194q0-.396.014-.798.022-.41.132-.74t.352-.527q.242-.206.688-.191l-.249-1.15q-.71 0-1.223.271a2.4 2.4 0 0 0-.827.696q-.381.49-.557 1.157a5 5 0 0 0-.176 1.282v1.194q0 .988-.454 1.413t-1.384.425v1.465q.93 0 1.384.425.454.424.454 1.399v1.194q0 .578.154 1.179.16.607.513 1.113.329.483.857.798.534.323 1.259.323m9.009 0 .249-1.158q-.366.015-.6-.19a1.35 1.35 0 0 1-.359-.527 3 3 0 0 1-.183-.74 7 7 0 0 1-.044-.798v-1.194q0-.872-.425-1.538-.425-.667-1.333-1.018.9-.353 1.326-1.026.432-.673.432-1.545v-1.194q0-.396.014-.798.022-.41.132-.74t.352-.527q.241-.206.688-.191l-.249-1.15q-.71 0-1.223.271a2.4 2.4 0 0 0-.828.696 3.2 3.2 0 0 0-.556 1.157 5 5 0 0 0-.176 1.282v1.194q0 .988-.454 1.413t-1.384.425v1.465q.93 0 1.384.425.454.424.454 1.399v1.194q0 .578.154 1.179.16.607.512 1.113.33.483.857.798.535.323 1.26.323m17.278-4.812a.63.63 0 0 1-.095.337.8.8 0 0 1-.271.271 1.7 1.7 0 0 1-.491.19 3.2 3.2 0 0 1-.688.066q-.33 0-.645-.066a1.8 1.8 0 0 1-.549-.212 1.2 1.2 0 0 1-.396-.367 1.14 1.14 0 0 1-.176-.556h-1.94q0 .483.234.967.241.476.703.849.461.381 1.143.615.688.235 1.582.235.812 0 1.472-.176.659-.183 1.128-.505a2.34 2.34 0 0 0 .71-.762q.257-.447.257-.974 0-.571-.257-.982a2.2 2.2 0 0 0-.696-.71 4.1 4.1 0 0 0-1.062-.469q-.615-.183-1.333-.3a6 6 0 0 1-.82-.169 2 2 0 0 1-.505-.227.7.7 0 0 1-.264-.263.76.76 0 0 1 .007-.659.85.85 0 0 1 .249-.279q.177-.132.454-.205.279-.073.652-.073.44 0 .747.11.315.11.498.293a.992.992 0 0 1 .264.681h2.036q0-.55-.241-1.018a2.4 2.4 0 0 0-.696-.813 3.6 3.6 0 0 0-1.121-.528 5.2 5.2 0 0 0-1.487-.197q-.79 0-1.421.197-.63.198-1.069.535a2.4 2.4 0 0 0-.674.784q-.234.447-.234.937 0 .505.227.894.234.388.644.681.41.3.982.513.578.204 1.274.344.55.102.908.205.36.102.579.22a.8.8 0 0 1 .293.263.6.6 0 0 1 .088.323m4.321-9.075v1.663h2.373v7.932h-2.373V303h6.702v-1.655h-2.271v-9.595zm8.306 7.214v.154q0 .872.249 1.611.249.733.732 1.275.477.541 1.172.85.703.3 1.597.3.886 0 1.582-.3a3.35 3.35 0 0 0 1.172-.85q.476-.542.725-1.275a5 5 0 0 0 .249-1.611v-.154q0-.864-.249-1.596a3.7 3.7 0 0 0-.725-1.282 3.4 3.4 0 0 0-1.179-.85q-.696-.307-1.59-.307-.893 0-1.589.307a3.35 3.35 0 0 0-1.165.85 3.7 3.7 0 0 0-.732 1.282 5 5 0 0 0-.249 1.596m2.036.154v-.154q0-.483.095-.915.096-.432.301-.762.204-.33.527-.52a1.5 1.5 0 0 1 .776-.19q.462 0 .784.19.323.19.527.52.198.33.293.762t.095.915v.154q0 .498-.095.938a2.4 2.4 0 0 1-.293.754q-.204.33-.527.52a1.5 1.5 0 0 1-.769.191q-.462 0-.791-.191a1.5 1.5 0 0 1-.527-.52 2.3 2.3 0 0 1-.301-.754 4.5 4.5 0 0 1-.095-.938m10.986-5.984h-2.036v1.941h-1.809v1.502h1.809v3.603q0 .784.205 1.348a2.35 2.35 0 0 0 1.487 1.457q.535.17 1.187.169.336 0 .681-.037a7 7 0 0 0 .674-.088q.321-.059.608-.146.285-.096.498-.22l-.198-1.399a4 4 0 0 1-.337.073 6 6 0 0 1-.41.066 6.6 6.6 0 0 1-.952.081q-.323 0-.586-.073a1.04 1.04 0 0 1-.44-.249 1.1 1.1 0 0 1-.285-.454 2.4 2.4 0 0 1-.096-.726v-3.405h2.959v-1.502h-2.959zm7.391 5.955h1.589q.871 0 1.575-.249a3.6 3.6 0 0 0 1.201-.696q.49-.44.754-1.047.271-.608.271-1.326 0-.77-.271-1.399a3.1 3.1 0 0 0-.754-1.084 3.6 3.6 0 0 0-1.201-.696 4.6 4.6 0 0 0-1.575-.256h-3.648V303h2.059zm0-1.67v-3.413h1.589q.44 0 .762.139.321.14.542.381.212.242.315.564.11.322.109.696 0 .321-.109.622a1.5 1.5 0 0 1-.315.52 1.6 1.6 0 0 1-.542.359 2 2 0 0 1-.762.132zm12.583-2.49q-.799 0-1.473.388a3.6 3.6 0 0 0-1.157 1.055l-.015-.176-.08-1.121h-1.897V303h2.036v-4.761q.14-.337.352-.586a1.8 1.8 0 0 1 .512-.41q.249-.14.564-.205.322-.073.718-.073.381 0 .798.051.425.044.828.139l.3-2.029a5 5 0 0 0-.637-.131 5 5 0 0 0-.849-.066m3.039 4.035v.154q0 .872.249 1.611.249.733.733 1.275.476.541 1.171.85.703.3 1.597.3.886 0 1.582-.3a3.3 3.3 0 0 0 1.172-.85q.476-.542.725-1.275a5 5 0 0 0 .249-1.611v-.154q0-.864-.249-1.596a3.7 3.7 0 0 0-.725-1.282 3.4 3.4 0 0 0-1.179-.85q-.696-.307-1.59-.307-.893 0-1.589.307a3.3 3.3 0 0 0-1.164.85 3.6 3.6 0 0 0-.733 1.282 5 5 0 0 0-.249 1.596m2.036.154v-.154q0-.483.095-.915.096-.432.301-.762.204-.33.527-.52a1.5 1.5 0 0 1 .776-.19q.462 0 .784.19.323.19.527.52.198.33.293.762.096.432.096.915v.154q0 .498-.096.938a2.4 2.4 0 0 1-.293.754q-.204.33-.527.52a1.5 1.5 0 0 1-.769.191q-.462 0-.791-.191a1.5 1.5 0 0 1-.527-.52 2.3 2.3 0 0 1-.301-.754 4.5 4.5 0 0 1-.095-.938m7.28 6.929h2.037v-3.735q.138.153.293.278.153.125.322.227.285.16.615.242.337.087.733.087a2.8 2.8 0 0 0 1.325-.307q.58-.307.974-.85.388-.534.586-1.274a6 6 0 0 0 .205-1.604v-.154q0-.9-.205-1.641a3.7 3.7 0 0 0-.593-1.281 2.7 2.7 0 0 0-.974-.813q-.579-.293-1.333-.293-.366 0-.689.08-.315.073-.578.213a2.3 2.3 0 0 0-.41.278 2.4 2.4 0 0 0-.352.352l-.073-.777h-1.883zm5.054-7.09v.154q0 .49-.088.93a2.5 2.5 0 0 1-.278.762 1.46 1.46 0 0 1-.498.52q-.3.19-.732.19-.272 0-.491-.051a1.5 1.5 0 0 1-.388-.161 1.43 1.43 0 0 1-.542-.608v-3.311q.103-.204.241-.359.147-.154.337-.256a1.5 1.5 0 0 1 .374-.132q.204-.051.454-.051.432 0 .732.183.308.183.506.498.19.322.278.762.095.432.095.93m9.038 1.868a.63.63 0 0 1-.095.337.8.8 0 0 1-.271.271q-.19.117-.491.19a3 3 0 0 1-.688.066q-.33 0-.645-.066a1.8 1.8 0 0 1-.549-.212 1.2 1.2 0 0 1-.395-.367 1.1 1.1 0 0 1-.176-.556h-1.941q0 .483.234.967.242.476.703.849.462.381 1.143.615.688.235 1.582.235.813 0 1.472-.176.66-.183 1.128-.505a2.3 2.3 0 0 0 .71-.762q.257-.447.257-.974 0-.571-.257-.982a2.2 2.2 0 0 0-.695-.71 4.2 4.2 0 0 0-1.062-.469 11 11 0 0 0-1.333-.3 6 6 0 0 1-.821-.169 2 2 0 0 1-.505-.227.7.7 0 0 1-.264-.263.76.76 0 0 1-.073-.33q0-.176.081-.329a.8.8 0 0 1 .249-.279 1.3 1.3 0 0 1 .454-.205 2.6 2.6 0 0 1 .652-.073q.44 0 .747.11.315.11.498.293a.992.992 0 0 1 .263.681h2.037a2.2 2.2 0 0 0-.242-1.018 2.4 2.4 0 0 0-.696-.813 3.6 3.6 0 0 0-1.121-.528 5.2 5.2 0 0 0-1.486-.197q-.791 0-1.421.197-.63.198-1.07.535a2.4 2.4 0 0 0-.673.784q-.235.447-.235.937 0 .505.227.894.234.388.645.681.41.3.981.513a9.4 9.4 0 0 0 1.275.344q.55.102.908.205.359.102.578.22.213.125.293.263a.6.6 0 0 1 .088.323m5.955.996q0 .564.381.945.381.38 1.032.38.645 0 1.026-.373.388-.38.388-.952t-.381-.96q-.373-.387-1.033-.388-.666 0-1.04.396a1.32 1.32 0 0 0-.373.952m10.686-8.687h-2.036v1.941h-1.809v1.502h1.809v3.603q0 .784.205 1.348a2.35 2.35 0 0 0 1.487 1.457 3.9 3.9 0 0 0 1.186.169q.338 0 .681-.037a7 7 0 0 0 .674-.088q.323-.059.608-.146.286-.096.498-.22l-.198-1.399a4 4 0 0 1-.337.073 6 6 0 0 1-.41.066 6.5 6.5 0 0 1-.952.081q-.322 0-.586-.073a1.03 1.03 0 0 1-.439-.249 1.1 1.1 0 0 1-.286-.454 2.4 2.4 0 0 1-.095-.726v-3.405h2.959v-1.502H303.9zm9.119 10.012q1.149 0 1.992-.446.841-.447 1.23-.996l-1.018-1.099q-.351.454-.915.681a3.1 3.1 0 0 1-1.165.227 2.3 2.3 0 0 1-.784-.132 2.04 2.04 0 0 1-1.069-.893 3 3 0 0 1-.264-.769v-.022h5.376v-.864q0-.872-.241-1.59a3.5 3.5 0 0 0-.703-1.238 3.2 3.2 0 0 0-1.143-.791q-.666-.285-1.523-.285-.829 0-1.531.3-.703.3-1.216.842a3.8 3.8 0 0 0-.798 1.297 4.6 4.6 0 0 0-.286 1.655v.293q0 .798.286 1.501.293.696.827 1.209a3.9 3.9 0 0 0 1.282.82q.747.3 1.663.3m-.242-6.569q.388 0 .681.124.3.117.505.322a1.57 1.57 0 0 1 .44 1.106v.162h-3.34q.073-.389.22-.704.145-.314.366-.542.213-.227.498-.344.285-.124.63-.124m9.031.974-1.714-2.476h-2.19l2.651 3.889-2.754 4.036h2.205l1.809-2.593 1.824 2.593h2.197l-2.754-4.036 2.659-3.889h-2.19zm9.118-4.417h-2.036v1.941h-1.809v1.502h1.809v3.603q0 .784.205 1.348a2.35 2.35 0 0 0 1.487 1.457q.534.17 1.187.169.336 0 .681-.037a7 7 0 0 0 .674-.088q.322-.059.607-.146.286-.096.498-.22l-.197-1.399a4 4 0 0 1-.337.073 6 6 0 0 1-.41.066 6.6 6.6 0 0 1-.952.081q-.323 0-.586-.073a1.04 1.04 0 0 1-.44-.249 1.1 1.1 0 0 1-.286-.454 2.4 2.4 0 0 1-.095-.726v-3.405h2.959v-1.502h-2.959zm15.681 11.345.249 1.158q.726 0 1.253-.315.534-.308.864-.813.33-.484.498-1.099.168-.616.169-1.186v-1.194q0-.345.051-.615a1.8 1.8 0 0 1 .168-.484q.206-.381.608-.549.404-.176 1.011-.176v-1.465a2.8 2.8 0 0 1-.93-.139 1.2 1.2 0 0 1-.593-.439 1.5 1.5 0 0 1-.242-.535 3.2 3.2 0 0 1-.073-.725v-1.194q0-.556-.14-1.15a3.1 3.1 0 0 0-.454-1.084 2.55 2.55 0 0 0-.871-.85q-.535-.322-1.319-.322l-.249 1.15q.447-.015.689.191.242.197.351.527.11.33.125.74.022.402.022.798v1.194q0 .506.139.959.14.447.432.813.198.25.469.454t.623.352a3 3 0 0 0-.748.447 2.4 2.4 0 0 0-.512.586 2.6 2.6 0 0 0-.308.71 3.3 3.3 0 0 0-.095.806v1.194q0 .394-.051.798-.053.41-.183.74a1.3 1.3 0 0 1-.367.527q-.226.205-.586.19m9.009 0 .249 1.158q.726 0 1.253-.315.534-.308.864-.813.33-.484.498-1.099a4.5 4.5 0 0 0 .168-1.186v-1.194q0-.345.052-.615a1.8 1.8 0 0 1 .168-.484q.206-.381.608-.549.404-.176 1.011-.176v-1.465q-.543 0-.93-.139a1.22 1.22 0 0 1-.594-.439 1.5 1.5 0 0 1-.241-.535 3.2 3.2 0 0 1-.074-.725v-1.194q0-.556-.139-1.15a3.2 3.2 0 0 0-.454-1.084 2.55 2.55 0 0 0-.871-.85q-.535-.322-1.319-.322l-.249 1.15q.447-.015.689.191.242.197.351.527.11.33.125.74.022.402.022.798v1.194q0 .506.139.959.14.447.432.813.198.25.469.454t.622.352a3 3 0 0 0-.747.447 2.4 2.4 0 0 0-.512.586 2.6 2.6 0 0 0-.308.71 3.3 3.3 0 0 0-.095.806v1.194q0 .394-.052.798-.051.41-.183.74-.132.329-.366.527-.227.205-.586.19m-166.714 26.158.249-1.158q-.366.015-.6-.19a1.35 1.35 0 0 1-.359-.527 3 3 0 0 1-.183-.74 7 7 0 0 1-.044-.798v-1.194q0-.872-.425-1.538-.425-.667-1.333-1.018.901-.353 1.326-1.026.432-.673.432-1.545v-1.194q0-.396.014-.798.022-.41.132-.74t.352-.527q.242-.206.688-.191l-.249-1.15q-.71 0-1.223.271a2.4 2.4 0 0 0-.827.696q-.381.49-.557 1.157a5 5 0 0 0-.176 1.282v1.194q0 .988-.454 1.413t-1.384.425v1.465q.93 0 1.384.425.454.424.454 1.399v1.194q0 .578.154 1.179.16.607.513 1.113.329.483.857.798.534.323 1.259.323m9.009 0 .249-1.158q-.366.015-.6-.19a1.35 1.35 0 0 1-.359-.527 3 3 0 0 1-.183-.74 7 7 0 0 1-.044-.798v-1.194q0-.872-.425-1.538-.425-.667-1.333-1.018.9-.353 1.326-1.026.432-.673.432-1.545v-1.194q0-.396.014-.798.022-.41.132-.74t.352-.527q.241-.206.688-.191l-.249-1.15q-.71 0-1.223.271a2.4 2.4 0 0 0-.828.696 3.2 3.2 0 0 0-.556 1.157 5 5 0 0 0-.176 1.282v1.194q0 .988-.454 1.413t-1.384.425v1.465q.93 0 1.384.425.454.424.454 1.399v1.194q0 .578.154 1.179.16.607.512 1.113.33.483.857.798.535.323 1.26.323m17.278-4.812a.63.63 0 0 1-.095.337.8.8 0 0 1-.271.271 1.7 1.7 0 0 1-.491.19 3.2 3.2 0 0 1-.688.066q-.33 0-.645-.066a1.8 1.8 0 0 1-.549-.212 1.2 1.2 0 0 1-.396-.367 1.14 1.14 0 0 1-.176-.556h-1.94q0 .483.234.967.241.476.703.849.461.381 1.143.615.688.235 1.582.235.812 0 1.472-.176.659-.183 1.128-.505a2.34 2.34 0 0 0 .71-.762q.257-.447.257-.974 0-.571-.257-.982a2.2 2.2 0 0 0-.696-.71 4.1 4.1 0 0 0-1.062-.469q-.615-.183-1.333-.3a6 6 0 0 1-.82-.169 2 2 0 0 1-.505-.227.7.7 0 0 1-.264-.263.76.76 0 0 1 .007-.659.85.85 0 0 1 .249-.279q.177-.132.454-.205.279-.073.652-.073.44 0 .747.11.315.11.498.293a.992.992 0 0 1 .264.681h2.036q0-.55-.241-1.018a2.4 2.4 0 0 0-.696-.813 3.6 3.6 0 0 0-1.121-.528 5.2 5.2 0 0 0-1.487-.197q-.79 0-1.421.197-.63.198-1.069.535a2.4 2.4 0 0 0-.674.784q-.234.447-.234.937 0 .505.227.894.234.388.644.681.41.3.982.513.578.204 1.274.344.55.102.908.205.36.102.579.22a.8.8 0 0 1 .293.263.6.6 0 0 1 .088.323m4.321-9.075v1.663h2.373v7.932h-2.373V328h6.702v-1.655h-2.271v-9.595zm8.306 7.214v.154q0 .872.249 1.611.249.733.732 1.275.477.541 1.172.85.703.3 1.597.3.886 0 1.582-.3a3.35 3.35 0 0 0 1.172-.85q.476-.542.725-1.275a5 5 0 0 0 .249-1.611v-.154q0-.864-.249-1.596a3.7 3.7 0 0 0-.725-1.282 3.4 3.4 0 0 0-1.179-.85q-.696-.307-1.59-.307-.893 0-1.589.307a3.35 3.35 0 0 0-1.165.85 3.7 3.7 0 0 0-.732 1.282 5 5 0 0 0-.249 1.596m2.036.154v-.154q0-.483.095-.915.096-.432.301-.762.204-.33.527-.52a1.5 1.5 0 0 1 .776-.19q.462 0 .784.19.323.19.527.52.198.33.293.762t.095.915v.154q0 .498-.095.938a2.4 2.4 0 0 1-.293.754q-.204.33-.527.52a1.5 1.5 0 0 1-.769.191q-.462 0-.791-.191a1.5 1.5 0 0 1-.527-.52 2.3 2.3 0 0 1-.301-.754 4.5 4.5 0 0 1-.095-.938m10.986-5.984h-2.036v1.941h-1.809v1.502h1.809v3.603q0 .784.205 1.348a2.35 2.35 0 0 0 1.487 1.457q.535.17 1.187.169.336 0 .681-.037a7 7 0 0 0 .674-.088q.321-.059.608-.146.285-.096.498-.22l-.198-1.399a4 4 0 0 1-.337.073 6 6 0 0 1-.41.066 6.6 6.6 0 0 1-.952.081q-.323 0-.586-.073a1.04 1.04 0 0 1-.44-.249 1.1 1.1 0 0 1-.285-.454 2.4 2.4 0 0 1-.096-.726v-3.405h2.959v-1.502h-2.959zm7.391 5.955h1.589q.871 0 1.575-.249a3.6 3.6 0 0 0 1.201-.696q.49-.44.754-1.047.271-.608.271-1.326 0-.77-.271-1.399a3.1 3.1 0 0 0-.754-1.084 3.6 3.6 0 0 0-1.201-.696 4.6 4.6 0 0 0-1.575-.256h-3.648V328h2.059zm0-1.67v-3.413h1.589q.44 0 .762.139.321.14.542.381.212.242.315.564.11.322.109.696 0 .321-.109.622a1.5 1.5 0 0 1-.315.52 1.6 1.6 0 0 1-.542.359 2 2 0 0 1-.762.132zm12.583-2.49q-.799 0-1.473.388a3.6 3.6 0 0 0-1.157 1.055l-.015-.176-.08-1.121h-1.897V328h2.036v-4.761q.14-.337.352-.586a1.8 1.8 0 0 1 .512-.41q.249-.14.564-.205.322-.073.718-.073.381 0 .798.051.425.044.828.139l.3-2.029a5 5 0 0 0-.637-.131 5 5 0 0 0-.849-.066m3.039 4.035v.154q0 .872.249 1.611.249.733.733 1.275.476.541 1.171.85.703.3 1.597.3.886 0 1.582-.3a3.3 3.3 0 0 0 1.172-.85q.476-.542.725-1.275a5 5 0 0 0 .249-1.611v-.154q0-.864-.249-1.596a3.7 3.7 0 0 0-.725-1.282 3.4 3.4 0 0 0-1.179-.85q-.696-.307-1.59-.307-.893 0-1.589.307a3.3 3.3 0 0 0-1.164.85 3.6 3.6 0 0 0-.733 1.282 5 5 0 0 0-.249 1.596m2.036.154v-.154q0-.483.095-.915.096-.432.301-.762.204-.33.527-.52a1.5 1.5 0 0 1 .776-.19q.462 0 .784.19.323.19.527.52.198.33.293.762.096.432.096.915v.154q0 .498-.096.938a2.4 2.4 0 0 1-.293.754q-.204.33-.527.52a1.5 1.5 0 0 1-.769.191q-.462 0-.791-.191a1.5 1.5 0 0 1-.527-.52 2.3 2.3 0 0 1-.301-.754 4.5 4.5 0 0 1-.095-.938m7.28 6.929h2.037v-3.735q.138.153.293.278.153.125.322.227.285.16.615.242.337.087.733.087a2.8 2.8 0 0 0 1.325-.307q.58-.307.974-.85.388-.534.586-1.274a6 6 0 0 0 .205-1.604v-.154q0-.9-.205-1.641a3.7 3.7 0 0 0-.593-1.281 2.7 2.7 0 0 0-.974-.813q-.579-.293-1.333-.293-.366 0-.689.08-.315.073-.578.213a2.3 2.3 0 0 0-.41.278 2.4 2.4 0 0 0-.352.352l-.073-.777h-1.883zm5.054-7.09v.154q0 .49-.088.93a2.5 2.5 0 0 1-.278.762 1.46 1.46 0 0 1-.498.52q-.3.19-.732.19-.272 0-.491-.051a1.5 1.5 0 0 1-.388-.161 1.43 1.43 0 0 1-.542-.608v-3.311q.103-.204.241-.359.147-.154.337-.256a1.5 1.5 0 0 1 .374-.132q.204-.051.454-.051.432 0 .732.183.308.183.506.498.19.322.278.762.095.432.095.93m9.038 1.868a.63.63 0 0 1-.095.337.8.8 0 0 1-.271.271q-.19.117-.491.19a3 3 0 0 1-.688.066q-.33 0-.645-.066a1.8 1.8 0 0 1-.549-.212 1.2 1.2 0 0 1-.395-.367 1.1 1.1 0 0 1-.176-.556h-1.941q0 .483.234.967.242.476.703.849.462.381 1.143.615.688.235 1.582.235.813 0 1.472-.176.66-.183 1.128-.505a2.3 2.3 0 0 0 .71-.762q.257-.447.257-.974 0-.571-.257-.982a2.2 2.2 0 0 0-.695-.71 4.2 4.2 0 0 0-1.062-.469 11 11 0 0 0-1.333-.3 6 6 0 0 1-.821-.169 2 2 0 0 1-.505-.227.7.7 0 0 1-.264-.263.76.76 0 0 1-.073-.33q0-.176.081-.329a.8.8 0 0 1 .249-.279 1.3 1.3 0 0 1 .454-.205 2.6 2.6 0 0 1 .652-.073q.44 0 .747.11.315.11.498.293a.992.992 0 0 1 .263.681h2.037a2.2 2.2 0 0 0-.242-1.018 2.4 2.4 0 0 0-.696-.813 3.6 3.6 0 0 0-1.121-.528 5.2 5.2 0 0 0-1.486-.197q-.791 0-1.421.197-.63.198-1.07.535a2.4 2.4 0 0 0-.673.784q-.235.447-.235.937 0 .505.227.894.234.388.645.681.41.3.981.513a9.4 9.4 0 0 0 1.275.344q.55.102.908.205.359.102.578.22.213.125.293.263a.6.6 0 0 1 .088.323m5.955.996q0 .564.381.945.381.38 1.032.38.645 0 1.026-.373.388-.38.388-.952t-.381-.96q-.373-.387-1.033-.388-.666 0-1.04.396a1.32 1.32 0 0 0-.373.952m10.459-.3q-.49 0-.813-.198a1.44 1.44 0 0 1-.498-.528 2.2 2.2 0 0 1-.264-.747 5.3 5.3 0 0 1-.073-.893v-.22q0-.454.073-.879.08-.425.271-.754.183-.33.498-.528.315-.197.799-.197.329 0 .607.117.279.11.477.3t.3.454.088.557h1.919a3 3 0 0 0-.235-1.267 2.8 2.8 0 0 0-.696-.974 3.3 3.3 0 0 0-1.076-.616 4 4 0 0 0-1.355-.219q-.916 0-1.612.315-.687.314-1.157.857a3.6 3.6 0 0 0-.703 1.274 5 5 0 0 0-.234 1.56v.22q0 .834.234 1.567.242.726.711 1.267.46.543 1.157.857.696.308 1.618.308.682 0 1.29-.213.615-.219 1.076-.6t.725-.908q.271-.528.257-1.143h-1.919a1 1 0 0 1-.103.505 1.1 1.1 0 0 1-.315.389 1.5 1.5 0 0 1-.476.249 1.9 1.9 0 0 1-.571.088m5.222-2.557v.154q0 .872.249 1.611.249.733.732 1.275.476.541 1.172.85.703.3 1.597.3.886 0 1.582-.3a3.3 3.3 0 0 0 1.172-.85q.476-.542.725-1.275a5 5 0 0 0 .249-1.611v-.154q0-.864-.249-1.596a3.7 3.7 0 0 0-.725-1.282 3.4 3.4 0 0 0-1.179-.85q-.696-.307-1.59-.307-.893 0-1.589.307a3.35 3.35 0 0 0-1.165.85 3.7 3.7 0 0 0-.732 1.282 5 5 0 0 0-.249 1.596m2.036.154v-.154q0-.483.095-.915.096-.432.301-.762.204-.33.527-.52a1.5 1.5 0 0 1 .776-.19q.462 0 .784.19.323.19.527.52.198.33.293.762.096.432.096.915v.154q0 .498-.096.938a2.4 2.4 0 0 1-.293.754q-.204.33-.527.52a1.5 1.5 0 0 1-.769.191q-.462 0-.791-.191a1.5 1.5 0 0 1-.527-.52 2.3 2.3 0 0 1-.301-.754 4.5 4.5 0 0 1-.095-.938M323.353 328h1.846v-7.925h-2.044v5.559a1.7 1.7 0 0 1-.227.345q-.132.153-.3.263a1.6 1.6 0 0 1-.461.191 2.3 2.3 0 0 1-.579.066q-.359 0-.608-.088a.85.85 0 0 1-.403-.293 1.3 1.3 0 0 1-.227-.528 4.2 4.2 0 0 1-.066-.813v-4.702h-2.036v4.688q0 .9.198 1.545.205.638.571 1.047.366.418.879.608t1.128.191q.674 0 1.238-.337.571-.337.974-.93zm3.838 0h2.043v-5.632q.103-.161.227-.293t.279-.227a1.4 1.4 0 0 1 .432-.198q.25-.066.542-.066.351 0 .63.073.278.066.476.242t.3.483q.11.301.11.769V328h2.036v-4.878q0-.864-.205-1.465-.197-.607-.557-.996a2.2 2.2 0 0 0-.864-.557 3.3 3.3 0 0 0-1.098-.175q-.469 0-.887.132a2.75 2.75 0 0 0-1.157.71 3 3 0 0 0-.337.403l-.124-1.099h-1.846zm12.744-9.866h-2.036v1.941h-1.809v1.502h1.809v3.603q0 .784.205 1.348a2.35 2.35 0 0 0 1.487 1.457 3.9 3.9 0 0 0 1.186.169q.338 0 .681-.037a7 7 0 0 0 .674-.088q.323-.059.608-.146.286-.096.498-.22l-.197-1.399a4 4 0 0 1-.337.073 6 6 0 0 1-.411.066 6.5 6.5 0 0 1-.952.081q-.322 0-.586-.073a1.03 1.03 0 0 1-.439-.249 1.1 1.1 0 0 1-.286-.454 2.4 2.4 0 0 1-.095-.726v-3.405h2.959v-1.502h-2.959zm15.681 11.345.249 1.158q.726 0 1.253-.315.534-.308.864-.813.33-.484.498-1.099a4.5 4.5 0 0 0 .168-1.186v-1.194q0-.345.052-.615a1.8 1.8 0 0 1 .168-.484q.206-.381.608-.549.404-.176 1.011-.176v-1.465q-.543 0-.93-.139a1.22 1.22 0 0 1-.594-.439 1.5 1.5 0 0 1-.241-.535 3.2 3.2 0 0 1-.074-.725v-1.194q0-.556-.139-1.15a3.2 3.2 0 0 0-.454-1.084 2.55 2.55 0 0 0-.871-.85q-.535-.322-1.319-.322l-.249 1.15q.447-.015.689.191.242.197.351.527.11.33.125.74.022.402.022.798v1.194q0 .506.139.959.14.447.432.813.198.25.469.454t.622.352a3 3 0 0 0-.747.447 2.4 2.4 0 0 0-.512.586 2.6 2.6 0 0 0-.308.71 3.3 3.3 0 0 0-.095.806v1.194q0 .394-.052.798-.051.41-.183.74-.132.329-.366.527-.227.205-.586.19m9.009 0 .249 1.158q.725 0 1.252-.315.535-.308.865-.813.328-.484.498-1.099a4.5 4.5 0 0 0 .168-1.186v-1.194q0-.345.051-.615.06-.279.169-.484a1.2 1.2 0 0 1 .608-.549q.402-.176 1.011-.176v-1.465q-.543 0-.931-.139a1.22 1.22 0 0 1-.593-.439 1.6 1.6 0 0 1-.242-.535 3.3 3.3 0 0 1-.073-.725v-1.194q0-.556-.139-1.15a3.2 3.2 0 0 0-.454-1.084 2.55 2.55 0 0 0-.872-.85q-.534-.322-1.318-.322l-.249 1.15q.447-.015.688.191.243.197.352.527.11.33.125.74.022.402.022.798v1.194q0 .506.139.959.139.447.432.813.198.25.469.454t.622.352a3 3 0 0 0-.747.447 2.4 2.4 0 0 0-.513.586 2.6 2.6 0 0 0-.307.71 3.3 3.3 0 0 0-.095.806v1.194q0 .394-.052.798-.051.41-.183.74-.132.329-.366.527-.227.205-.586.19"/><path fill="#42b883" d="M175.625 59.945V57.96l-4.014-1.34-.498-.176.498-.183 4.014-1.362V52.92l-6.482 2.688v1.648zm2.204-2.966v.154q0 .864.213 1.604.211.732.615 1.267.395.534.967.842.578.3 1.303.3.667 0 1.172-.256.505-.255.879-.718l.103.828h1.838V49.75h-2.044v4.036a2.55 2.55 0 0 0-.842-.63 2.5 2.5 0 0 0-1.091-.227q-.74 0-1.318.293a2.8 2.8 0 0 0-.975.827 3.9 3.9 0 0 0-.615 1.282 6.2 6.2 0 0 0-.205 1.648m2.036.154v-.154q0-.498.088-.93.088-.44.278-.77.19-.321.491-.505a1.4 1.4 0 0 1 .74-.19q.52 0 .864.227.345.22.549.623v3.208a1.6 1.6 0 0 1-.556.622q-.344.227-.872.227a1.4 1.4 0 0 1-.732-.183q-.3-.183-.491-.505a2.3 2.3 0 0 1-.278-.74 5 5 0 0 1-.081-.93m7.727-4.058v1.663h2.256v4.607h-2.256V61h6.46v-1.655h-2.146v-6.27zm2.11-2.029q0 .235.08.44a1.08 1.08 0 0 0 .608.564 1.4 1.4 0 0 0 .484.08q.542 0 .856-.3.323-.307.323-.784 0-.476-.323-.776-.314-.308-.856-.308a1.4 1.4 0 0 0-.484.081 1.1 1.1 0 0 0-.366.22 1.05 1.05 0 0 0-.242.351q-.08.198-.08.432M198.579 61h1.911l3.01-7.925h-2.124l-1.735 5.589-.11.556-.11-.556-1.743-5.589h-2.124zm6.635-1.047 6.592-2.688v-1.663l-6.592-2.68v1.97l4.204 1.384.44.146-.447.147-4.197 1.406zm-29.589 129.992v-1.985l-4.014-1.34-.498-.176.498-.183 4.014-1.362v-1.978l-6.482 2.688v1.648zm4.892 1.971 3.992-11.58h-1.897l-3.992 11.58zm6.321-4.937v.154q0 .864.212 1.604.213.732.616 1.267.395.534.966.842.58.3 1.304.3.666 0 1.172-.256t.879-.718l.102.828h1.839v-11.25h-2.044v4.036a2.55 2.55 0 0 0-.842-.63 2.5 2.5 0 0 0-1.091-.227q-.74 0-1.319.293a2.8 2.8 0 0 0-.974.827 3.9 3.9 0 0 0-.615 1.282 6.2 6.2 0 0 0-.205 1.648m2.036.154v-.154q0-.498.088-.93.088-.44.278-.769.19-.323.491-.506.308-.19.74-.19.519 0 .864.227.344.22.549.623v3.208a1.6 1.6 0 0 1-.556.622q-.344.228-.872.227a1.4 1.4 0 0 1-.732-.183 1.4 1.4 0 0 1-.491-.505 2.3 2.3 0 0 1-.278-.74 5 5 0 0 1-.081-.93m7.727-4.058v1.663h2.256v4.607h-2.256V191h6.46v-1.655h-2.146v-6.27zm2.109-2.029q0 .235.081.44a1.083 1.083 0 0 0 .608.564q.22.08.483.08.542 0 .857-.3.323-.307.323-.784 0-.476-.323-.776-.315-.308-.857-.308-.263 0-.483.081a1.1 1.1 0 0 0-.366.22 1.05 1.05 0 0 0-.242.351 1.1 1.1 0 0 0-.081.432m8.877 9.954h1.912l3.01-7.925h-2.124l-1.736 5.589-.109.556-.11-.556-1.743-5.589h-2.125zm6.636-1.047 6.592-2.688v-1.663l-6.592-2.681v1.971l4.204 1.384.44.146-.447.147-4.197 1.406z"/><path fill="#fff" d="M193.642 85.945V83.96l-4.014-1.34-.498-.176.498-.183 4.014-1.362V78.92l-6.482 2.688v1.648zm7.529-1.12a.62.62 0 0 1-.095.337.8.8 0 0 1-.271.27q-.19.118-.491.191a3 3 0 0 1-.688.066q-.33 0-.645-.066a1.8 1.8 0 0 1-.549-.212 1.2 1.2 0 0 1-.395-.367 1.1 1.1 0 0 1-.176-.556h-1.941q0 .483.234.967.242.475.703.85a3.6 3.6 0 0 0 1.143.614q.688.235 1.582.235a5.7 5.7 0 0 0 1.472-.176q.66-.183 1.128-.505.462-.323.711-.762.255-.447.256-.974 0-.571-.256-.982a2.2 2.2 0 0 0-.696-.71 4.2 4.2 0 0 0-1.062-.469q-.615-.183-1.333-.3a6 6 0 0 1-.821-.169 2 2 0 0 1-.505-.227.7.7 0 0 1-.264-.263.8.8 0 0 1-.073-.33q0-.176.081-.33a.8.8 0 0 1 .249-.278q.175-.132.454-.205.278-.073.652-.073.44 0 .747.11.315.109.498.293a.9.9 0 0 1 .198.315 1 1 0 0 1 .065.366h2.037a2.2 2.2 0 0 0-.242-1.018 2.4 2.4 0 0 0-.696-.813 3.6 3.6 0 0 0-1.12-.528 5.2 5.2 0 0 0-1.487-.197q-.791 0-1.421.197-.63.198-1.07.535a2.4 2.4 0 0 0-.673.784q-.235.447-.235.937 0 .505.227.894.235.389.645.681.41.3.981.513a9 9 0 0 0 1.275.344q.55.102.908.205.358.102.579.22.212.124.292.263.088.139.088.323m4.322-9.075v1.663h2.373v7.932h-2.373V87h6.701v-1.655h-2.27V75.75zm8.305 7.214v.154q0 .871.249 1.612.25.732.733 1.274.476.541 1.172.85.703.3 1.596.3.887 0 1.582-.3a3.3 3.3 0 0 0 1.172-.85q.477-.541.725-1.275.249-.74.249-1.61v-.155q0-.864-.249-1.596a3.7 3.7 0 0 0-.725-1.282 3.4 3.4 0 0 0-1.179-.85q-.696-.307-1.589-.307-.894 0-1.59.307a3.3 3.3 0 0 0-1.164.85 3.7 3.7 0 0 0-.733 1.282 5 5 0 0 0-.249 1.596m2.036.154v-.154q0-.483.096-.915.094-.432.3-.762.205-.33.527-.52t.777-.19q.461 0 .783.19t.528.52q.197.33.293.762t.095.915v.154q0 .498-.095.938-.096.432-.293.754-.206.33-.528.52t-.769.19q-.46 0-.791-.19-.322-.19-.527-.52a2.3 2.3 0 0 1-.3-.754 4.4 4.4 0 0 1-.096-.938m10.987-5.984h-2.036v1.941h-1.809v1.502h1.809v3.603q0 .784.205 1.348a2.34 2.34 0 0 0 1.487 1.457q.535.17 1.186.169.337 0 .681-.037.352-.03.674-.088.323-.059.608-.146.285-.096.498-.22l-.198-1.399a7.168 7.168 0 0 1-.747.14 7 7 0 0 1-.952.08q-.322 0-.586-.073a1 1 0 0 1-.439-.25 1.1 1.1 0 0 1-.286-.454 2.4 2.4 0 0 1-.095-.725v-3.405h2.959v-1.502h-2.959zm-19.592 34.687q0 .564.38.945.381.38 1.033.38.645 0 1.025-.373.389-.38.389-.952 0-.571-.381-.96-.373-.388-1.033-.388-.666 0-1.04.396a1.32 1.32 0 0 0-.373.952m0-6.05q0 .564.38.945.381.381 1.033.381.645 0 1.025-.374.389-.38.389-.952t-.381-.959q-.373-.389-1.033-.389-.666 0-1.04.396a1.32 1.32 0 0 0-.373.952m10.583-2.637h-2.036v1.941h-1.809v1.502h1.809v3.603q0 .784.205 1.348a2.35 2.35 0 0 0 1.487 1.457 3.9 3.9 0 0 0 1.186.169q.337 0 .681-.037a7 7 0 0 0 .674-.088q.323-.059.608-.146.287-.096.498-.22l-.198-1.399a6.345 6.345 0 0 1-.747.139 6.5 6.5 0 0 1-.952.081q-.322 0-.586-.073a1.03 1.03 0 0 1-.439-.249 1.1 1.1 0 0 1-.286-.454 2.4 2.4 0 0 1-.095-.726v-3.405h2.959v-1.502h-2.959zm9.119 10.012q1.149 0 1.992-.446.842-.447 1.23-.996l-1.018-1.099q-.351.454-.915.681a3.1 3.1 0 0 1-1.165.227 2.3 2.3 0 0 1-.784-.132 2.04 2.04 0 0 1-1.069-.893 3 3 0 0 1-.264-.769v-.022h5.376v-.864q0-.872-.241-1.59a3.5 3.5 0 0 0-.703-1.238 3.2 3.2 0 0 0-1.143-.791q-.666-.285-1.523-.285-.828 0-1.531.3t-1.216.842a3.8 3.8 0 0 0-.798 1.297 4.6 4.6 0 0 0-.286 1.655v.293q0 .798.286 1.501.293.696.827 1.209a3.9 3.9 0 0 0 1.282.82q.747.3 1.663.3m-.242-6.569q.388 0 .681.124.3.118.505.322a1.57 1.57 0 0 1 .44 1.106v.162h-3.34q.073-.389.22-.704.146-.314.366-.542.213-.227.498-.344.286-.124.63-.124m9.031.974-1.714-2.476h-2.19l2.651 3.889-2.754 4.036h2.205l1.809-2.593 1.824 2.593h2.197l-2.754-4.036 2.659-3.889h-2.19zm9.118-4.417h-2.036v1.941h-1.809v1.502h1.809v3.603q0 .784.205 1.348a2.35 2.35 0 0 0 1.487 1.457q.535.17 1.187.169.336 0 .681-.037a7 7 0 0 0 .674-.088q.321-.059.608-.146.285-.096.498-.22l-.198-1.399a4 4 0 0 1-.337.073 6 6 0 0 1-.41.066 6.6 6.6 0 0 1-.952.081q-.323 0-.586-.073a1.04 1.04 0 0 1-.44-.249 1.1 1.1 0 0 1-.285-.454 2.4 2.4 0 0 1-.096-.726v-3.405h2.959v-1.502h-2.959zm12.327 4.615v-1.67h-6.929v1.67zm0 3.156v-1.662h-6.929v1.662zm4.49-8.364v-.791h-1.509v3.867h1.296zm3.01 0v-.791h-1.501v3.867h1.296zm3.259 6.438v.154q0 .864.22 1.604.226.732.645 1.267.417.534 1.003.842.594.3 1.333.3.374 0 .696-.08.33-.08.6-.227.183-.103.345-.235.161-.131.307-.292v.454q0 .402-.117.725a1.4 1.4 0 0 1-.322.542 1.5 1.5 0 0 1-.586.366 2.3 2.3 0 0 1-.791.124q-.278 0-.542-.058a2.3 2.3 0 0 1-.498-.161 2.3 2.3 0 0 1-.476-.286 2.7 2.7 0 0 1-.425-.395l-.916 1.237q.256.33.616.564.359.242.761.396a4.6 4.6 0 0 0 1.582.3q.836 0 1.524-.227a3.3 3.3 0 0 0 1.194-.652q.49-.432.761-1.062.279-.63.279-1.435v-7.669h-1.853l-.081.755a2.3 2.3 0 0 0-.322-.33 2 2 0 0 0-.381-.264 2.2 2.2 0 0 0-.608-.227 3 3 0 0 0-.732-.08q-.747 0-1.341.293a2.9 2.9 0 0 0-1.01.827 3.9 3.9 0 0 0-.645 1.282 5.8 5.8 0 0 0-.22 1.648m2.044.154v-.154q0-.498.102-.93.103-.44.315-.769.205-.323.52-.506.315-.19.747-.19a2 2 0 0 1 .432.044q.206.044.374.124.198.096.352.249.153.155.263.359v3.355a1.6 1.6 0 0 1-.241.329 1.4 1.4 0 0 1-.323.249 1.6 1.6 0 0 1-.395.147 2 2 0 0 1-.476.051q-.432 0-.747-.183a1.5 1.5 0 0 1-.52-.505 2.4 2.4 0 0 1-.308-.74 4.4 4.4 0 0 1-.095-.93m12.861-4.204q-.798 0-1.472.388a3.6 3.6 0 0 0-1.157 1.055l-.015-.176-.081-1.121h-1.896V113h2.036v-4.761q.139-.337.351-.586.213-.249.513-.41.249-.14.564-.205.322-.073.718-.073.381 0 .798.051.425.044.828.139l.3-2.029a5 5 0 0 0-.637-.131 5 5 0 0 0-.85-.066m7.163 8.217q1.15 0 1.992-.446.843-.447 1.231-.996l-1.018-1.099q-.352.454-.916.681a3.1 3.1 0 0 1-1.164.227q-.426 0-.784-.132a2 2 0 0 1-.637-.373 2 2 0 0 1-.432-.52 2.9 2.9 0 0 1-.264-.769v-.022h5.376v-.864q0-.872-.242-1.59a3.5 3.5 0 0 0-.703-1.238 3.2 3.2 0 0 0-1.142-.791q-.668-.285-1.524-.285-.828 0-1.531.3t-1.215.842a3.9 3.9 0 0 0-.799 1.297 4.6 4.6 0 0 0-.285 1.655v.293q0 .798.285 1.501.293.696.828 1.209.534.52 1.282.82.747.3 1.662.3m-.242-6.569q.388 0 .682.124.3.118.505.322.205.213.322.498.117.287.117.608v.162h-3.339q.073-.389.219-.704t.367-.542q.212-.227.498-.344.285-.124.629-.124m9.251 6.569q1.15 0 1.992-.446.843-.447 1.231-.996l-1.018-1.099q-.352.454-.916.681a3.1 3.1 0 0 1-1.165.227 2.3 2.3 0 0 1-.783-.132 2 2 0 0 1-.637-.373 2 2 0 0 1-.433-.52 2.9 2.9 0 0 1-.263-.769v-.022h5.376v-.864q0-.872-.242-1.59a3.5 3.5 0 0 0-.703-1.238 3.2 3.2 0 0 0-1.143-.791q-.666-.285-1.523-.285-.828 0-1.531.3t-1.216.842a3.9 3.9 0 0 0-.798 1.297 4.6 4.6 0 0 0-.286 1.655v.293q0 .798.286 1.501.292.696.828 1.209.534.52 1.281.82.748.3 1.663.3m-.242-6.569q.389 0 .681.124.301.118.506.322.205.213.322.498.117.287.117.608v.162h-3.34q.073-.389.22-.704t.366-.542q.213-.227.498-.344.287-.124.63-.124m9.141-3.443h-2.036v1.941h-1.809v1.502h1.809v3.603q0 .784.205 1.348a2.35 2.35 0 0 0 1.487 1.457 3.9 3.9 0 0 0 1.186.169q.338 0 .681-.037a7 7 0 0 0 .674-.088q.323-.059.608-.146.286-.096.498-.22l-.198-1.399a4 4 0 0 1-.337.073 6 6 0 0 1-.41.066 6.5 6.5 0 0 1-.952.081q-.322 0-.586-.073a1.03 1.03 0 0 1-.439-.249 1.1 1.1 0 0 1-.286-.454 2.4 2.4 0 0 1-.095-.726v-3.405h2.959v-1.502H307.9zm5.815 1.941v1.663h2.256v4.607h-2.256V113h6.46v-1.655h-2.146v-6.27zm2.11-2.029q0 .235.08.44a1 1 0 0 0 .242.337q.155.146.366.227.22.08.484.08.542 0 .857-.3.322-.307.322-.784 0-.476-.322-.776-.315-.308-.857-.308-.264 0-.484.081a1.2 1.2 0 0 0-.366.22 1.05 1.05 0 0 0-.242.351 1.2 1.2 0 0 0-.08.432m6.357 9.954h2.044v-5.632q.102-.162.227-.293.124-.132.278-.227a1.4 1.4 0 0 1 .432-.198q.25-.066.542-.066.351 0 .63.073.278.066.476.242.198.175.3.483.11.301.11.769V113h2.036v-4.878q0-.864-.205-1.465a2.7 2.7 0 0 0-.556-.996 2.2 2.2 0 0 0-.865-.557 3.3 3.3 0 0 0-1.098-.175q-.469 0-.887.132a2.75 2.75 0 0 0-1.157.71 3 3 0 0 0-.337.403l-.124-1.099h-1.846zm8.804-4.021v.154q0 .864.22 1.604.227.732.644 1.267t1.004.842q.592.3 1.333.3.373 0 .695-.08.33-.08.601-.227.183-.103.344-.235a3 3 0 0 0 .308-.292v.454q0 .402-.117.725a1.44 1.44 0 0 1-.323.542 1.5 1.5 0 0 1-.586.366 2.3 2.3 0 0 1-.791.124 2.5 2.5 0 0 1-.542-.058 2.34 2.34 0 0 1-.974-.447 2.7 2.7 0 0 1-.425-.395l-.915 1.237q.256.33.615.564.358.242.762.396a4.5 4.5 0 0 0 1.582.3 4.9 4.9 0 0 0 1.523-.227 3.3 3.3 0 0 0 1.194-.652q.49-.432.762-1.062.278-.63.278-1.435v-7.669h-1.853l-.08.755a2.3 2.3 0 0 0-.323-.33 2 2 0 0 0-.38-.264 2.2 2.2 0 0 0-.608-.227 3 3 0 0 0-.733-.08q-.747 0-1.34.293a2.9 2.9 0 0 0-1.011.827 3.9 3.9 0 0 0-.644 1.282 5.8 5.8 0 0 0-.22 1.648m2.043.154v-.154q0-.498.103-.93a2.4 2.4 0 0 1 .315-.769q.204-.323.52-.506.315-.19.747-.19.234 0 .432.044.205.044.374.124.197.096.351.249.154.155.264.359v3.355a1.6 1.6 0 0 1-.242.329 1.3 1.3 0 0 1-.322.249 1.6 1.6 0 0 1-.396.147q-.212.051-.476.051-.432 0-.747-.183a1.5 1.5 0 0 1-.52-.505 2.4 2.4 0 0 1-.307-.74 4.3 4.3 0 0 1-.096-.93m9.624-6.797h-2.556V113h1.89v-3.157l-.088-4.79 1.252 4.431h1.018l1.399-4.629-.088 4.988V113h1.89v-10.664h-2.556l-1.15 4.006zm10.401 10.81q1.149 0 1.992-.446.842-.447 1.23-.996l-1.018-1.099q-.351.454-.915.681a3.1 3.1 0 0 1-1.165.227 2.3 2.3 0 0 1-.783-.132 2.03 2.03 0 0 1-1.07-.893 2.9 2.9 0 0 1-.263-.769v-.022h5.376v-.864q0-.872-.242-1.59a3.5 3.5 0 0 0-.703-1.238 3.2 3.2 0 0 0-1.143-.791q-.666-.285-1.523-.285-.828 0-1.531.3t-1.216.842a3.8 3.8 0 0 0-.798 1.297 4.6 4.6 0 0 0-.286 1.655v.293q0 .798.286 1.501.293.696.827 1.209a3.9 3.9 0 0 0 1.282.82q.747.3 1.663.3m-.242-6.569q.389 0 .681.124.3.118.506.322a1.58 1.58 0 0 1 .439 1.106v.162h-3.34q.073-.389.22-.704t.366-.542q.213-.227.498-.344.286-.124.63-.124m10.518 4.248a.63.63 0 0 1-.096.337.8.8 0 0 1-.271.271q-.19.117-.49.19a3.2 3.2 0 0 1-.689.066q-.33 0-.644-.066a1.8 1.8 0 0 1-.55-.212 1.2 1.2 0 0 1-.395-.367 1.13 1.13 0 0 1-.176-.556h-1.941q0 .483.234.967.242.475.704.849.46.381 1.142.615.689.235 1.582.235.813 0 1.472-.176.66-.183 1.128-.505.462-.323.711-.762.256-.447.256-.974 0-.571-.256-.982a2.2 2.2 0 0 0-.696-.71 4.2 4.2 0 0 0-1.062-.469q-.616-.183-1.333-.3a6 6 0 0 1-.82-.169 2 2 0 0 1-.506-.227.67.67 0 0 1-.263-.263.76.76 0 0 1-.074-.33q0-.176.081-.329a.85.85 0 0 1 .249-.279q.176-.132.454-.205.279-.073.652-.073.44 0 .747.11.315.11.498.293a.992.992 0 0 1 .264.681h2.036a2.2 2.2 0 0 0-.242-1.018 2.4 2.4 0 0 0-.696-.813 3.6 3.6 0 0 0-1.12-.528 5.2 5.2 0 0 0-1.487-.197q-.79 0-1.421.197-.63.198-1.069.535a2.4 2.4 0 0 0-.674.784q-.235.447-.235.937 0 .506.228.894.234.389.644.681.41.3.982.513.578.204 1.274.344.55.102.908.205.358.102.579.22a.8.8 0 0 1 .293.263.6.6 0 0 1 .088.323m9.008 0a.63.63 0 0 1-.095.337.8.8 0 0 1-.271.271q-.19.117-.491.19a3 3 0 0 1-.688.066q-.33 0-.645-.066a1.8 1.8 0 0 1-.549-.212 1.2 1.2 0 0 1-.395-.367 1.1 1.1 0 0 1-.176-.556h-1.941q0 .483.234.967.242.475.703.849.462.381 1.143.615.688.235 1.582.235.813 0 1.472-.176.66-.183 1.128-.505.462-.323.711-.762.255-.447.256-.974 0-.571-.256-.982a2.2 2.2 0 0 0-.696-.71 4.2 4.2 0 0 0-1.062-.469q-.616-.183-1.333-.3a6 6 0 0 1-.821-.169 2 2 0 0 1-.505-.227.7.7 0 0 1-.264-.263.8.8 0 0 1-.073-.33q0-.176.081-.329a.8.8 0 0 1 .249-.279 1.3 1.3 0 0 1 .454-.205 2.6 2.6 0 0 1 .652-.073q.44 0 .747.11.315.11.498.293a.9.9 0 0 1 .198.315 1 1 0 0 1 .065.366h2.037a2.2 2.2 0 0 0-.242-1.018 2.4 2.4 0 0 0-.696-.813 3.6 3.6 0 0 0-1.12-.528 5.2 5.2 0 0 0-1.487-.197q-.791 0-1.421.197-.63.198-1.07.535a2.4 2.4 0 0 0-.673.784q-.235.447-.235.937 0 .506.227.894.235.389.645.681.41.3.981.513a9.4 9.4 0 0 0 1.275.344q.55.102.908.205.358.102.579.22a.8.8 0 0 1 .292.263.6.6 0 0 1 .088.323m8.848 2.175h2.065v-.125a2.7 2.7 0 0 1-.234-.717 5.7 5.7 0 0 1-.08-1.055v-3.398q0-.688-.257-1.209a2.4 2.4 0 0 0-.71-.871 3.2 3.2 0 0 0-1.077-.521 4.8 4.8 0 0 0-1.333-.175q-.798 0-1.421.205a3.2 3.2 0 0 0-1.04.542 2.4 2.4 0 0 0-.659.798q-.22.455-.22.96h2.036q0-.213.059-.389a.8.8 0 0 1 .198-.3.95.95 0 0 1 .381-.212q.234-.081.556-.081.367 0 .637.095.279.088.462.257.176.161.263.388.088.219.088.498v.469h-1.135q-.879 0-1.56.161a3.5 3.5 0 0 0-1.135.454q-.513.33-.769.842a2.54 2.54 0 0 0-.257 1.165q0 .513.206.952.205.432.571.747t.871.491q.513.175 1.121.175.374 0 .696-.073a2.73 2.73 0 0 0 1.465-.813q.036.213.088.403.05.19.124.337m-1.941-1.428q-.285 0-.505-.066a1.2 1.2 0 0 1-.359-.191.9.9 0 0 1-.227-.3 1.199 1.199 0 0 1 .029-.893 1.03 1.03 0 0 1 .315-.403q.213-.162.549-.249.337-.095.813-.095h1.04v1.362a1.5 1.5 0 0 1-.241.307 1.8 1.8 0 0 1-.367.264 2.156 2.156 0 0 1-1.047.264m5.794-2.593v.154q0 .864.219 1.604.228.732.645 1.267t1.003.842q.594.3 1.333.3.373 0 .696-.08.33-.08.601-.227.183-.103.344-.235.16-.131.308-.292v.454q0 .402-.118.725-.11.322-.322.542a1.5 1.5 0 0 1-.586.366 2.3 2.3 0 0 1-.791.124 2.5 2.5 0 0 1-.542-.058 2.3 2.3 0 0 1-.498-.161 2.3 2.3 0 0 1-.476-.286 2.7 2.7 0 0 1-.425-.395l-.915 1.237q.256.33.615.564.358.242.762.396a4.5 4.5 0 0 0 1.582.3q.834 0 1.523-.227a3.3 3.3 0 0 0 1.194-.652q.49-.432.762-1.062.278-.63.278-1.435v-7.669h-1.853l-.081.755a2.3 2.3 0 0 0-.322-.33 2 2 0 0 0-.381-.264 2.2 2.2 0 0 0-.608-.227 3 3 0 0 0-.732-.08q-.747 0-1.34.293a2.9 2.9 0 0 0-1.011.827 3.9 3.9 0 0 0-.645 1.282 5.8 5.8 0 0 0-.219 1.648m2.043.154v-.154q0-.498.103-.93a2.4 2.4 0 0 1 .315-.769q.205-.323.52-.506.314-.19.747-.19.234 0 .432.044.204.044.373.124.198.096.352.249.153.155.264.359v3.355a1.6 1.6 0 0 1-.242.329 1.3 1.3 0 0 1-.322.249 1.6 1.6 0 0 1-.396.147q-.212.051-.476.051-.432 0-.747-.183a1.5 1.5 0 0 1-.52-.505 2.4 2.4 0 0 1-.308-.74 4.4 4.4 0 0 1-.095-.93m11.016 4.013q1.149 0 1.992-.446.842-.447 1.23-.996l-1.018-1.099q-.351.454-.915.681a3.1 3.1 0 0 1-1.165.227 2.3 2.3 0 0 1-.784-.132 2.04 2.04 0 0 1-1.069-.893 3 3 0 0 1-.264-.769v-.022h5.376v-.864q0-.872-.241-1.59a3.5 3.5 0 0 0-.703-1.238 3.2 3.2 0 0 0-1.143-.791q-.666-.285-1.523-.285-.828 0-1.531.3t-1.216.842a3.8 3.8 0 0 0-.798 1.297 4.6 4.6 0 0 0-.286 1.655v.293q0 .798.286 1.501.293.696.827 1.209a3.9 3.9 0 0 0 1.282.82q.747.3 1.663.3m-.242-6.569q.388 0 .681.124.3.118.505.322a1.57 1.57 0 0 1 .44 1.106v.162h-3.34q.073-.389.22-.704.146-.314.366-.542.213-.227.498-.344.286-.124.63-.124m7.939-4.036v-.791h-1.508v3.867h1.296zm3.011 0v-.791h-1.502v3.867h1.297zm-201.577 35.28q0 .564.38.945.381.38 1.033.38.645 0 1.025-.373.389-.38.389-.952 0-.571-.381-.96-.373-.387-1.033-.388-.666 0-1.04.396a1.32 1.32 0 0 0-.373.952m0-6.05q0 .564.38.945.381.381 1.033.381.645 0 1.025-.374.389-.38.389-.952t-.381-.959q-.373-.389-1.033-.389-.666 0-1.04.396a1.32 1.32 0 0 0-.373.952m10.356 5.75q-.49 0-.813-.198a1.44 1.44 0 0 1-.498-.528 2.2 2.2 0 0 1-.264-.747 5.3 5.3 0 0 1-.073-.893v-.22q0-.454.073-.879.08-.425.271-.754.183-.33.498-.528.315-.197.799-.197.329 0 .608.117.278.11.476.3t.3.454q.103.264.088.557h1.919a2.95 2.95 0 0 0-.235-1.267 2.8 2.8 0 0 0-.695-.974 3.3 3.3 0 0 0-1.077-.616 4 4 0 0 0-1.355-.219q-.916 0-1.611.315-.689.315-1.158.857a3.6 3.6 0 0 0-.703 1.274 5 5 0 0 0-.234 1.56v.22q0 .835.234 1.567.241.726.711 1.267.46.542 1.157.857.695.308 1.619.308.68 0 1.289-.213.615-.219 1.076-.6t.725-.908q.272-.528.257-1.143h-1.919a.97.97 0 0 1-.103.505 1.1 1.1 0 0 1-.315.389q-.204.16-.476.249-.27.088-.571.088m5.222-2.557v.154q0 .871.249 1.611.249.733.733 1.275.476.541 1.171.85.703.3 1.597.3.886 0 1.582-.3a3.3 3.3 0 0 0 1.172-.85q.476-.542.725-1.275a5 5 0 0 0 .249-1.611v-.154q0-.864-.249-1.596a3.7 3.7 0 0 0-.725-1.282 3.4 3.4 0 0 0-1.179-.85q-.696-.307-1.59-.307-.893 0-1.589.307a3.3 3.3 0 0 0-1.164.85 3.6 3.6 0 0 0-.733 1.282 5 5 0 0 0-.249 1.596m2.036.154v-.154q0-.483.095-.915.096-.432.301-.762.204-.33.527-.52a1.5 1.5 0 0 1 .776-.19q.462 0 .784.19.323.19.528.52.197.33.292.762.096.432.096.915v.154q0 .498-.096.938a2.4 2.4 0 0 1-.292.754q-.206.33-.528.52a1.5 1.5 0 0 1-.769.191q-.46 0-.791-.191a1.5 1.5 0 0 1-.527-.52 2.3 2.3 0 0 1-.301-.754 4.5 4.5 0 0 1-.095-.938M237.265 139h1.846v-7.925h-2.044v5.559a1.7 1.7 0 0 1-.227.345q-.132.153-.3.263a1.6 1.6 0 0 1-.461.191 2.3 2.3 0 0 1-.579.066q-.359 0-.608-.088a.85.85 0 0 1-.403-.293 1.3 1.3 0 0 1-.227-.528 4.2 4.2 0 0 1-.066-.813v-4.702h-2.036v4.688q0 .9.198 1.545.205.637.571 1.047.366.418.879.608t1.128.191q.674 0 1.238-.337.571-.337.974-.93zm3.838 0h2.043v-5.632q.104-.162.228-.293.124-.132.278-.227a1.4 1.4 0 0 1 .432-.198q.25-.066.542-.066.351 0 .63.073.278.066.476.242.198.175.3.483.11.301.11.769V139h2.036v-4.878q0-.864-.205-1.465a2.7 2.7 0 0 0-.556-.996 2.2 2.2 0 0 0-.865-.557 3.3 3.3 0 0 0-1.098-.175q-.469 0-.887.132a2.75 2.75 0 0 0-1.157.71 3 3 0 0 0-.337.403l-.124-1.099h-1.846zm12.744-9.866h-2.036v1.941h-1.809v1.502h1.809v3.603q0 .784.205 1.348a2.35 2.35 0 0 0 1.487 1.457 3.9 3.9 0 0 0 1.186.169q.337 0 .682-.037a7 7 0 0 0 .673-.088q.323-.059.608-.146.286-.096.498-.22l-.197-1.399a4 4 0 0 1-.337.073 6 6 0 0 1-.41.066 6.5 6.5 0 0 1-.953.081q-.321 0-.586-.073a1.04 1.04 0 0 1-.439-.249 1.1 1.1 0 0 1-.286-.454 2.4 2.4 0 0 1-.095-.726v-3.405h2.959v-1.502h-2.959zm12.327 4.615v-1.67h-6.929v1.67zm0 3.156v-1.662h-6.929v1.662zm4.49-8.364v-.791h-1.509v3.867h1.296zm3.01 0v-.791h-1.502v3.867h1.297zM282.126 139v-10.664h-.11l-4.643 1.677v1.773l2.695-.967V139zm6.555-10.459v-.791h-1.509v3.867h1.297zm3.01 0v-.791h-1.501v3.867h1.296zm-102.165 37.375 3.992-11.58h-1.897l-3.992 11.58zm6.68-1.963 6.591-2.688v-1.663l-6.591-2.681v1.971l4.204 1.384.439.146-.447.147-4.196 1.406z"/><path fill="#4b7eff" d="m428.081 145.886.488 1.977q2.149-.342 3.785-1.342a9.6 9.6 0 0 0 2.758-2.466 10.9 10.9 0 0 0 1.758-3.467 13.6 13.6 0 0 0 .586-4.028v-5.054q0-1.611.391-2.808a5.54 5.54 0 0 1 1.172-2.051q.83-.903 2.148-1.367 1.343-.488 3.076-.537v-2.563q-1.832-.05-3.198-.562-1.368-.512-2.222-1.562-.659-.806-1.025-1.953-.342-1.148-.342-2.637v-5.103q-.024-2.32-.684-4.37a10.6 10.6 0 0 0-2.001-3.638q-1.05-1.269-2.613-2.148-1.537-.88-3.589-1.196l-.415 1.953q1.637.268 2.784 1.05a6.9 6.9 0 0 1 1.879 1.88q.88 1.27 1.294 2.954.416 1.66.44 3.515v5.103q0 1.83.537 3.345a7.55 7.55 0 0 0 1.611 2.587 8.2 8.2 0 0 0 1.612 1.246 9.8 9.8 0 0 0 2.026.83 9.8 9.8 0 0 0-2.026.879 7.5 7.5 0 0 0-1.612 1.22q-1.05 1.074-1.611 2.588-.537 1.49-.537 3.345v5.054a13 13 0 0 1-.44 3.247q-.39 1.562-1.172 2.783a7.5 7.5 0 0 1-2.026 2.099q-1.196.879-2.832 1.197"/><rect width="373" height="115" x="150" y="255" stroke="#8e67cd" stroke-dasharray="2 2" stroke-width="2" rx="3"/><rect width="373" height="162" x="150" y="41" stroke="#8e67cd" stroke-dasharray="2 2" stroke-width="2" rx="3"/><path fill="#8e67cd" d="m150.928 26.598 4.347 1.572v1.852l-5.906-2.501v-1.313zm4.347-1.285-4.354 1.6-1.552.368V25.97l5.906-2.502zm2.687-4.266h1.736l2.557 7.308 2.557-7.308h1.736L162.952 31h-1.394zm-.937 0h1.73l.314 7.123V31h-2.044zm8.73 0h1.736V31h-2.051v-2.83zm5.605 9.119 1.962-6.562h2.113l-2.974 8.51a4.6 4.6 0 0 1-.26.602 2.5 2.5 0 0 1-.43.608 2 2 0 0 1-.677.479q-.404.184-.991.184-.28 0-.458-.034a8 8 0 0 1-.424-.096v-1.442h.157q.082.007.157.007.39 0 .636-.089a.9.9 0 0 0 .396-.273q.15-.178.24-.465zm-.82-6.562 1.606 5.359.281 2.085-1.34.143-2.659-7.587zm11.573 4.094h2.044q-.061 1.005-.553 1.784-.486.78-1.361 1.217-.868.438-2.092.438-.957 0-1.715-.328a3.65 3.65 0 0 1-1.299-.957 4.3 4.3 0 0 1-.814-1.504q-.28-.882-.28-1.976v-.69q0-1.095.287-1.976a4.4 4.4 0 0 1 .834-1.51 3.7 3.7 0 0 1 1.306-.958 4.15 4.15 0 0 1 1.695-.335q1.244 0 2.099.452.86.45 1.333 1.244.478.793.574 1.804h-2.051q-.034-.6-.239-1.018a1.36 1.36 0 0 0-.622-.636q-.41-.219-1.094-.219-.513 0-.895.192-.384.191-.643.58-.26.39-.39.985a7 7 0 0 0-.123 1.381v.704q0 .772.116 1.36.117.582.356.985.246.396.629.601.39.2.936.199.643 0 1.06-.206.417-.204.636-.608.225-.403.266-1.005m2.953-.321v-.144q0-.812.233-1.497.232-.69.677-1.196.444-.506 1.093-.786.65-.288 1.491-.287.84 0 1.497.287a3 3 0 0 1 1.1.786q.451.506.684 1.196.232.684.232 1.497v.144q0 .807-.232 1.497a3.5 3.5 0 0 1-.684 1.196 3 3 0 0 1-1.094.786q-.648.28-1.49.28-.84 0-1.497-.28a3.1 3.1 0 0 1-1.1-.786 3.5 3.5 0 0 1-.677-1.196 4.7 4.7 0 0 1-.233-1.497m1.969-.144v.144q0 .466.082.868.082.403.26.711.185.3.478.472.295.17.718.17.41 0 .704-.17.295-.17.472-.472.178-.308.26-.71.089-.405.089-.869v-.144q0-.45-.089-.847a2.3 2.3 0 0 0-.267-.711 1.3 1.3 0 0 0-.471-.492 1.35 1.35 0 0 0-.711-.178q-.417 0-.711.178a1.4 1.4 0 0 0-.472.492 2.3 2.3 0 0 0-.26.71 4 4 0 0 0-.082.848m8.217-2.098V31h-1.976v-7.396h1.853zm-.273 1.907h-.547q0-.773.184-1.422.191-.656.554-1.135.369-.485.909-.752.54-.266 1.251-.266.492 0 .902.15.411.144.705.458.3.308.464.807.165.492.164 1.182V31h-1.968v-4.717q0-.506-.137-.78a.77.77 0 0 0-.39-.382 1.5 1.5 0 0 0-.594-.11 1.4 1.4 0 0 0-.67.158q-.28.157-.465.437a2 2 0 0 0-.274.643q-.088.369-.088.793m4.402-.226-.704.09q0-.726.177-1.347.186-.623.541-1.094.362-.472.895-.732a2.7 2.7 0 0 1 1.231-.266q.533 0 .97.157.438.15.745.485.314.329.479.862.171.532.171 1.305V31h-1.976v-4.724q0-.512-.137-.779a.72.72 0 0 0-.382-.376 1.4 1.4 0 0 0-.588-.11 1.29 1.29 0 0 0-1.067.527 1.8 1.8 0 0 0-.266.574q-.09.323-.089.704m7.998-1.79v8.818h-1.969v-10.24h1.825zm4.683 2.194v.143q0 .807-.192 1.497-.184.69-.547 1.204a2.6 2.6 0 0 1-.902.792q-.534.28-1.231.28-.677 0-1.175-.273a2.45 2.45 0 0 1-.841-.765 4.5 4.5 0 0 1-.54-1.156 9 9 0 0 1-.315-1.408v-.376q.11-.807.315-1.476.206-.677.54-1.17.342-.498.834-.772.498-.273 1.169-.273.704 0 1.237.266.54.267.902.766.37.5.554 1.19.192.69.192 1.53m-1.976.143v-.143q0-.472-.082-.868a2.3 2.3 0 0 0-.246-.704q-.164-.302-.438-.465a1.18 1.18 0 0 0-.649-.171 1.7 1.7 0 0 0-.691.13 1.16 1.16 0 0 0-.458.376q-.177.246-.266.587a4 4 0 0 0-.11.773v.95q.035.505.192.91.157.396.485.628.328.233.862.233.389 0 .656-.171.267-.178.43-.486.171-.308.24-.71.075-.404.075-.869m2.885.014v-.144q0-.812.232-1.497a3.5 3.5 0 0 1 .677-1.196q.444-.506 1.094-.786.649-.288 1.49-.287.84 0 1.497.287.656.28 1.101.786.45.506.683 1.196.233.684.233 1.497v.144q0 .807-.233 1.497a3.5 3.5 0 0 1-.683 1.196q-.445.507-1.094.786-.65.28-1.49.28-.841 0-1.498-.28a3.1 3.1 0 0 1-1.1-.786 3.6 3.6 0 0 1-.677-1.196 4.7 4.7 0 0 1-.232-1.497m1.968-.144v.144q0 .466.082.868.083.403.26.711.185.3.479.472.294.17.718.17.41 0 .704-.17t.471-.472q.178-.308.26-.71.089-.405.089-.869v-.144q0-.45-.089-.847a2.2 2.2 0 0 0-.267-.711 1.3 1.3 0 0 0-.471-.492 1.35 1.35 0 0 0-.711-.178q-.417 0-.711.178a1.4 1.4 0 0 0-.472.492 2.4 2.4 0 0 0-.26.71 4.2 4.2 0 0 0-.082.848m8.176-2.05V31h-1.969v-7.396h1.846zm-.287 1.859h-.533q0-.821.212-1.477.211-.663.595-1.128.383-.471.909-.717a2.74 2.74 0 0 1 1.189-.253q.52 0 .95.15.432.15.739.479.314.328.478.868.171.54.171 1.32V31h-1.982v-4.724q0-.492-.137-.765a.77.77 0 0 0-.403-.383 1.6 1.6 0 0 0-.643-.116q-.396 0-.69.157-.287.157-.479.437a2.1 2.1 0 0 0-.28.643q-.096.369-.096.793m9.611 4.095a4.1 4.1 0 0 1-1.544-.274 3.4 3.4 0 0 1-1.163-.772 3.4 3.4 0 0 1-.724-1.142 3.8 3.8 0 0 1-.253-1.394v-.274q0-.84.239-1.538a3.6 3.6 0 0 1 .684-1.21 3 3 0 0 1 1.093-.786q.643-.28 1.45-.28.786 0 1.394.26.609.26 1.019.738.416.479.629 1.148.212.663.212 1.477v.82h-5.879v-1.312h3.944v-.15q0-.411-.15-.732a1.16 1.16 0 0 0-.438-.52q-.293-.19-.752-.191-.39 0-.67.17a1.3 1.3 0 0 0-.458.48q-.17.306-.26.724a4.7 4.7 0 0 0-.082.902v.274q0 .444.124.82.13.375.362.65.239.273.574.423.342.15.772.15.534 0 .992-.204.464-.213.8-.636l.957 1.039a2.9 2.9 0 0 1-.636.642 3.4 3.4 0 0 1-.957.506 4 4 0 0 1-1.279.192m6.084-5.954V31h-1.968v-7.396h1.845zm-.287 1.859h-.533q0-.821.212-1.477.212-.663.595-1.128.382-.471.909-.717a2.74 2.74 0 0 1 1.189-.253q.52 0 .951.15t.738.479q.315.328.478.868.171.54.171 1.32V31h-1.982v-4.724q0-.492-.137-.765a.77.77 0 0 0-.403-.383 1.6 1.6 0 0 0-.643-.116q-.396 0-.69.157-.287.157-.479.437a2.1 2.1 0 0 0-.28.643q-.096.369-.096.793m9.83-3.439v1.395h-4.306v-1.395zm-3.24-1.825h1.969v6.994q0 .321.082.492a.5.5 0 0 0 .26.239q.17.06.43.061.185 0 .329-.013.15-.021.252-.041l.007 1.449a4 4 0 0 1-.547.13 4 4 0 0 1-.649.048q-.65 0-1.135-.212a1.56 1.56 0 0 1-.738-.698q-.26-.478-.26-1.257zm8.791 5.093-4.382-1.565v-1.84l5.954 2.503v1.32zm-4.382 1.313 4.389-1.6 1.565-.376v1.313l-5.954 2.502zm14.294-4.58v1.394h-4.306v-1.395zm-3.24-1.826h1.969v6.994q0 .321.082.492a.5.5 0 0 0 .26.239q.17.06.43.061.185 0 .328-.013a4 4 0 0 0 .253-.041l.007 1.449a4 4 0 0 1-.547.13 4 4 0 0 1-.649.048q-.65 0-1.135-.212a1.56 1.56 0 0 1-.738-.698q-.26-.478-.26-1.257zm7.766 9.359q-.863 0-1.545-.274a3.4 3.4 0 0 1-1.162-.772 3.4 3.4 0 0 1-.725-1.142 3.8 3.8 0 0 1-.253-1.394v-.274q0-.84.239-1.538a3.6 3.6 0 0 1 .684-1.21 3 3 0 0 1 1.094-.786q.642-.28 1.449-.28.786 0 1.394.26.61.26 1.019.738.417.479.629 1.148.212.663.212 1.477v.82h-5.879v-1.312h3.944v-.15q0-.411-.15-.732a1.16 1.16 0 0 0-.438-.52q-.293-.19-.752-.191-.39 0-.669.17-.28.172-.458.48a2.6 2.6 0 0 0-.26.724 4.6 4.6 0 0 0-.082.902v.274q0 .444.123.82.13.375.362.65.24.273.574.423.342.15.773.15.533 0 .991-.204.465-.213.8-.636l.957 1.039a2.9 2.9 0 0 1-.636.642 3.4 3.4 0 0 1-.957.506q-.561.192-1.278.192m6.125-6.002V31h-1.976v-7.396h1.853zm-.274 1.907h-.547q0-.773.185-1.422.192-.656.554-1.135.369-.485.909-.752.54-.266 1.251-.266.492 0 .902.15.41.144.704.458.301.308.465.807.164.492.164 1.182V31h-1.969v-4.717q0-.506-.136-.78a.77.77 0 0 0-.39-.382 1.5 1.5 0 0 0-.595-.11q-.382 0-.67.158-.28.157-.464.437a2 2 0 0 0-.274.643q-.089.369-.089.793m4.403-.226-.705.09q0-.726.178-1.347a3.4 3.4 0 0 1 .54-1.094q.362-.472.896-.732a2.7 2.7 0 0 1 1.23-.266q.534 0 .971.157.438.15.745.485.315.329.479.862.17.532.17 1.305V31h-1.975v-4.724q0-.512-.137-.779a.71.71 0 0 0-.383-.376 1.4 1.4 0 0 0-.588-.11q-.355 0-.622.144a1.25 1.25 0 0 0-.444.383 1.8 1.8 0 0 0-.267.574 2.7 2.7 0 0 0-.088.704m7.998-1.79v8.818h-1.969v-10.24h1.825zm4.682 2.194v.143q0 .807-.191 1.497-.184.69-.547 1.204a2.6 2.6 0 0 1-.902.792q-.534.28-1.231.28-.676 0-1.176-.273a2.44 2.44 0 0 1-.84-.765 4.4 4.4 0 0 1-.54-1.156 9 9 0 0 1-.315-1.408v-.376q.11-.807.315-1.476a4.2 4.2 0 0 1 .54-1.17 2.4 2.4 0 0 1 .834-.772q.498-.273 1.168-.273.704 0 1.238.266.54.267.902.766.37.5.554 1.19.19.69.191 1.53m-1.975.143v-.143q0-.472-.082-.868a2.3 2.3 0 0 0-.246-.704q-.165-.302-.438-.465a1.2 1.2 0 0 0-.649-.171 1.7 1.7 0 0 0-.691.13 1.16 1.16 0 0 0-.458.376q-.177.246-.266.587-.09.342-.11.773v.95q.034.505.192.91.156.396.485.628.328.233.861.233.39 0 .657-.171.266-.178.43-.486a2.2 2.2 0 0 0 .239-.71 4.7 4.7 0 0 0 .076-.869m5.277-6.863V31h-1.976V20.5zm5.619 8.832v-3.295q0-.356-.116-.608a.87.87 0 0 0-.362-.404q-.24-.143-.622-.143a1.3 1.3 0 0 0-.568.116.83.83 0 0 0-.369.321.9.9 0 0 0-.13.486h-1.969q0-.472.219-.896.219-.423.636-.745.417-.329.991-.513.58-.184 1.299-.184.861 0 1.531.287t1.053.861q.39.575.39 1.436v3.165q0 .608.075.998.075.382.219.67V31h-1.99a2.9 2.9 0 0 1-.218-.752 6 6 0 0 1-.069-.916m.26-2.837.014 1.114h-1.101q-.39 0-.677.09a1.3 1.3 0 0 0-.471.252 1 1 0 0 0-.274.37 1.3 1.3 0 0 0-.082.464q0 .253.116.458a.83.83 0 0 0 .335.315q.219.11.513.109.444 0 .772-.178.329-.177.506-.437.185-.26.192-.492l.519.834q-.11.28-.301.58-.184.301-.471.568a2.4 2.4 0 0 1-.691.43q-.404.165-.957.165-.704 0-1.278-.28a2.33 2.33 0 0 1-.902-.787 2.06 2.06 0 0 1-.328-1.148q0-.581.218-1.032.219-.451.643-.76.43-.314 1.073-.47.642-.165 1.49-.165zm6.863-2.892v1.395h-4.306v-1.395zm-3.24-1.825h1.969v6.994q0 .321.082.492a.5.5 0 0 0 .26.239q.17.06.43.061.185 0 .328-.013a4 4 0 0 0 .253-.041l.007 1.449a4 4 0 0 1-.547.13 4 4 0 0 1-.649.048q-.65 0-1.135-.212a1.56 1.56 0 0 1-.738-.698q-.26-.478-.26-1.257zm7.766 9.359q-.863 0-1.545-.274a3.4 3.4 0 0 1-1.162-.772 3.4 3.4 0 0 1-.725-1.142 3.8 3.8 0 0 1-.253-1.394v-.274q0-.84.239-1.538a3.6 3.6 0 0 1 .684-1.21 3 3 0 0 1 1.094-.786q.642-.28 1.449-.28.786 0 1.394.26t1.019.738q.417.479.629 1.148.212.663.212 1.477v.82h-5.879v-1.312h3.944v-.15q0-.411-.15-.732a1.16 1.16 0 0 0-.438-.52q-.293-.19-.752-.191-.389 0-.67.17a1.33 1.33 0 0 0-.458.48q-.17.306-.259.724a4.6 4.6 0 0 0-.082.902v.274q0 .444.123.82.13.375.362.65.239.273.574.423.342.15.773.15.533 0 .991-.204.465-.213.8-.636l.957 1.039a2.9 2.9 0 0 1-.636.642 3.4 3.4 0 0 1-.957.506q-.561.192-1.278.192"/><path fill="#4b7eff" d="M453.765 115.956a.64.64 0 0 0-.123-.383q-.123-.171-.458-.314-.329-.15-.951-.274a7.4 7.4 0 0 1-1.045-.307 3.6 3.6 0 0 1-.834-.458 2 2 0 0 1-.547-.629 1.74 1.74 0 0 1-.199-.841q0-.465.199-.875.204-.41.581-.725.383-.32.929-.499a4 4 0 0 1 1.245-.184q.964 0 1.654.307.697.308 1.066.848.376.533.376 1.217h-1.969q0-.287-.123-.513a.8.8 0 0 0-.369-.362q-.246-.137-.642-.137-.328 0-.568.116a.9.9 0 0 0-.369.301.72.72 0 0 0-.123.41q0 .171.068.308.076.13.24.239.163.11.424.205.266.089.656.164.8.165 1.429.431.628.26.998.711.369.444.369 1.169 0 .492-.219.902a2.2 2.2 0 0 1-.629.718q-.41.3-.984.472a4.6 4.6 0 0 1-1.279.164q-1.032 0-1.75-.369-.711-.37-1.08-.937-.362-.574-.362-1.176h1.866q.014.404.205.65.198.246.499.355.307.11.663.11.383 0 .636-.103a.9.9 0 0 0 .383-.287.7.7 0 0 0 .137-.424m5.27-8.456V118h-1.975v-10.5zm1.313 6.877v-.144q0-.813.232-1.497.233-.69.677-1.196a3 3 0 0 1 1.094-.786q.649-.287 1.49-.287.84 0 1.497.287.656.28 1.1.786.451.506.684 1.196.232.684.232 1.497v.144a4.7 4.7 0 0 1-.232 1.497 3.5 3.5 0 0 1-.684 1.196q-.444.507-1.093.786-.65.28-1.491.281-.84 0-1.497-.281a3.1 3.1 0 0 1-1.1-.786 3.5 3.5 0 0 1-.677-1.196 4.7 4.7 0 0 1-.232-1.497m1.968-.144v.144q0 .465.082.868.083.404.26.711.185.301.479.472t.717.171q.411 0 .705-.171.294-.17.471-.472a2.3 2.3 0 0 0 .26-.711q.089-.403.089-.868v-.144q0-.45-.089-.847a2.3 2.3 0 0 0-.267-.711 1.3 1.3 0 0 0-.471-.492 1.35 1.35 0 0 0-.711-.178q-.417 0-.711.178a1.4 1.4 0 0 0-.472.492 2.4 2.4 0 0 0-.26.711 4.2 4.2 0 0 0-.082.847m9.872-3.629v1.394h-4.307v-1.394zm-3.241-1.826h1.969v6.993q0 .322.082.493a.5.5 0 0 0 .26.239q.17.061.43.061.186 0 .329-.013.15-.021.253-.041l.006 1.449a4 4 0 0 1-.547.13 4 4 0 0 1-.649.048q-.65 0-1.135-.212a1.56 1.56 0 0 1-.738-.697q-.26-.479-.26-1.258zm9.817 3.247v8.819h-1.969v-10.24h1.825zm4.682 2.195v.143q0 .807-.191 1.497a3.7 3.7 0 0 1-.547 1.203 2.6 2.6 0 0 1-.902.793 2.6 2.6 0 0 1-1.231.281q-.677 0-1.176-.274a2.44 2.44 0 0 1-.84-.765 4.4 4.4 0 0 1-.54-1.156 9 9 0 0 1-.315-1.408v-.376q.11-.807.315-1.476.204-.677.54-1.169.34-.499.834-.773.498-.273 1.169-.273.703 0 1.237.266.54.267.902.766a3.5 3.5 0 0 1 .554 1.189q.19.691.191 1.532m-1.975.143v-.143q0-.472-.082-.868a2.3 2.3 0 0 0-.246-.705q-.165-.3-.438-.464a1.2 1.2 0 0 0-.649-.171q-.403 0-.691.13a1.15 1.15 0 0 0-.458.376q-.177.246-.266.587-.09.342-.11.773v.95q.035.505.192.909.156.397.485.629.328.233.861.233.39 0 .657-.171a1.3 1.3 0 0 0 .43-.486q.171-.307.24-.711a4.7 4.7 0 0 0 .075-.868m5.168-2.146V118h-1.969v-7.396h1.852zm2.228-1.661-.034 1.825a5 5 0 0 0-.349-.034 4 4 0 0 0-.362-.021q-.417 0-.725.11-.3.102-.505.307a1.3 1.3 0 0 0-.301.499q-.096.294-.11.67l-.396-.123q0-.717.144-1.319a3.6 3.6 0 0 1 .417-1.06q.28-.451.683-.697.404-.246.923-.246.164 0 .335.027.17.02.28.062m.41 3.821v-.144q0-.813.233-1.497.232-.69.677-1.196.444-.506 1.093-.786.65-.287 1.491-.287.84 0 1.497.287.656.28 1.1.786.452.506.684 1.196.232.684.232 1.497v.144a4.7 4.7 0 0 1-.232 1.497 3.5 3.5 0 0 1-.684 1.196q-.444.507-1.094.786-.649.28-1.49.281-.84 0-1.497-.281a3.1 3.1 0 0 1-1.1-.786 3.5 3.5 0 0 1-.677-1.196 4.7 4.7 0 0 1-.233-1.497m1.969-.144v.144q0 .465.082.868.082.404.26.711.184.301.478.472.295.171.718.171.41 0 .704-.171.294-.17.472-.472.177-.307.26-.711.089-.403.089-.868v-.144q0-.45-.089-.847a2.3 2.3 0 0 0-.267-.711 1.3 1.3 0 0 0-.472-.492 1.34 1.34 0 0 0-.71-.178q-.417 0-.711.178a1.4 1.4 0 0 0-.472.492 2.3 2.3 0 0 0-.26.711 4 4 0 0 0-.082.847m8.217-2.208v8.819h-1.969v-10.24h1.825zm4.683 2.195v.143q0 .807-.192 1.497a3.7 3.7 0 0 1-.547 1.203 2.6 2.6 0 0 1-.902.793 2.6 2.6 0 0 1-1.231.281q-.677 0-1.175-.274a2.44 2.44 0 0 1-.841-.765 4.4 4.4 0 0 1-.54-1.156 9 9 0 0 1-.315-1.408v-.376q.11-.807.315-1.476.205-.677.54-1.169.342-.499.834-.773.498-.273 1.169-.273.704 0 1.237.266.54.267.902.766a3.5 3.5 0 0 1 .554 1.189q.192.691.192 1.532m-1.976.143v-.143a4.3 4.3 0 0 0-.082-.868 2.3 2.3 0 0 0-.246-.705 1.2 1.2 0 0 0-1.087-.635q-.403 0-.691.13a1.16 1.16 0 0 0-.458.376q-.177.246-.266.587a4 4 0 0 0-.11.773v.95q.034.505.192.909.157.397.485.629.328.233.862.233.389 0 .656-.171.267-.178.43-.486.171-.307.24-.711a4.7 4.7 0 0 0 .075-.868m7.198 1.593a.64.64 0 0 0-.123-.383q-.123-.171-.458-.314-.328-.15-.95-.274a7.4 7.4 0 0 1-1.046-.307 3.7 3.7 0 0 1-.834-.458 2 2 0 0 1-.547-.629 1.75 1.75 0 0 1-.198-.841q0-.465.198-.875.206-.41.581-.725.382-.32.93-.499a4 4 0 0 1 1.244-.184q.964 0 1.654.307.698.308 1.067.848.376.533.376 1.217h-1.969q0-.287-.123-.513a.8.8 0 0 0-.369-.362q-.246-.137-.643-.137-.329 0-.567.116a.87.87 0 0 0-.369.301.72.72 0 0 0-.123.41q0 .171.068.308.075.13.239.239.165.11.424.205.267.089.656.164.8.165 1.429.431.629.26.998.711.369.444.369 1.169 0 .492-.219.902a2.2 2.2 0 0 1-.628.718q-.41.3-.985.472a4.6 4.6 0 0 1-1.278.164q-1.032 0-1.75-.369-.711-.37-1.08-.937-.363-.574-.363-1.176h1.867q.013.404.205.65.198.246.499.355.307.11.663.11.382 0 .636-.103a.9.9 0 0 0 .382-.287.7.7 0 0 0 .137-.424M415.765 397.956a.64.64 0 0 0-.123-.383q-.123-.171-.458-.314-.329-.15-.951-.274a7.4 7.4 0 0 1-1.045-.307 3.6 3.6 0 0 1-.834-.458 2 2 0 0 1-.547-.629 1.74 1.74 0 0 1-.199-.841q0-.465.199-.875.204-.41.581-.725.383-.32.929-.499a4 4 0 0 1 1.245-.184q.964 0 1.654.307.697.308 1.066.848.376.534.376 1.217h-1.969q0-.287-.123-.513a.8.8 0 0 0-.369-.362q-.246-.137-.642-.137-.328 0-.568.116a.9.9 0 0 0-.369.301.72.72 0 0 0-.123.41q0 .171.068.308.076.13.24.239.163.11.424.205.266.089.656.164.8.165 1.429.431.628.26.998.711.369.444.369 1.169 0 .492-.219.902a2.2 2.2 0 0 1-.629.718q-.41.3-.984.472a4.6 4.6 0 0 1-1.279.164q-1.032 0-1.75-.369-.711-.37-1.08-.937-.362-.574-.362-1.176h1.866q.014.404.205.65.198.246.499.355.307.11.663.11.383 0 .636-.103a.9.9 0 0 0 .383-.287.7.7 0 0 0 .137-.424m6.248.643q.362 0 .642-.137.28-.144.438-.397.163-.26.171-.608h1.852q-.006.78-.417 1.388a2.9 2.9 0 0 1-1.1.95 3.44 3.44 0 0 1-1.545.342q-.862 0-1.504-.287a2.95 2.95 0 0 1-1.06-.793 3.5 3.5 0 0 1-.636-1.19 5 5 0 0 1-.211-1.463v-.198q0-.786.211-1.463.213-.684.636-1.189a2.9 2.9 0 0 1 1.06-.8q.636-.288 1.49-.287.909 0 1.593.348.69.35 1.08.998.397.643.403 1.525h-1.852a1.5 1.5 0 0 0-.158-.67 1.13 1.13 0 0 0-.423-.479 1.2 1.2 0 0 0-.677-.184q-.43 0-.704.184a1.2 1.2 0 0 0-.424.493q-.15.307-.212.704-.055.39-.055.82v.198q0 .43.055.827t.205.705q.157.307.431.485.273.178.711.178m3.93-2.222v-.144q0-.813.233-1.497.232-.69.677-1.196.444-.505 1.093-.786.65-.288 1.491-.287.84 0 1.497.287.656.28 1.1.786.451.506.684 1.196.232.684.232 1.497v.144a4.7 4.7 0 0 1-.232 1.497 3.5 3.5 0 0 1-.684 1.196q-.444.507-1.094.786-.649.28-1.49.281-.84 0-1.497-.281a3.1 3.1 0 0 1-1.1-.786 3.5 3.5 0 0 1-.677-1.196 4.7 4.7 0 0 1-.233-1.497m1.969-.144v.144q0 .465.082.868t.26.711q.184.301.478.472t.718.171q.41 0 .704-.171.294-.17.472-.472.177-.308.26-.711.089-.403.089-.868v-.144q0-.45-.089-.847a2.3 2.3 0 0 0-.267-.711 1.3 1.3 0 0 0-.472-.492 1.34 1.34 0 0 0-.71-.178q-.417 0-.711.178a1.4 1.4 0 0 0-.472.492 2.3 2.3 0 0 0-.26.711 4 4 0 0 0-.082.847m8.217-2.208v8.819h-1.969v-10.24h1.825zm4.683 2.195v.143q0 .807-.192 1.497a3.7 3.7 0 0 1-.547 1.203 2.6 2.6 0 0 1-.902.793 2.6 2.6 0 0 1-1.231.281q-.677 0-1.175-.274a2.44 2.44 0 0 1-.841-.765 4.5 4.5 0 0 1-.54-1.156 9 9 0 0 1-.315-1.408v-.376q.11-.807.315-1.476.206-.678.54-1.169.342-.499.834-.773.498-.273 1.169-.273.704 0 1.237.266.54.267.902.766a3.5 3.5 0 0 1 .554 1.189q.192.691.192 1.532m-1.976.143v-.143a4.3 4.3 0 0 0-.082-.868 2.3 2.3 0 0 0-.246-.705 1.2 1.2 0 0 0-1.087-.635q-.403 0-.691.13a1.16 1.16 0 0 0-.458.376q-.177.246-.266.587a4 4 0 0 0-.11.773v.95q.035.505.192.909.157.397.485.629.328.233.862.233.389 0 .656-.171.267-.178.43-.486.171-.308.24-.711a4.7 4.7 0 0 0 .075-.868m6.603 3.774a4.1 4.1 0 0 1-1.544-.274 3.4 3.4 0 0 1-1.163-.772 3.4 3.4 0 0 1-.724-1.142 3.8 3.8 0 0 1-.253-1.394v-.274q0-.84.239-1.538.24-.697.684-1.21a3 3 0 0 1 1.093-.786q.643-.28 1.45-.28.786 0 1.394.26t1.019.738a3.2 3.2 0 0 1 .629 1.148q.212.663.212 1.477v.82h-5.879v-1.312h3.944v-.151q0-.41-.15-.731a1.17 1.17 0 0 0-.438-.52q-.293-.19-.752-.191-.39 0-.67.171a1.3 1.3 0 0 0-.458.478q-.17.308-.26.725a4.7 4.7 0 0 0-.082.902v.274q0 .444.124.82.13.376.362.649.239.274.574.424.342.151.772.151.533 0 .992-.205.464-.213.8-.636l.957 1.039a2.9 2.9 0 0 1-.636.642 3.4 3.4 0 0 1-.957.506 4 4 0 0 1-1.279.192m8.525-1.75V389.5h1.982V400h-1.784zm-4.676-1.996v-.144q0-.848.191-1.538.192-.698.561-1.196.369-.499.909-.773a2.7 2.7 0 0 1 1.231-.273q.65 0 1.134.273.493.274.834.78.35.498.561 1.182.212.677.308 1.484v.314a8 8 0 0 1-.308 1.436 4.3 4.3 0 0 1-.561 1.162 2.45 2.45 0 0 1-.834.765q-.491.274-1.148.274-.69 0-1.23-.281a2.6 2.6 0 0 1-.903-.786 3.8 3.8 0 0 1-.554-1.189 5.5 5.5 0 0 1-.191-1.49m1.969-.144v.144q0 .458.068.854.075.396.239.704.171.301.438.472.273.164.663.164.506 0 .834-.226.328-.232.499-.635.178-.403.205-.93v-.896a3.3 3.3 0 0 0-.123-.772 1.7 1.7 0 0 0-.287-.595 1.3 1.3 0 0 0-.465-.383 1.44 1.44 0 0 0-.649-.136q-.382 0-.657.177a1.3 1.3 0 0 0-.444.472 2.5 2.5 0 0 0-.246.711q-.075.404-.075.875m13.713 1.709a.64.64 0 0 0-.123-.383q-.123-.171-.458-.314-.329-.15-.951-.274a7.4 7.4 0 0 1-1.045-.307 3.7 3.7 0 0 1-.834-.458 2 2 0 0 1-.547-.629 1.75 1.75 0 0 1-.199-.841q0-.465.199-.875.204-.41.581-.725.383-.32.929-.499a4 4 0 0 1 1.245-.184q.963 0 1.654.307.697.308 1.066.848.376.534.376 1.217h-1.968q0-.287-.124-.513a.8.8 0 0 0-.369-.362q-.246-.137-.642-.137-.328 0-.568.116a.9.9 0 0 0-.369.301.72.72 0 0 0-.123.41q0 .171.069.308.075.13.239.239.163.11.424.205.266.089.656.164.8.165 1.429.431.629.26.998.711.369.444.369 1.169 0 .492-.219.902a2.2 2.2 0 0 1-.629.718q-.41.3-.984.472a4.6 4.6 0 0 1-1.279.164q-1.032 0-1.75-.369-.711-.37-1.08-.937-.362-.574-.362-1.176h1.866q.014.404.205.65.2.246.499.355.307.11.663.11.384 0 .636-.103a.9.9 0 0 0 .383-.287.7.7 0 0 0 .137-.424m5.27-8.456V400h-1.975v-10.5zm1.313 6.877v-.144q0-.813.232-1.497.233-.69.677-1.196a3 3 0 0 1 1.094-.786q.649-.288 1.49-.287.84 0 1.497.287.655.28 1.101.786.45.506.683 1.196.233.684.233 1.497v.144a4.7 4.7 0 0 1-.233 1.497 3.5 3.5 0 0 1-.683 1.196 3 3 0 0 1-1.094.786q-.65.28-1.49.281-.841 0-1.498-.281a3.1 3.1 0 0 1-1.1-.786 3.5 3.5 0 0 1-.677-1.196 4.7 4.7 0 0 1-.232-1.497m1.968-.144v.144q0 .465.083.868.082.403.259.711.185.301.479.472t.718.171q.41 0 .704-.171.294-.17.471-.472a2.3 2.3 0 0 0 .26-.711q.089-.403.089-.868v-.144q0-.45-.089-.847a2.2 2.2 0 0 0-.266-.711 1.3 1.3 0 0 0-.472-.492 1.35 1.35 0 0 0-.711-.178q-.417 0-.711.178a1.4 1.4 0 0 0-.472.492 2.3 2.3 0 0 0-.259.711 4 4 0 0 0-.083.847m9.872-3.629v1.394h-4.307v-1.394zm-3.241-1.826h1.969v6.993q0 .322.082.493a.5.5 0 0 0 .26.239q.17.061.431.061.184 0 .328-.013.15-.021.253-.041l.006 1.449a4 4 0 0 1-.546.13 4 4 0 0 1-.65.048q-.65 0-1.135-.212a1.56 1.56 0 0 1-.738-.697q-.26-.479-.26-1.258zm7.534 5.599v-.144q0-.813.232-1.497.233-.69.677-1.196a3.04 3.04 0 0 1 1.093-.786q.65-.288 1.491-.287.84 0 1.497.287.656.28 1.1.786.451.506.684 1.196.232.684.232 1.497v.144a4.7 4.7 0 0 1-.232 1.497 3.5 3.5 0 0 1-.684 1.196q-.444.507-1.093.786-.65.28-1.491.281-.84 0-1.497-.281a3.1 3.1 0 0 1-1.1-.786 3.5 3.5 0 0 1-.677-1.196 4.7 4.7 0 0 1-.232-1.497m1.968-.144v.144q0 .465.082.868.083.403.26.711.185.301.479.472t.717.171q.411 0 .704-.171.295-.17.472-.472a2.3 2.3 0 0 0 .26-.711q.089-.403.089-.868v-.144q0-.45-.089-.847a2.3 2.3 0 0 0-.267-.711 1.3 1.3 0 0 0-.471-.492 1.35 1.35 0 0 0-.711-.178q-.417 0-.711.178a1.4 1.4 0 0 0-.472.492 2.4 2.4 0 0 0-.26.711 4.2 4.2 0 0 0-.082.847m10.623 1.996v-5.625h1.969V400h-1.852zm.219-1.517.581-.014q0 .738-.171 1.374a3.3 3.3 0 0 1-.512 1.094 2.4 2.4 0 0 1-.862.718q-.52.252-1.223.253-.54 0-.998-.151a2 2 0 0 1-.78-.485 2.35 2.35 0 0 1-.506-.855q-.177-.526-.177-1.264v-4.778h1.968v4.792q0 .328.076.553a1 1 0 0 0 .225.369.8.8 0 0 0 .335.205q.198.062.438.062.607 0 .957-.246.355-.246.499-.67.15-.43.15-.957m6.877-4.108v1.394h-4.307v-1.394zm-3.24-1.826h1.969v6.993q0 .322.082.493a.5.5 0 0 0 .259.239q.171.061.431.061.184 0 .328-.013.15-.021.253-.041l.007 1.449a4 4 0 0 1-.547.13 4 4 0 0 1-.649.048 2.8 2.8 0 0 1-1.135-.212 1.56 1.56 0 0 1-.738-.697q-.26-.479-.26-1.258zm6.439-1.278V400h-1.975v-10.5zm5.032 10.637q-.863 0-1.545-.274a3.4 3.4 0 0 1-1.163-.772 3.4 3.4 0 0 1-.724-1.142 3.8 3.8 0 0 1-.253-1.394v-.274q0-.84.239-1.538.24-.697.684-1.21a3 3 0 0 1 1.094-.786q.642-.28 1.449-.28.786 0 1.394.26.609.26 1.019.738a3.2 3.2 0 0 1 .629 1.148q.212.663.212 1.477v.82h-5.879v-1.312h3.944v-.151q0-.41-.15-.731a1.17 1.17 0 0 0-.438-.52q-.294-.19-.752-.191-.39 0-.67.171a1.3 1.3 0 0 0-.458.478q-.17.308-.259.725a4.6 4.6 0 0 0-.082.902v.274q0 .444.123.82.13.376.362.649.239.274.574.424.341.151.773.151.532 0 .991-.205.465-.213.8-.636l.957 1.039a2.9 2.9 0 0 1-.636.642 3.4 3.4 0 0 1-.957.506q-.561.192-1.278.192m7.779-7.533v1.394h-4.307v-1.394zm-3.24-1.826h1.968v6.993q0 .322.082.493.09.17.26.239.171.061.431.061.184 0 .328-.013.15-.021.253-.041l.007 1.449a4 4 0 0 1-.547.13 4 4 0 0 1-.65.048q-.65 0-1.134-.212a1.57 1.57 0 0 1-.739-.697q-.26-.479-.259-1.258z"/><path fill="#ff6464" d="M173.765 397.956a.64.64 0 0 0-.123-.383q-.123-.171-.458-.314-.328-.15-.951-.274a7.4 7.4 0 0 1-1.045-.307 3.6 3.6 0 0 1-.834-.458 2 2 0 0 1-.547-.629 1.74 1.74 0 0 1-.199-.841q0-.465.199-.875.204-.41.581-.725.383-.32.929-.499a4 4 0 0 1 1.245-.184q.964 0 1.654.307.697.308 1.066.848.376.534.376 1.217h-1.969q0-.287-.123-.513a.8.8 0 0 0-.369-.362q-.246-.137-.642-.137-.328 0-.568.116a.9.9 0 0 0-.369.301.72.72 0 0 0-.123.41q0 .171.068.308.076.13.24.239.163.11.424.205.266.089.656.164.8.165 1.429.431.628.26.998.711.369.444.369 1.169 0 .492-.219.902a2.2 2.2 0 0 1-.629.718q-.41.3-.984.472a4.6 4.6 0 0 1-1.279.164q-1.032 0-1.75-.369-.711-.37-1.08-.937-.362-.574-.362-1.176h1.866q.014.404.205.65.199.246.499.355.307.11.663.11.383 0 .636-.103a.9.9 0 0 0 .383-.287.7.7 0 0 0 .137-.424m6.248.643q.362 0 .642-.137.28-.144.438-.397.163-.26.171-.608h1.852q-.006.78-.417 1.388a2.9 2.9 0 0 1-1.1.95 3.44 3.44 0 0 1-1.545.342q-.862 0-1.504-.287a2.95 2.95 0 0 1-1.06-.793 3.5 3.5 0 0 1-.636-1.19 5 5 0 0 1-.211-1.463v-.198q0-.786.211-1.463.213-.684.636-1.189a2.9 2.9 0 0 1 1.06-.8q.635-.288 1.49-.287.909 0 1.593.348.69.35 1.08.998.397.643.403 1.525h-1.852a1.5 1.5 0 0 0-.158-.67 1.13 1.13 0 0 0-.423-.479 1.2 1.2 0 0 0-.677-.184q-.43 0-.704.184a1.2 1.2 0 0 0-.424.493q-.15.307-.212.704-.055.39-.055.82v.198q0 .43.055.827t.205.705q.157.307.431.485.273.178.711.178m3.93-2.222v-.144q0-.813.233-1.497.232-.69.677-1.196.444-.505 1.093-.786.65-.288 1.491-.287.84 0 1.497.287.656.28 1.1.786.451.506.684 1.196.232.684.232 1.497v.144a4.7 4.7 0 0 1-.232 1.497 3.5 3.5 0 0 1-.684 1.196q-.444.507-1.094.786-.649.28-1.49.281-.84 0-1.497-.281a3.1 3.1 0 0 1-1.1-.786 3.5 3.5 0 0 1-.677-1.196 4.7 4.7 0 0 1-.233-1.497m1.969-.144v.144q0 .465.082.868t.26.711q.184.301.478.472t.718.171q.41 0 .704-.171.294-.17.472-.472.177-.308.26-.711.089-.403.089-.868v-.144q0-.45-.089-.847a2.3 2.3 0 0 0-.267-.711 1.3 1.3 0 0 0-.472-.492 1.34 1.34 0 0 0-.71-.178q-.417 0-.711.178a1.4 1.4 0 0 0-.472.492 2.3 2.3 0 0 0-.26.711 4 4 0 0 0-.082.847m8.217-2.208v8.819h-1.969v-10.24h1.825zm4.683 2.195v.143q0 .807-.192 1.497a3.7 3.7 0 0 1-.547 1.203 2.6 2.6 0 0 1-.902.793 2.6 2.6 0 0 1-1.231.281q-.677 0-1.175-.274a2.44 2.44 0 0 1-.841-.765 4.5 4.5 0 0 1-.54-1.156 9 9 0 0 1-.315-1.408v-.376q.11-.807.315-1.476.206-.678.54-1.169.342-.499.834-.773.498-.273 1.169-.273.704 0 1.237.266.54.267.902.766a3.5 3.5 0 0 1 .554 1.189q.192.691.192 1.532m-1.976.143v-.143a4.3 4.3 0 0 0-.082-.868 2.3 2.3 0 0 0-.246-.705 1.2 1.2 0 0 0-1.087-.635q-.403 0-.691.13a1.16 1.16 0 0 0-.458.376q-.177.246-.266.587a4 4 0 0 0-.11.773v.95q.035.505.192.909.157.397.485.629.328.233.862.233.389 0 .656-.171.267-.178.43-.486.171-.308.24-.711a4.7 4.7 0 0 0 .075-.868m6.603 3.774a4.1 4.1 0 0 1-1.544-.274 3.4 3.4 0 0 1-1.163-.772 3.4 3.4 0 0 1-.724-1.142 3.8 3.8 0 0 1-.253-1.394v-.274q0-.84.239-1.538.24-.697.684-1.21a3 3 0 0 1 1.093-.786q.643-.28 1.45-.28.786 0 1.394.26.609.26 1.019.738a3.2 3.2 0 0 1 .629 1.148q.212.663.212 1.477v.82h-5.879v-1.312h3.944v-.151q0-.41-.15-.731a1.17 1.17 0 0 0-.438-.52q-.293-.19-.752-.191-.39 0-.67.171a1.3 1.3 0 0 0-.458.478q-.17.308-.26.725a4.7 4.7 0 0 0-.082.902v.274q0 .444.124.82.13.376.362.649.239.274.574.424.342.151.772.151.534 0 .992-.205.464-.213.8-.636l.957 1.039a2.9 2.9 0 0 1-.636.642 3.4 3.4 0 0 1-.957.506 4 4 0 0 1-1.279.192m8.525-1.75V389.5h1.982V400h-1.784zm-4.676-1.996v-.144q0-.848.191-1.538.192-.698.561-1.196.369-.499.909-.773a2.7 2.7 0 0 1 1.231-.273q.65 0 1.134.273.493.274.834.78.35.498.561 1.182.212.677.308 1.484v.314a8 8 0 0 1-.308 1.436 4.3 4.3 0 0 1-.561 1.162 2.45 2.45 0 0 1-.834.765q-.492.274-1.148.274-.69 0-1.23-.281a2.6 2.6 0 0 1-.903-.786 3.8 3.8 0 0 1-.554-1.189 5.5 5.5 0 0 1-.191-1.49m1.969-.144v.144q0 .458.068.854.075.396.239.704.171.301.438.472.273.164.663.164.506 0 .834-.226.328-.232.499-.635.178-.403.205-.93v-.896a3.3 3.3 0 0 0-.123-.772 1.7 1.7 0 0 0-.287-.595 1.3 1.3 0 0 0-.465-.383 1.44 1.44 0 0 0-.649-.136q-.382 0-.657.177a1.3 1.3 0 0 0-.444.472 2.5 2.5 0 0 0-.246.711q-.075.404-.075.875m13.713 1.709a.64.64 0 0 0-.123-.383q-.123-.171-.458-.314-.329-.15-.951-.274a7.4 7.4 0 0 1-1.045-.307 3.7 3.7 0 0 1-.834-.458 2 2 0 0 1-.547-.629 1.75 1.75 0 0 1-.199-.841q0-.465.199-.875.204-.41.581-.725.383-.32.929-.499a4 4 0 0 1 1.245-.184q.963 0 1.654.307.697.308 1.066.848.376.534.376 1.217h-1.968q0-.287-.124-.513a.8.8 0 0 0-.369-.362q-.246-.137-.642-.137-.328 0-.568.116a.9.9 0 0 0-.369.301.72.72 0 0 0-.123.41q0 .171.069.308.075.13.239.239.163.11.424.205.266.089.656.164.8.165 1.429.431.629.26.998.711.369.444.369 1.169 0 .492-.219.902a2.2 2.2 0 0 1-.629.718q-.41.3-.984.472a4.6 4.6 0 0 1-1.279.164q-1.032 0-1.75-.369-.711-.37-1.08-.937-.362-.574-.362-1.176h1.866q.014.404.205.65.2.246.499.355.308.11.663.11.384 0 .636-.103a.9.9 0 0 0 .383-.287.7.7 0 0 0 .137-.424m5.27-8.456V400h-1.975v-10.5zm1.313 6.877v-.144q0-.813.232-1.497.233-.69.677-1.196a3 3 0 0 1 1.094-.786q.649-.288 1.49-.287.84 0 1.497.287.656.28 1.101.786.45.506.683 1.196.233.684.233 1.497v.144a4.7 4.7 0 0 1-.233 1.497 3.5 3.5 0 0 1-.683 1.196 3 3 0 0 1-1.094.786q-.65.28-1.49.281-.841 0-1.498-.281a3.1 3.1 0 0 1-1.1-.786 3.5 3.5 0 0 1-.677-1.196 4.7 4.7 0 0 1-.232-1.497m1.968-.144v.144q0 .465.083.868.081.403.259.711.185.301.479.472t.718.171q.41 0 .704-.171.294-.17.471-.472a2.3 2.3 0 0 0 .26-.711q.089-.403.089-.868v-.144q0-.45-.089-.847a2.2 2.2 0 0 0-.266-.711 1.3 1.3 0 0 0-.472-.492 1.35 1.35 0 0 0-.711-.178q-.417 0-.711.178a1.4 1.4 0 0 0-.472.492 2.3 2.3 0 0 0-.259.711 4 4 0 0 0-.083.847m9.872-3.629v1.394h-4.307v-1.394zm-3.241-1.826h1.969v6.993q0 .322.082.493a.5.5 0 0 0 .26.239q.17.061.431.061.184 0 .328-.013.15-.021.253-.041l.006 1.449a4 4 0 0 1-.546.13 4 4 0 0 1-.65.048q-.65 0-1.135-.212a1.56 1.56 0 0 1-.738-.697q-.26-.479-.26-1.258zm10.904 7.821q.362 0 .642-.137.28-.144.438-.397.163-.26.171-.608h1.852q-.006.78-.417 1.388a2.9 2.9 0 0 1-1.1.95 3.44 3.44 0 0 1-1.545.342q-.862 0-1.504-.287a2.95 2.95 0 0 1-1.06-.793 3.5 3.5 0 0 1-.636-1.19 5 5 0 0 1-.211-1.463v-.198q0-.786.211-1.463.213-.684.636-1.189a2.9 2.9 0 0 1 1.06-.8q.636-.288 1.49-.287.909 0 1.593.348.69.35 1.08.998.397.643.403 1.525h-1.852a1.5 1.5 0 0 0-.158-.67 1.13 1.13 0 0 0-.423-.479 1.2 1.2 0 0 0-.677-.184q-.43 0-.704.184a1.2 1.2 0 0 0-.424.493q-.15.307-.212.704-.055.39-.055.82v.198q0 .43.055.827t.205.705q.157.307.431.485.273.178.711.178m3.93-2.222v-.144q0-.813.233-1.497.232-.69.677-1.196.444-.505 1.093-.786.65-.288 1.49-.287.841 0 1.498.287.656.28 1.1.786.452.506.684 1.196.232.684.232 1.497v.144a4.7 4.7 0 0 1-.232 1.497 3.5 3.5 0 0 1-.684 1.196q-.444.507-1.094.786-.649.28-1.49.281-.84 0-1.497-.281a3.1 3.1 0 0 1-1.1-.786 3.5 3.5 0 0 1-.677-1.196 4.7 4.7 0 0 1-.233-1.497m1.969-.144v.144q0 .465.082.868t.26.711q.184.301.478.472.295.171.718.171.41 0 .704-.171.294-.17.472-.472.177-.308.26-.711.089-.403.089-.868v-.144q0-.45-.089-.847a2.3 2.3 0 0 0-.267-.711 1.3 1.3 0 0 0-.472-.492 1.35 1.35 0 0 0-.711-.178q-.417 0-.71.178a1.4 1.4 0 0 0-.472.492 2.3 2.3 0 0 0-.26.711 4 4 0 0 0-.082.847m8.176-2.05V400h-1.969v-7.396h1.846zm-.287 1.859h-.533q0-.82.211-1.477.213-.663.595-1.127.382-.472.909-.718a2.7 2.7 0 0 1 1.19-.253q.52 0 .95.15t.738.479q.315.327.479.868.171.54.171 1.319V400h-1.983v-4.724q0-.492-.136-.765a.77.77 0 0 0-.404-.383 1.6 1.6 0 0 0-.642-.116q-.397 0-.691.157a1.4 1.4 0 0 0-.478.437 2.1 2.1 0 0 0-.281.643q-.095.369-.095.793m9.83-3.438v1.394h-4.307v-1.394zm-3.24-1.826h1.968v6.993q0 .322.082.493.09.17.26.239.171.061.431.061.184 0 .328-.013.15-.021.253-.041l.007 1.449a4 4 0 0 1-.547.13 4 4 0 0 1-.65.048q-.65 0-1.134-.212a1.57 1.57 0 0 1-.739-.697q-.26-.479-.259-1.258zm7.765 9.359a4.1 4.1 0 0 1-1.545-.274 3.4 3.4 0 0 1-1.162-.772 3.4 3.4 0 0 1-.724-1.142 3.8 3.8 0 0 1-.253-1.394v-.274q0-.84.239-1.538.238-.697.684-1.21a3 3 0 0 1 1.093-.786q.643-.28 1.449-.28.787 0 1.395.26.609.26 1.019.738.417.479.628 1.148.213.663.212 1.477v.82h-5.879v-1.312h3.945v-.151q0-.41-.151-.731a1.16 1.16 0 0 0-.437-.52q-.294-.19-.752-.191-.39 0-.67.171a1.3 1.3 0 0 0-.458.478q-.17.308-.26.725a4.7 4.7 0 0 0-.082.902v.274q0 .444.123.82.13.376.363.649.238.274.574.424.342.151.772.151.534 0 .991-.205.465-.213.8-.636l.957 1.039a3 3 0 0 1-.635.642 3.4 3.4 0 0 1-.957.506 4 4 0 0 1-1.279.192m6.084-5.954V400h-1.969v-7.396h1.846zm-.287 1.859h-.533q0-.82.212-1.477.211-.663.595-1.127.382-.472.909-.718a2.7 2.7 0 0 1 1.189-.253q.52 0 .95.15.431.15.739.479.314.327.478.868.171.54.171 1.319V400h-1.982v-4.724q0-.492-.137-.765a.77.77 0 0 0-.403-.383 1.6 1.6 0 0 0-.643-.116 1.44 1.44 0 0 0-.69.157 1.4 1.4 0 0 0-.479.437 2.1 2.1 0 0 0-.28.643q-.096.369-.096.793m9.83-3.438v1.394h-4.306v-1.394zm-3.24-1.826h1.969v6.993q0 .322.082.493a.5.5 0 0 0 .259.239q.171.061.431.061.185 0 .328-.013.151-.021.253-.041l.007 1.449a4 4 0 0 1-.547.13 4 4 0 0 1-.649.048q-.65 0-1.135-.212a1.56 1.56 0 0 1-.738-.697q-.26-.479-.26-1.258z"/><circle cx="156.5" cy="395.5" r="7.5" fill="#ff6464"/><circle cx="398.5" cy="395.5" r="7.5" fill="#4b7eff"/><path fill="#4b7eff" d="m399 265 5.774-10h-11.548zm-1-45v36h2v-36z"/><path stroke="#4b7eff" stroke-width="2" d="M479 220h-81M512 123h-63M481 123l-1 97"/><path fill="#8e67cd" d="M151.734 239.025v8.819h-1.968v-10.24h1.825zm4.683 2.195v.143q0 .807-.191 1.497a3.7 3.7 0 0 1-.547 1.203 2.6 2.6 0 0 1-.903.793 2.6 2.6 0 0 1-1.23.281q-.676 0-1.176-.274a2.44 2.44 0 0 1-.841-.765 4.5 4.5 0 0 1-.54-1.156 9 9 0 0 1-.314-1.408v-.376a9.4 9.4 0 0 1 .314-1.476q.206-.678.54-1.169.342-.499.834-.773.5-.273 1.169-.273.705 0 1.238.266.54.267.902.766a3.5 3.5 0 0 1 .554 1.189q.19.691.191 1.532m-1.976.143v-.143a4.3 4.3 0 0 0-.082-.868 2.3 2.3 0 0 0-.246-.705 1.2 1.2 0 0 0-.437-.464 1.2 1.2 0 0 0-.65-.171q-.404 0-.69.13-.28.13-.458.376a1.8 1.8 0 0 0-.267.587 4 4 0 0 0-.109.773v.95q.035.506.191.909.157.397.486.629.328.233.861.233.39 0 .656-.171.267-.178.431-.486.171-.308.239-.711a4.7 4.7 0 0 0 .075-.868m7.192 1.969v-3.295q0-.356-.116-.608a.87.87 0 0 0-.363-.404q-.239-.143-.622-.143-.328 0-.567.116a.8.8 0 0 0-.369.321.9.9 0 0 0-.13.486h-1.969q0-.472.219-.896.219-.423.636-.745a3.1 3.1 0 0 1 .991-.513q.58-.184 1.299-.184.86 0 1.531.287.669.287 1.053.861.389.575.389 1.436v3.165q0 .608.075.998.076.382.219.67V245h-1.989a2.8 2.8 0 0 1-.219-.752 6 6 0 0 1-.068-.916m.26-2.837.013 1.114h-1.1q-.39 0-.677.089a1.3 1.3 0 0 0-.472.253 1 1 0 0 0-.273.369 1.3 1.3 0 0 0-.082.465q0 .253.116.458a.83.83 0 0 0 .335.315q.219.11.513.109.444 0 .772-.178a1.4 1.4 0 0 0 .506-.437q.185-.26.191-.492l.52.834q-.11.28-.301.581-.184.3-.472.567a2.4 2.4 0 0 1-.69.431 2.5 2.5 0 0 1-.957.164q-.704 0-1.278-.281a2.3 2.3 0 0 1-.903-.786 2.07 2.07 0 0 1-.328-1.148q0-.581.219-1.032t.643-.759q.43-.315 1.073-.472a6 6 0 0 1 1.49-.164zm5.209-1.278V245h-1.969v-7.396h1.852zm2.228-1.661-.034 1.825a5 5 0 0 0-.349-.034 4 4 0 0 0-.362-.021q-.417 0-.725.11-.3.102-.506.307a1.34 1.34 0 0 0-.3.499 2.4 2.4 0 0 0-.11.67l-.396-.123q0-.717.143-1.319.144-.609.417-1.06.28-.451.684-.697.403-.246.923-.246.164 0 .335.027.17.02.28.062m4.197 7.581a4.1 4.1 0 0 1-1.545-.274 3.4 3.4 0 0 1-1.162-.772 3.4 3.4 0 0 1-.724-1.142 3.8 3.8 0 0 1-.253-1.394v-.274q0-.84.239-1.538.24-.697.684-1.21a3 3 0 0 1 1.093-.786q.643-.28 1.45-.28.786 0 1.394.26.609.26 1.019.738a3.2 3.2 0 0 1 .629 1.148q.211.663.211 1.477v.82h-5.878v-1.312h3.944v-.151q0-.41-.15-.731a1.17 1.17 0 0 0-.438-.52q-.294-.19-.752-.191-.39 0-.67.171a1.3 1.3 0 0 0-.458.478q-.17.308-.26.725a4.7 4.7 0 0 0-.082.902v.274q0 .444.123.82.13.376.363.649.239.274.574.424.342.151.772.151.534 0 .992-.205.464-.213.799-.636l.957 1.039a2.9 2.9 0 0 1-.635.642 3.4 3.4 0 0 1-.957.506 4 4 0 0 1-1.279.192m6.084-5.954V245h-1.968v-7.396h1.845zm-.287 1.859h-.533q0-.82.212-1.477.211-.663.595-1.127.382-.472.909-.718a2.7 2.7 0 0 1 1.189-.253q.52 0 .95.15.432.15.739.479.314.327.478.868.171.54.171 1.319V245h-1.982v-4.724q0-.492-.137-.765a.77.77 0 0 0-.403-.383 1.6 1.6 0 0 0-.643-.116 1.44 1.44 0 0 0-.69.157 1.4 1.4 0 0 0-.479.437 2.1 2.1 0 0 0-.28.643q-.096.369-.096.793m9.83-3.438v1.394h-4.306v-1.394zm-3.24-1.826h1.969v6.993q0 .322.082.493a.5.5 0 0 0 .26.239q.17.061.43.061.185 0 .328-.013.151-.021.253-.041l.007 1.449a4 4 0 0 1-.547.13 4 4 0 0 1-.649.048q-.65 0-1.135-.212a1.56 1.56 0 0 1-.738-.697q-.26-.479-.26-1.258zm11.471 1.826v1.394h-4.307v-1.394zm-3.24-1.826h1.968v6.993q0 .322.082.493.09.17.26.239.171.061.431.061.184 0 .328-.013.15-.021.253-.041l.007 1.449a4 4 0 0 1-.547.13 4 4 0 0 1-.65.048q-.65 0-1.134-.212a1.56 1.56 0 0 1-.739-.697q-.26-.479-.259-1.258zm7.765 9.359a4.1 4.1 0 0 1-1.545-.274 3.4 3.4 0 0 1-1.162-.772 3.4 3.4 0 0 1-.724-1.142 3.8 3.8 0 0 1-.253-1.394v-.274q0-.84.239-1.538.239-.697.683-1.21a3 3 0 0 1 1.094-.786q.643-.28 1.449-.28.786 0 1.395.26t1.018.738q.417.479.629 1.148.213.663.212 1.477v.82h-5.879v-1.312h3.945v-.151q0-.41-.151-.731a1.16 1.16 0 0 0-.437-.52q-.294-.19-.752-.191-.39 0-.67.171-.28.17-.458.478a2.6 2.6 0 0 0-.26.725 4.7 4.7 0 0 0-.082.902v.274q0 .444.123.82.13.376.363.649.238.274.574.424.342.151.772.151.534 0 .991-.205.465-.213.8-.636l.957 1.039a3 3 0 0 1-.635.642 3.4 3.4 0 0 1-.958.506 4 4 0 0 1-1.278.192m6.125-6.002V245h-1.975v-7.396h1.852zm-.273 1.907h-.547q0-.773.184-1.422.192-.656.554-1.135a2.55 2.55 0 0 1 .909-.752q.54-.266 1.251-.266.492 0 .903.15.41.144.704.458.3.308.465.807.164.492.164 1.182V245h-1.969v-4.717q0-.506-.137-.779a.78.78 0 0 0-.389-.383 1.5 1.5 0 0 0-.595-.109 1.4 1.4 0 0 0-.67.157 1.34 1.34 0 0 0-.465.437 2 2 0 0 0-.273.643q-.09.369-.089.793m4.402-.226-.704.089q0-.725.178-1.346.184-.623.54-1.094.362-.472.895-.732a2.7 2.7 0 0 1 1.231-.266q.533 0 .97.157.438.15.746.485.314.328.478.862.171.532.171 1.305V245h-1.976v-4.724q0-.512-.136-.779a.72.72 0 0 0-.383-.376 1.4 1.4 0 0 0-.588-.109 1.3 1.3 0 0 0-.622.143 1.2 1.2 0 0 0-.444.383 1.7 1.7 0 0 0-.267.574 2.7 2.7 0 0 0-.089.704m7.998-1.791v8.819h-1.969v-10.24h1.826zm4.683 2.195v.143q0 .807-.192 1.497a3.7 3.7 0 0 1-.547 1.203 2.6 2.6 0 0 1-.902.793 2.6 2.6 0 0 1-1.23.281q-.677 0-1.176-.274a2.44 2.44 0 0 1-.841-.765 4.5 4.5 0 0 1-.54-1.156 9 9 0 0 1-.314-1.408v-.376q.108-.807.314-1.476.206-.678.54-1.169.342-.499.834-.773.499-.273 1.169-.273.704 0 1.237.266.54.267.903.766.369.5.553 1.189.192.691.192 1.532m-1.976.143v-.143a4.3 4.3 0 0 0-.082-.868 2.3 2.3 0 0 0-.246-.705 1.181 1.181 0 0 0-1.087-.635q-.404 0-.69.13-.28.13-.458.376a1.7 1.7 0 0 0-.267.587 3.8 3.8 0 0 0-.109.773v.95q.033.506.191.909.158.397.485.629.328.233.862.233.39 0 .656-.171.266-.178.431-.486.17-.308.239-.711a4.7 4.7 0 0 0 .075-.868m5.277-6.863V245h-1.975v-10.5zm5.62 8.832v-3.295q0-.356-.117-.608a.87.87 0 0 0-.362-.404q-.239-.143-.622-.143-.328 0-.567.116a.8.8 0 0 0-.369.321.9.9 0 0 0-.13.486h-1.969q0-.472.219-.896.218-.423.635-.745.417-.328.992-.513.58-.184 1.298-.184.862 0 1.532.287t1.052.861q.39.575.39 1.436v3.165q0 .608.075.998.075.382.219.67V245h-1.989a2.8 2.8 0 0 1-.219-.752 6 6 0 0 1-.068-.916m.259-2.837.014 1.114h-1.101q-.389 0-.676.089a1.3 1.3 0 0 0-.472.253 1 1 0 0 0-.273.369 1.3 1.3 0 0 0-.082.465q0 .253.116.458a.83.83 0 0 0 .335.315q.219.11.512.109.445 0 .773-.178a1.4 1.4 0 0 0 .506-.437q.185-.26.191-.492l.52.834q-.11.28-.301.581-.184.3-.472.567a2.4 2.4 0 0 1-.69.431 2.5 2.5 0 0 1-.957.164q-.705 0-1.279-.281a2.3 2.3 0 0 1-.902-.786 2.06 2.06 0 0 1-.328-1.148q0-.581.219-1.032t.642-.759q.43-.315 1.074-.472a6 6 0 0 1 1.49-.164zm6.864-2.891v1.394h-4.307v-1.394zm-3.241-1.826h1.969v6.993q0 .322.082.493a.5.5 0 0 0 .26.239q.17.061.431.061.184 0 .328-.013.15-.021.253-.041l.007 1.449a4 4 0 0 1-.547.13 4 4 0 0 1-.65.048q-.65 0-1.135-.212a1.56 1.56 0 0 1-.738-.697q-.26-.479-.26-1.258zm7.766 9.359a4.1 4.1 0 0 1-1.545-.274 3.4 3.4 0 0 1-1.162-.772 3.45 3.45 0 0 1-.725-1.142 3.9 3.9 0 0 1-.253-1.394v-.274q0-.84.24-1.538.239-.697.683-1.21a3 3 0 0 1 1.094-.786q.643-.28 1.449-.28.786 0 1.395.26a2.7 2.7 0 0 1 1.018.738q.417.479.629 1.148.213.663.212 1.477v.82h-5.879v-1.312h3.945v-.151q0-.41-.151-.731a1.16 1.16 0 0 0-.437-.52q-.294-.19-.752-.191-.39 0-.67.171-.28.17-.458.478a2.6 2.6 0 0 0-.26.725 4.6 4.6 0 0 0-.082.902v.274q0 .444.123.82.13.376.362.649.24.274.575.424.342.151.772.151.534 0 .991-.205.465-.213.8-.636l.957 1.039a2.9 2.9 0 0 1-.636.642 3.4 3.4 0 0 1-.957.506 4 4 0 0 1-1.278.192"/></g><defs><clipPath id="a"><path fill="#fff" d="M0 0h678v425H0z"/></clipPath></defs></svg>