<svg xmlns="http://www.w3.org/2000/svg" width="200" height="200" class="icon" viewBox="0 0 1024 1024"><path fill="#009a61" d="M260.813 594.762q30.763-26.568 30.763-69.45 0-34.491-20.276-56.05c-13.516-14.37-31.542-22.875-54.068-25.52v-.932q27.033-8.856 42.416-29.83c10.255-13.984 15.382-30.45 15.382-49.409q-.002-34.023-25.403-55.233c-16.937-14.136-39.853-21.209-68.751-21.209H85.788V621.33h97.417q46.845 0 77.608-26.568M124.94 322.553h44.98q64.09.001 64.09 48.709c0 18.8-6.14 33.367-18.411 43.698q-18.413 15.5-50.573 15.499h-40.086zm0 143.096h44.98q80.635.001 80.637 59.197 0 28.435-18.995 44.747t-53.486 16.313h-53.136zm229.327-179.21h38.22V621.33h-38.22zM656.19 587.43q32.279-34.372 32.279-91.474c0-38.84-9.985-69.218-29.947-91.125q-29.95-32.86-83.318-32.86-55.932.002-88.793 33.792-32.86 33.794-32.86 93.922c0 36.822 10.523 66.384 31.577 88.677q31.577 33.445 84.484 33.444 54.299.001 86.578-34.376m-163.487-89.143q-.002-44.047 21.44-69.101 21.44-25.052 58.264-25.054 37.057 0 56.983 24.238 19.927 24.24 19.927 68.984 0 44.283-19.927 68.286-19.925 24.005-56.983 24.004-36.356 0-58.03-24.47-21.675-24.469-21.674-66.887m460.516 98.815V377.565h-38.221v33.094h-.931c-15.54-25.79-39.386-38.687-71.549-38.687q-50.81.001-80.053 35.89-29.25 35.891-29.25 96.718c0 35.738 9.05 64.206 27.152 85.415q27.146 31.812 71.664 31.812 54.766.001 82.036-45.68h.93v26.103c0 24.48-4.531 44.14-13.553 59.026l-19.323 20.442c-.276.187-.546.38-.826.563-6.044 3.734-48.824 27.7-110.058-.474-66.173-30.446-160.318-32.94-183.513 46.76l27.289 21.03s0-37.52 42.296-52.528c31.419-11.15 65.623 2.943 92.686 14.557v.16c7.768 3.94 16.009 7.17 24.701 9.722l.431.14c1.216.381 2.526.736 3.91 1.066 14.816 3.891 30.92 5.854 48.331 5.854q125.852-.002 125.851-131.445m-58.38-30.297c-13.44 15.23-30.88 22.84-52.32 22.84-21.132 0-38.105-7.96-50.924-23.89q-19.226-23.886-19.227-63.74-.002-46.376 20.043-72.13 20.04-25.751 55.467-25.753 28.667 0 47.893 20.276 19.227 20.277 19.227 48.708v35.192q0 35.658-20.16 58.497"/></svg>