<svg xmlns="http://www.w3.org/2000/svg" width="200" height="200" class="icon" viewBox="0 0 1024 1024"><path fill="#2ea7e0" d="M825.2 764.9H525.4c-14.4 0-26-11.6-26-26 0 14.4-11.6 26-26 26H173.6c-14.4 0-26-11.6-26-26v37c0 14.4 11.6 26 26 26h299.8c14.4 0 26-11.6 26-26 0 14.4 11.6 26 26 26h299.8c14.4 0 26-11.6 26-26v-37c0 14.3-11.6 26-26 26"/><path fill="#f7f8f8" d="M825.2 279.9H525.4c-14.4 0-26 11.6-26 26 0-14.4-11.6-26-26-26H173.6c-14.4 0-26 11.6-26 26v10c0-14.4 11.6-26 26-26h299.8c14.4 0 26 11.6 26 26 0-14.4 11.6-26 26-26h299.8c14.4 0 26 11.6 26 26v-10c0-14.4-11.6-26-26-26M643.5 667.3l-9.3 28.1c-4.5-2.1-7.3-7.3-5.5-12.7l14.8-44.7c.7-2.2 1.9-4.1 3.5-5.7l204.2-204.2v-85.2c0-14.4-11.6-26-26-26H525.4c-14.4 0-26 11.6-26 26 0-14.4-11.6-26-26-26H173.6c-14.4 0-26 11.6-26 26v396c0 14.4 11.6 26 26 26h299.8c14.4 0 26-11.6 26-26 0 14.4 11.6 26 26 26h299.8c14.4 0 26-11.6 26-26V457.4L647 661.6c-1.6 1.6-2.8 3.5-3.5 5.7"/><path fill="#f7f8f8" d="m641.8 695.8 22.7-7.5 22.1-7.3c2.2-.7 4.1-1.9 5.7-3.5l209.2-209.2-12.6-12.6-7.7-7.7c-5.7-5.7-14.9-5.7-20.5 0L647 661.6c-1.6 1.6-2.8 3.6-3.5 5.7l-9.3 28.1c2.3 1 4.9 1.3 7.6.4"/><path fill="#3e3a39" d="M254.9 542a16 16 0 1 0 32 0 16 16 0 1 0-32 0"/><path fill="#ef6676" d="M222.9 568.7a16 16 0 1 0 32 0 16 16 0 1 0-32 0M394.6 568.7a16 16 0 1 0 32 0 16 16 0 1 0-32 0"/><path fill="#3e3a39" d="M362.6 542a16 16 0 1 0 32 0 16 16 0 1 0-32 0M350 552.7h-50.6c-3.9 0-6.7 3.7-5.8 7.5 1.8 7.5 6.3 14 12.3 18.4 5.3 3.8 11.8 6.1 18.8 6.1s13.5-2.3 18.8-6.1c6.1-4.4 10.5-10.9 12.3-18.4 1-3.8-1.9-7.5-5.8-7.5"/><path fill="#e4847f" d="M324.7 568.7c-7 0-13.3 3.2-17.5 8.2-.8.9-.5 2.3.5 3 4.9 3.1 10.7 4.9 17 4.9 6.2 0 12.1-1.8 17-4.9 1-.6 1.3-2 .5-3-4.2-5-10.5-8.2-17.5-8.2"/><path fill="#2ea7e0" d="M692.3 677.5c-1.6 1.6-3.6 2.8-5.7 3.5l-22.1 7.3c1.3 5.6 7.2 9.5 13.3 7.5l44.7-14.8c2.2-.7 4.1-1.9 5.7-3.5l122.9-122.9v-36z"/><path fill="#036eb8" d="M215 852.1h-8.4v-8.4c0-2.1-1.7-3.8-3.8-3.8s-3.8 1.7-3.8 3.8v8.4h-8.4c-2.1 0-3.8 1.7-3.8 3.8s1.7 3.8 3.8 3.8h8.4v8.4c0 2.1 1.7 3.8 3.8 3.8s3.8-1.7 3.8-3.8v-8.4h8.4c2.1 0 3.8-1.7 3.8-3.8s-1.7-3.8-3.8-3.8m-27.2-594.9c2.4 2.4 6.3 2.4 8.8 0l9.6-9.6 9.6 9.6c2.4 2.4 6.3 2.4 8.8 0 2.4-2.4 2.4-6.3 0-8.8l-9.6-9.6 9.6-9.6c2.4-2.4 2.4-6.3 0-8.8-2.4-2.4-6.3-2.4-8.8 0l-9.6 9.6-9.6-9.6c-2.4-2.4-6.3-2.4-8.8 0-2.4 2.4-2.4 6.3 0 8.8l9.6 9.6-9.6 9.6c-2.4 2.4-2.4 6.4 0 8.8m568.4 587.7c-11.6 0-21 9.4-21 21s9.4 21 21 21 21-9.4 21-21-9.4-21-21-21m0 32c-6.1 0-11-4.9-11-11s4.9-11 11-11 11 4.9 11 11-4.9 11-11 11m95.4-693.3c2.3 0 4.2-1.9 4.2-4.2V166c0-2.3-1.9-4.2-4.2-4.2s-4.2 1.9-4.2 4.2v13.4c0 2.3 1.9 4.2 4.2 4.2m0 40.1c2.3 0 4.2-1.9 4.2-4.2v-13.4c0-2.3-1.9-4.2-4.2-4.2s-4.2 1.9-4.2 4.2v13.4c0 2.3 1.9 4.2 4.2 4.2m15.9-9.1c.8.8 1.9 1.2 3 1.2s2.1-.4 3-1.2c1.6-1.6 1.6-4.3 0-5.9l-9.4-9.4c-1.6-1.6-4.3-1.6-5.9 0s-1.6 4.3 0 5.9zm-28.3-28.3c.8.8 1.9 1.2 3 1.2s2.1-.4 3-1.2c1.6-1.6 1.6-4.3 0-5.9l-9.4-9.4c-1.6-1.6-4.3-1.6-5.9 0s-1.6 4.3 0 5.9zm0 13-9.4 9.4c-1.6 1.6-1.6 4.3 0 5.9.8.8 1.9 1.2 3 1.2s2.1-.4 3-1.2l9.4-9.4c1.6-1.6 1.6-4.3 0-5.9-1.7-1.7-4.4-1.7-6 0m21.9-11.8q1.65 0 3-1.2l9.4-9.4c1.6-1.6 1.6-4.3 0-5.9s-4.3-1.6-5.9 0l-9.4 9.4c-1.6 1.6-1.6 4.3 0 5.9.7.8 1.8 1.2 2.9 1.2m-.3 5.3c0 2.3 1.9 4.2 4.2 4.2h13.4c2.3 0 4.2-1.9 4.2-4.2s-1.9-4.2-4.2-4.2H865c-2.3 0-4.2 1.9-4.2 4.2m-35.9 4.1h13.4c2.3 0 4.2-1.9 4.2-4.2s-1.9-4.2-4.2-4.2h-13.4c-2.3 0-4.2 1.9-4.2 4.2 0 2.4 1.9 4.2 4.2 4.2M129.9 895.7a8.9 8.9 0 1 0 17.8 0 8.9 8.9 0 1 0-17.8 0M862.7 913.5a8.9 8.9 0 1 0 17.8 0 8.9 8.9 0 1 0-17.8 0M284.5 210.8a8.9 8.9 0 1 0 17.8 0 8.9 8.9 0 1 0-17.8 0M147.6 437.7c5.5 0 10-4.5 10-10v-20.6c0-5.5-4.5-10-10-10s-10 4.5-10 10v20.6c0 5.5 4.5 10 10 10m0-52.7c5.5 0 10-4.5 10-10v-59.1c0-8.8 7.2-16 16-16h299.8c8.8 0 16 7.2 16 16v361.6c0 5.5 4.5 10 10 10s10-4.5 10-10V315.9c0-8.8 7.2-16 16-16h299.8c8.8 0 16 7.2 16 16v77.5c0 5.5 4.5 10 10 10s10-4.5 10-10v-77.5c0-19.9-16.1-36-36-36H525.4c-10.2 0-19.4 4.3-26 11.1-6.6-6.9-15.8-11.1-26-11.1H173.6c-19.9 0-36 16.1-36 36V375c0 5.5 4.5 10 10 10"/><path fill="#036eb8" d="M851.2 717.9c-5.5 0-10 4.5-10 10v48c0 8.8-7.2 16-16 16H525.4c-8.8 0-16-7.2-16-16v-67.6c0-5.5-4.5-10-10-10s-10 4.5-10 10v67.6c0 8.8-7.2 16-16 16H173.6c-8.8 0-16-7.2-16-16v-317c0-5.5-4.5-10-10-10s-10 4.5-10 10v317c0 19.9 16.1 36 36 36h299.8c10.2 0 19.4-4.3 26-11.1 6.6 6.9 15.8 11.1 26 11.1h299.8c19.9 0 36-16.1 36-36v-48c0-5.6-4.5-10-10-10m0-176.5c-5.5 0-10 4.5-10 10v141.5c0 5.5 4.5 10 10 10s10-4.5 10-10V551.4c0-5.6-4.5-10-10-10m-53.5-134.3c0-5.5-4.5-10-10-10H637.1c-5.5 0-10 4.5-10 10s4.5 10 10 10h150.6c5.6 0 10-4.5 10-10m-234.8 10h47.7c5.5 0 10-4.5 10-10s-4.5-10-10-10h-47.7c-5.5 0-10 4.5-10 10s4.5 10 10 10"/><path fill="#036eb8" d="M562.9 589.9c-5.5 0-10 4.5-10 10s4.5 10 10 10h65.3c5.5 0 10-4.5 10-10s-4.5-10-10-10zm-350.6 96.4c-5.5 0-10 4.5-10 10s4.5 10 10 10h224.8c5.5 0 10-4.5 10-10s-4.5-10-10-10zm522.9-182.1c0-5.5-4.5-10-10-10H562.9c-5.5 0-10 4.5-10 10s4.5 10 10 10h162.3c5.5 0 10-4.5 10-10m177.7-67.9-24.7-24.7c-9.6-9.6-25.1-9.6-34.7 0l-9 9L640 625.2c-2.7 2.7-4.7 6-5.9 9.6l-14.8 44.7c-.7 2.2-1.1 4.5-1 6.7H563c-5.5 0-10 4.5-10 10s4.5 10 10 10h64c1.7 0 3.4-.4 4.8-1.2q3.3 1.2 6.9 1.2c2.1 0 4.3-.3 6.4-1l44.7-14.8c3.6-1.2 6.9-3.2 9.6-5.9l159.3-159.3 54.3-54.3c9.5-9.5 9.5-25-.1-34.6m-274.2 250c-.1 0-.2.1-.4-.1s-.1-.2-.1-.4l12-36.3 24.7 24.7zm260.1-229.5-54.3 54.3-152.2 152.3-31.1-31.1 197.5-197.5 9-9c1.8-1.8 4.6-1.8 6.4 0l24.7 24.7c1.8 1.7 1.8 4.6 0 6.3"/></svg>