<svg xmlns="http://www.w3.org/2000/svg" id="图层_1" viewBox="0 0 1395.59 1553.31"><defs><clipPath id="clip-path" transform="translate(-101.5 -22.44)"><path id="SVGID" d="M101.73 22.33h1396.55v1555.33H101.73z" style="fill:none"/></clipPath><style>.cls-2{clip-path:url(#clip-path)}.cls-3{fill:#fddd44}.cls-4{fill:#fff}.cls-5{fill:#fca863}.cls-6{fill:#fc9743}.cls-7{fill:#5169cc}.cls-8{fill:#a8d3d8}.cls-9{fill:#ddebf0}.cls-10{fill:#28d1b3}.cls-11{fill:#f8c52d}.cls-12{fill:#3351c5}.cls-14{fill:#fcdbbe}.cls-15{fill:#fcc99f}.cls-16{fill:#685e67}</style></defs><g class="cls-2"><path d="M982.23 280.95q-18.9 17.1-45.46 9.09C864.41 83.68 669.5-81.44 513.14 189.86q-29.26 50.93-58.18 101.63l-45.46-10.54c36.73-70 73.28-149.09 127.82-201.82 200.91-194.54 368.72 7.1 444.91 201.82m0 0" class="cls-3"/><path d="m936.77 290.04-109.09 33.28q-22.71-19.81-28-50.73l-5.08-76.18c-.36-6.77-2.37-12.5-5.65-16q-31.63-34.36-84-20.73l-66.55 3.82q-37.08 2.17-37.46 43.09l-.54 69.82q-6.55 31.27-31.82 46.91l-113.62-31.83q28.9-50.71 58.18-101.63C669.5-81.44 864.41 83.68 936.77 290.04m0 0" class="cls-4"/></g><path d="m704.96 159.68 13.63 116.73a285.6 285.6 0 0 1-118.18 0l.54-69.82q.36-40.92 37.46-43.09Zm0 0" class="cls-5"/><g class="cls-2"><path d="M704.96 159.68q52.35-13.63 84 20.73c3.28 3.5 5.29 9.23 5.65 16l5.07 76.15q-25.44 14.57-66.54 4.72l-14.55-.9Zm0 0" class="cls-6"/><path d="m409.5 280.95 45.46 10.54 113.63 31.83q28.17 15.24 17.46 49.24l-140.18-35.61-54.55-9.09q-129.63-13.26-190.36 0C-40.86 380.95 54.42 606.77 159.5 736.95q-8.55 25.47-29.64 34.18Q40.6 666.23 20.04 589.49c-80.35-299.08 173.1-329.26 389.46-308.54m0 0" class="cls-7"/></g><path d="M799.68 272.56q5.27 30.92 28 50.73-28.54 23.44 0 45.45-24 22.91-13.64 53.09l-13.63 1.45-63.64-10.54-3.63-135.46q41.1 9.83 66.54-4.72m0 0" class="cls-8"/><g class="cls-2"><path d="M600.41 276.41a285.25 285.25 0 0 0 118.18 0l14.55.9 3.63 135.46-136.36 6-4.55-1.46-9.81-44.75q10.71-34-17.46-49.27 25.29-15.63 31.82-46.91Zm0 0" class="cls-9"/><path d="M1268.58 780.94q-29.64 5.83-28 37.1a380.7 380.7 0 0 0-100 100l-3.82-.73a105.1 105.1 0 0 0-40.91-30.36l109.82-109.82q22.9-14.54 26.55-40.18c100-97.82 207.44-344.73-4.37-401.81q-109.08-29.26-232-2.73l-36.35 4.54-131.82 31.82q-28.54-22 0-45.45l109.09-33.28q26.54 8 45.46-9.09c397.81-46.18 535.45 170.36 286.35 500Zm0 0" class="cls-10"/><path d="m391.32 327.86-23.45 117.46-44.73.72c-45.82-26.36-103.09-79.64-133.63 6.91q-30 35.1-42.55 81.81c-4.45 16.76 3.2 34.93 18.91 44.91l61.82 39.1 18.9 35.63-87.09 82.55c-105.09-130.18-200.37-356 41.45-409.09q60.74-13.26 190.36 0Zm840.91 409.09-78-82.55 14.37-31.09c46.18-30.36 134.72-66.36 58.36-137.09q-12.9-38.18-43.09-69.08c-11.65-11.95-29.23-14.81-42.55-6.91l-68.18 40.33q-25.85 12.39-46.19-.72a311.8 311.8 0 0 0-31.08-117.45q122.91-26.55 232 2.73c211.81 57.08 104.36 304 4.37 401.81Zm0 0" class="cls-4"/></g><path d="m391.32 327.86 54.55 9.09-40.91 134.91q-27.09-2-37.09-26.54Zm604.55 4.55a311.8 311.8 0 0 1 31.08 117.45q-10.54 25.09-34.91 18.18L959.5 336.95Zm0 0" class="cls-3"/><path d="m445.87 336.95 140.18 35.61 9.81 44.72-145.45 78.76q-28.17-2.54-45.45-24.18Zm513.63 0 32.54 131.09q-12.74 26.52-41.63 32.52l-136.37-78.7q-10.37-30.17 13.64-53.09Zm0 0" class="cls-4"/><path d="m323.14 446.04-23.45 53.81-4.55 9.1c-5.95 4.72-12.85 5.71-20.72 2.91q-52-18-84.91-58.91c30.54-86.55 87.81-33.27 133.63-6.91m0 0" class="cls-6"/><path d="M1226.95 486.22a234.2 234.2 0 0 0-90.91 72.73l-3.82-.73a398.5 398.5 0 0 1-59.08-107.66l68.17-40.35c13.32-7.9 30.9-5 42.55 6.91q30.2 30.92 43.09 69.08Zm0 0" class="cls-5"/><path d="m736.77 412.77 63.64 10.54.73 40.19a431.5 431.5 0 0 0-.73 140.18l-72.55 38.54-13.08-148.18a10.66 10.66 0 0 0-9.82-9.64l-103.82-7.27-5.28-5.27 4.55-53.09Zm0 0" class="cls-11"/><path d="m595.86 417.31 4.55 1.46-4.55 53.09a337.2 337.2 0 0 0-109.82 64.36l-35.63-18.91v-21.27Zm0 0" class="cls-10"/><path d="m800.41 423.31 13.63-1.45 136.37 78.7 3.82 17.45-39.46 18.18-113.63-72.69Zm0 0" class="cls-7"/><path d="m323.14 446.04 44.73-.72q10 24.54 37.09 26.54 17.25 21.66 45.45 24.18v21.27l-44.72 68.91c2.36-39.09-54.73-60-84.55-74-3.09-1.38-8.58-1.45-15.09-.18q-8.37 1.63-6.36-12.19Zm0 0" class="cls-8"/><path d="M189.5 452.95q32.91 40.91 84.91 58.91c7.87 2.8 14.77 1.81 20.72-2.91a456 456 0 0 1-67.45 109.82l-61.82-39.1c-15.71-10-23.36-28.15-18.91-44.91q12.55-46.69 42.55-81.81m0 0" class="cls-5"/><path d="M1026.95 449.86q20.37 13.09 46.19.72a398.5 398.5 0 0 0 59.08 107.64q-41.81 59.1-113.63 69.64l-64.36-109.82-3.82-17.48q28.9-6 41.63-32.55 24.36 6.93 34.91-18.18Zm0 0" class="cls-9"/><path d="m801.14 463.5 113.63 72.72-14.36 9.82-100 57.64a431.5 431.5 0 0 1 .73-140.18m-205.28 8.36 5.28 5.27-1.45 122.73-113.65-63.64a337.2 337.2 0 0 1 109.82-64.36m0 0" class="cls-4"/><path d="m601.14 477.13 103.82 7.27a10.66 10.66 0 0 1 9.82 9.64l13.08 148.18q-4.36 18.2-31.27 16.73l-96.9-59.09Zm0 0" class="cls-3"/><path d="M1226.95 486.22c76.36 70.73-12.18 106.73-58.36 137.09l-32.55-64.36a234.2 234.2 0 0 1 90.91-72.73m0 0" class="cls-6"/><path d="M299.69 499.85q-2 13.83 6.36 12.19c6.51-1.27 12-1.2 15.09.18 29.82 14 86.91 34.91 84.55 74l-51.46 104.55-21.27 4.54q-17.8-24.75-46.18-14.36-9.09-28.92-40.19-26.55l-18.9-35.63a456 456 0 0 0 67.45-109.82Zm0 0" class="cls-9"/><path d="m450.41 517.31 35.63 18.91 113.65 63.64 96.9 59.09-68.91 46.18-150.72-83.46a18.1 18.1 0 0 0-24.19 6.55l-52.36 86-18.18-4.54-28-18.91 51.46-104.55Zm0 0" class="cls-12"/><path d="m1055.73 540.48 64.36 109.82 22.72 66.7-22.72 19.64a392 392 0 0 0-114.36 62.91L801.91 917l-104.55 59.11-109.82 64.36-45.44 27.28-35.64 22-36.37 15.09-22.72-60.55v-16.72l597.81-349.45a10.31 10.31 0 0 0 4.55-13.28l-47.82-96.36 14.36-9.82Zm0 0" style="fill:#22b69f" transform="translate(-101.5 -22.44)"/><path d="m900.41 546.04 47.82 96.36a10.29 10.29 0 0 1-4.55 13.28l-597.81 349.45a290.1 290.1 0 0 0-81.82-87.82v-7.64a107.6 107.6 0 0 0 50-22.72l23.45-18.91 44.73-23.48 122.72-71.27 122.73-68.18 68.91-46.18q26.92 1.47 31.27-16.73l72.55-38.54Zm0 0" class="cls-10"/><path d="m1132.22 558.22 3.82.73 32.55 64.36-14.37 31.09q-38 2.73-31.09 35.64-31.44-12-59.09 6l-22.73-1.48-22.72-66.72q71.81-10.53 113.63-69.64Zm0 0" class="cls-8"/><g class="cls-2"><path d="m627.68 705.13-122.73 68.18-104.54-59.09 52.36-86a18.1 18.1 0 0 1 24.19-6.55Zm0 0" class="cls-7"/><path d="M246.59 654.4q31.11-2.34 40.19 26.55a469.4 469.4 0 0 0-91.64 96.18q-28.17 9.81-31.09 40.18-64.71 64.74-99.64 159.46c-90.54 245.63 182.55 278.54 340.55 246.53l36.36-6 158.37-44.74.72 40.18-13.64 13.64-122.72 33.27-50 9.09c-187.09 33.09-499.81-22-392-302q38.19-99.08 107.82-195.63 21.09-8.73 29.64-34.18Zm0 0" class="cls-10"/></g><path d="m1154.22 654.4 78 82.55q-3.63 25.64-26.55 40.18l-82.55-87.09q-6.9-32.9 31.09-35.64Zm0 0" class="cls-7"/><path d="m332.96 695.31 4.54 172.73-23.46 18.91a424.8 424.8 0 0 1-118.9-109.82 469 469 0 0 1 91.64-96.18q28.35-10.36 46.18 14.36m0 0" class="cls-4"/><path d="m354.23 690.77 28 18.91a493 493 0 0 0 0 134.9l-44.73 23.46-4.55-172.73Zm0 0" class="cls-3"/><path d="m1123.13 690.04 82.55 87.09-109.82 109.82-37.09-18.91 5.27-172q27.63-18 59.09-6m0 0" class="cls-4"/><path d="m1064.04 696.04-5.27 172-49.27-28a360 360 0 0 0 9.09-125.82l22.72-19.66Zm0 0" class="cls-3"/><path d="m382.23 709.68 18.18 4.54 104.54 59.09-122.72 71.25a493 493 0 0 1 0-134.9Zm636.36 4.54a360 360 0 0 1-9.09 125.82l-105.27-62.91a392 392 0 0 1 114.36-62.91m0 0" class="cls-4"/><path d="M195.14 777.13a424.8 424.8 0 0 0 118.91 109.82 107.6 107.6 0 0 1-50 22.72l-100-92.36q2.93-30.36 31.09-40.18m0 0" class="cls-7"/><g class="cls-2"><path d="m904.23 777.13 105.27 62.91 49.27 28 37.09 18.91a105.1 105.1 0 0 1 40.91 30.36l-50 37.82c-43.46 19.81-55.81-11.82-84.54-28.73q-56.58-33.58-115.83-62.36a16.7 16.7 0 0 0-16 .72l-101.81 63.1-68.18-33.3Zm0 0" class="cls-12"/><path d="M1268.58 780.94c144.73 170.73 218.19 421.64-72.72 491.82q-65.27 15.83-218.18-4l-40.91-9.09-122.73-33.27-18.18-22.73 5.28-31.09 158.36 44.73 40.91 4.54c328.9 52.73 463.63-139.09 240.18-403.81q-1.63-31.26 28-37.1Zm0 0" class="cls-7"/><path d="m164.05 817.31 100 92.36v7.64a257.6 257.6 0 0 0-67.45 82.55 248 248 0 0 1-38.37 50.7c-75.81 76.91 64 59.64 96.73 48.55l108.36-8.37a490.2 490.2 0 0 0 41.64 132.54c-158 32-431.09-.9-340.55-246.53q34.91-94.73 99.64-159.46Zm1076.54.73c223.45 264.72 88.72 456.54-240.18 403.81l32.54-126.54h112.18l81.46 17.09c5.22 1 11.32-.69 16.72-4.73 40.55-30.36-20.54-82-39.08-107.81l-63.64-81.82a380.7 380.7 0 0 1 100-100m0 0" class="cls-4"/></g><path d="M1086.77 955.13v3.09q-43.1 56.37-53.82 128l-36.36-22.73-32.55-18.93-49.27-31.09-114.36-62.91-31.82-22.7 101.82-63.1a16.7 16.7 0 0 1 16-.72q59.19 28.74 115.83 62.36c28.73 16.91 41.08 48.54 84.54 28.73Zm0 0" class="cls-7"/><path d="m700.41 894.56 68.18 33.28 31.82 22.72.73 135.64q-10 25.47 0 50v36.36l-5.28 31.09q-25.27 4-49.27-8.36l-9.82-5.28-4.73-4a16 16 0 0 1-5.81-10.54c-4.36-33.27 5.63-194.54-22-210-4.46-2.38-10.35-1.27-14.55 2.72q-37.27 35.65-88.54 40.92l-5.28-55.46Zm0 0" class="cls-11"/><path d="M264.05 917.31a290.1 290.1 0 0 1 81.82 87.82v16.72l-109.09 28.71-40.18-50.7a257.6 257.6 0 0 1 67.45-82.55m0 0" class="cls-14"/><path d="m1136.77 917.31 3.82.73 63.64 81.82a121.67 121.67 0 0 0-44 54.54 230.55 230.55 0 0 0-73.45-96.18v-3.09Zm0 0" class="cls-15"/><path d="m800.41 950.56 114.36 62.91a475.3 475.3 0 0 1-113.63 72.73Zm-204.55 3.09 5.28 55.46-6 72.54-109.1-63.64Zm0 0" class="cls-4"/><path d="M1086.77 958.22a230.55 230.55 0 0 1 73.45 96.18l-15.09 40.91h-112.18v-9.09q10.72-71.62 53.82-128m0 0" class="cls-14"/><path d="M736.77 1190.03q-68.53-14.52-124.72 24.36a7.7 7.7 0 0 1-7.64.37l-4-2-.72-40.18v-31.82l-4.55-59.09 6-72.54q51.27-5.27 88.54-40.92c4.2-4 10.09-5.1 14.55-2.72 27.63 15.46 17.64 176.73 22 210a16 16 0 0 0 5.81 10.54Zm0 0" class="cls-3"/><path d="m196.6 999.86 40.18 50.7 18.18 48.55c-32.73 11.09-172.54 28.36-96.73-48.55a248 248 0 0 0 38.37-50.72Zm1007.63 0c18.54 25.81 79.63 77.45 39.08 107.81-5.4 4-11.5 5.76-16.72 4.73l-81.46-17.09 15.09-40.91a121.67 121.67 0 0 1 44-54.54Zm0 0" class="cls-16"/><path d="m914.77 1013.49 49.27 31.09-162.9 91.64q-10-24.56 0-50a475.3 475.3 0 0 0 113.63-72.73m0 0" class="cls-10"/><path d="m486.04 1018.03 109.1 63.64 4.55 59.09-159.09-95.45Zm0 0" class="cls-7"/><path d="m345.87 1021.85 22.72 60.55-5.27 8.36-108.36 8.37-18.18-48.57Zm0 0" class="cls-15"/><path d="m440.6 1045.31 159.09 95.45v31.8l-158.37 44.73-36.36-150Zm523.44-.73 32.55 18.91-37.09 153.82-158.36-44.75v-36.36Zm0 0" class="cls-4"/><path d="m996.59 1063.49 36.36 22.73v9.09l-32.54 126.54-40.91-4.54Zm-591.63 3.82 36.36 150-36.36 6a490.2 490.2 0 0 1-41.64-132.54l5.27-8.36Zm0 0" class="cls-3"/><path d="m736.77 1190.03 9.82 5.28a352.6 352.6 0 0 1-66 112q-22.71 2.37-39.27 11.45c-9.27-20.9-29.82-90.18-54.55-92.36l13.64-13.64 4 2a7.69 7.69 0 0 0 7.64-.37q56.18-38.88 124.72-24.36m0 0" class="cls-14"/><path d="M746.59 1195.31q24 12.38 49.27 8.36l18.18 22.73-6.18.91a11.83 11.83 0 0 0-9.09 6.72l-43.82 87.82q-32.18-30.9-74.36-14.54a352.6 352.6 0 0 0 66-112m0 0" class="cls-15"/><g class="cls-2"><path d="M586.77 1226.4c24.73 2.18 45.28 71.46 54.55 92.36 17.82 24.36 25.82 102.18 72.54 83.45a21.7 21.7 0 0 0 12.37-11.65l28.72-68.73 43.82-87.82a11.83 11.83 0 0 1 9.09-6.72l6.18-.91 122.73 33.27c-34.91 98.36-122.36 250.54-243.27 245.27-114-4.91-199.45-147.45-229.45-245.27Zm0 0" class="cls-4"/><path d="M464.05 1259.67c30 97.82 115.45 240.36 229.45 245.27 120.91 5.27 208.36-146.91 243.27-245.27l40.91 9.09q-39.09 134.37-135.64 222.73c-192.36 176-369.26-63.64-428-222.73Zm0 0" class="cls-3"/></g><path d="M680.59 1307.31q42.2-16.38 74.36 14.54l-28.72 68.71a21.76 21.76 0 0 1-12.37 11.63c-46.72 18.73-54.72-59.09-72.54-83.45q16.54-9.09 39.27-11.45Zm0 0" class="cls-16"/></svg>