<svg xmlns="http://www.w3.org/2000/svg" id="图层_1" viewBox="0 0 1395.6 1553.3"><defs><clipPath id="clip-path" transform="translate(-101 -22)"><path id="SVGID" d="M102 22h1396v1556H102z" style="fill:none"/></clipPath><style>.cls-2{clip-path:url(#clip-path)}.cls-3{fill:#fddd44}.cls-4{fill:#fff}.cls-5{fill:#fca863}.cls-6{fill:#fc9743}.cls-7{fill:#5169cc}.cls-8{fill:#a8d3d8}.cls-9{fill:#ddebf0}.cls-10{fill:#28d1b3}.cls-11{fill:#f8c52d}.cls-12{fill:#3351c5}.cls-14{fill:#fcdbbe}.cls-15{fill:#fcc99f}.cls-16{fill:#685e67}</style></defs><g class="cls-2"><path d="M982 281q-19 17-45 9C864 84 670-81 513 190l-58 101-46-10c37-70 74-149 128-202 201-194 369 7 445 202m0 0" class="cls-3"/><path d="m937 290-109 33q-23-19-28-50l-5-77q-1-10-6-16-32-34-84-20l-67 4q-37 2-37 43l-1 69q-6 32-31 47l-114-32 58-101C670-81 864 84 937 290m0 0" class="cls-4"/></g><path d="m705 160 14 116a286 286 0 0 1-119 0l1-69q0-41 37-43Zm0 0" class="cls-5"/><g class="cls-2"><path d="M705 160q52-14 84 20 5 7 6 16l5 77q-26 14-67 4l-14-1Zm0 0" class="cls-6"/><path d="m410 281 45 10 114 32q28 16 17 50l-140-36-55-9q-129-13-190 0c-242 53-147 279-41 409q-9 25-30 34Q41 666 20 589c-80-299 173-329 390-308m0 0" class="cls-7"/></g><path d="M800 273q5 30 28 50-29 24 0 46-24 23-14 53l-14 1-63-10-4-136q41 10 67-4m0 0" class="cls-8"/><g class="cls-2"><path d="M600 276a285 285 0 0 0 119 0l14 1 4 136-137 6-4-2-10-44q11-34-17-50 25-15 31-47m0 0" class="cls-9"/><path d="M1269 781q-30 6-28 37a381 381 0 0 0-100 100l-4-1a105 105 0 0 0-41-30l110-110q23-14 26-40c100-98 208-345-4-402q-109-29-232-3l-37 5-131 32q-29-22 0-46l109-33q26 8 45-9c398-46 536 170 287 500m0 0" class="cls-10"/><path d="m391 328-23 117-45 1c-46-26-103-80-133 7q-30 35-43 82c-4 17 3 35 19 45l62 39 19 35-88 83C54 607-41 381 201 328q61-13 190 0m841 409-78-83 15-31c46-30 134-66 58-137q-13-38-43-69a35 35 0 0 0-43-7l-68 41q-26 12-46-1a312 312 0 0 0-31-118q123-26 232 3c212 57 104 304 4 402m0 0" class="cls-4"/></g><path d="m391 328 55 9-41 135q-27-2-37-27Zm605 4a312 312 0 0 1 31 118q-11 25-35 18l-32-131Zm0 0" class="cls-3"/><path d="m446 337 140 36 10 44-146 79q-28-3-45-24Zm514 0 32 131q-13 27-42 33l-136-79q-10-30 14-53Zm0 0" class="cls-4"/><path d="m323 446-23 54-5 9q-9 8-21 3-52-18-84-59c30-87 87-33 133-7m0 0" class="cls-6"/><path d="M1227 486a234 234 0 0 0-91 73l-4-1a399 399 0 0 1-59-107l68-41c14-8 31-5 43 7q30 31 43 69m0 0" class="cls-5"/><path d="m737 413 63 10 1 41a432 432 0 0 0-1 140l-72 38-13-148a11 11 0 0 0-10-10l-104-7-5-5 4-53Zm0 0" class="cls-11"/><path d="m596 417 4 2-4 53a337 337 0 0 0-110 64l-36-19v-21Zm0 0" class="cls-10"/><path d="m800 423 14-1 136 79 4 17-39 18-114-73Zm0 0" class="cls-7"/><path d="m323 446 45-1q10 25 37 27 17 22 45 24v21l-44 69c2-39-55-60-85-74h-15q-8 2-6-12Zm0 0" class="cls-8"/><path d="M190 453q32 41 84 59 12 4 21-3a456 456 0 0 1-67 110l-62-39a41 41 0 0 1-19-45q13-47 43-82m0 0" class="cls-5"/><path d="M1027 450q20 13 46 1a399 399 0 0 0 59 107q-42 59-113 70l-65-110-4-17q29-6 42-33 24 7 35-18m0 0" class="cls-9"/><path d="m801 464 114 72-15 10-100 58a432 432 0 0 1 1-140m-205 8 5 5-1 123-114-64a337 337 0 0 1 110-64m0 0" class="cls-4"/><path d="m601 477 104 7a11 11 0 0 1 10 10l13 148q-4 18-31 17l-97-59Zm0 0" class="cls-3"/><path d="M1227 486c76 71-12 107-58 137l-33-64a234 234 0 0 1 91-73m0 0" class="cls-6"/><path d="M300 500q-2 14 6 12h15c30 14 87 35 85 74l-52 105-21 4q-18-24-46-14-9-29-40-27l-19-35a456 456 0 0 0 67-110Zm0 0" class="cls-9"/><path d="m450 517 36 19 114 64 97 59-69 46-151-83a18 18 0 0 0-24 6l-53 86-18-4-28-19 52-105Zm0 0" class="cls-12"/><path d="m1056 540 64 110 23 67-23 20a392 392 0 0 0-114 63L802 917l-105 59-109 64-46 28-36 22-36 15-23-61v-16l598-350a10 10 0 0 0 5-13l-48-97 14-9Zm0 0" style="fill:#22b69f" transform="translate(-101 -22)"/><path d="m900 546 48 96a10 10 0 0 1-4 14l-598 349a290 290 0 0 0-82-88v-7a108 108 0 0 0 50-23l24-19 44-23 123-72 123-68 69-46q27 1 31-17l72-38Zm0 0" class="cls-10"/><path d="m1132 558 4 1 33 64-15 31q-38 3-31 36-31-12-59 6l-23-1-22-67q71-11 113-70m0 0" class="cls-8"/><g class="cls-2"><path d="m628 705-123 68-105-59 53-86a18 18 0 0 1 24-6Zm0 0" class="cls-7"/><path d="M247 654q31-2 40 27a469 469 0 0 0-92 96q-28 10-31 40-65 65-100 160c-90 245 183 278 341 246l36-6 159-44v40l-13 13-123 34-50 9c-187 33-500-22-392-302q38-99 108-196 21-9 30-34Zm0 0" class="cls-10"/></g><path d="m1154 654 78 83q-3 26-26 40l-83-87q-7-33 31-36m0 0" class="cls-7"/><path d="m333 695 4 173-23 19a425 425 0 0 1-119-110 469 469 0 0 1 92-96q28-10 46 14m0 0" class="cls-4"/><path d="m354 691 28 19a493 493 0 0 0 0 135l-44 23-5-173Zm0 0" class="cls-3"/><path d="m1123 690 83 87-110 110-37-19 5-172q28-18 59-6m0 0" class="cls-4"/><path d="m1064 696-5 172-50-28a360 360 0 0 0 10-126l22-19Zm0 0" class="cls-3"/><path d="m382 710 18 4 105 59-123 72a493 493 0 0 1 0-135m637 4a360 360 0 0 1-9 126l-106-63a392 392 0 0 1 115-63m0 0" class="cls-4"/><path d="M195 777a425 425 0 0 0 119 110 108 108 0 0 1-50 23l-100-93q3-30 31-40m0 0" class="cls-7"/><g class="cls-2"><path d="m904 777 106 63 49 28 37 19a105 105 0 0 1 41 30l-50 38c-44 20-56-12-85-29q-56-33-116-62a17 17 0 0 0-16 1l-101 63-69-33Zm0 0" class="cls-12"/><path d="M1269 781c144 171 218 422-73 492q-65 16-218-4l-41-9-123-34-18-22 5-31 158 44 41 5c329 53 464-139 241-404q-2-31 28-37m0 0" class="cls-7"/><path d="m164 817 100 93v7a258 258 0 0 0-67 83 248 248 0 0 1-39 51c-76 76 64 59 97 48l108-8a490 490 0 0 0 42 132c-158 32-431-1-341-246q35-95 100-160m1077 1c223 265 88 457-241 404l33-127h112l82 17q8 2 16-4c41-31-20-82-39-108l-63-82a381 381 0 0 1 100-100m0 0" class="cls-4"/></g><path d="M1087 955v3q-43 57-54 128l-36-23-33-18-49-32-115-62-31-23 101-63a17 17 0 0 1 16-1q60 29 116 62c29 17 41 49 85 29m0 0" class="cls-7"/><path d="m700 895 69 33 31 23 1 135q-10 26 0 50v37l-5 31q-25 4-49-9l-10-5-5-4a16 16 0 0 1-6-11c-4-33 6-194-22-210q-7-3-14 3-38 36-89 41l-5-55Zm0 0" class="cls-11"/><path d="M264 917a290 290 0 0 1 82 88v17l-109 29-40-51a258 258 0 0 1 67-83m0 0" class="cls-14"/><path d="m1137 917 4 1 63 82a122 122 0 0 0-44 54 231 231 0 0 0-73-96v-3Zm0 0" class="cls-15"/><path d="m800 951 115 62a475 475 0 0 1-114 73Zm-204 3 5 55-6 73-109-64Zm0 0" class="cls-4"/><path d="M1087 958a231 231 0 0 1 73 96l-15 41h-112v-9q11-71 54-128m0 0" class="cls-14"/><path d="M737 1190q-69-14-125 24a8 8 0 0 1-8 1l-4-2v-72l-5-59 6-73q51-5 89-41 7-6 14-3c28 16 18 177 22 210a16 16 0 0 0 6 11Zm0 0" class="cls-3"/><path d="m197 1000 40 51 18 48c-33 11-173 28-97-48a248 248 0 0 0 39-51m1007 0c19 26 80 77 39 108q-8 6-16 4l-82-17 15-41a122 122 0 0 1 44-54m0 0" class="cls-16"/><path d="m915 1013 49 32-163 91q-10-24 0-50a475 475 0 0 0 114-73m0 0" class="cls-10"/><path d="m486 1018 109 64 5 59-159-96Zm0 0" class="cls-7"/><path d="m346 1022 23 60-6 9-108 8-18-48Zm0 0" class="cls-15"/><path d="m441 1045 159 96v32l-159 44-36-150Zm523 0 33 18-37 154-159-44v-37Zm0 0" class="cls-4"/><path d="m997 1063 36 23v9l-33 127-40-5Zm-592 4 36 150-36 6a490 490 0 0 1-42-132l6-9Zm0 0" class="cls-3"/><path d="m737 1190 10 5a353 353 0 0 1-66 112q-23 3-40 12c-9-21-29-90-54-93l13-13 4 2a8 8 0 0 0 8-1q56-38 125-24m0 0" class="cls-14"/><path d="M747 1195q24 13 49 9l18 22-6 1a12 12 0 0 0-9 7l-44 88q-32-31-74-15a353 353 0 0 0 66-112m0 0" class="cls-15"/><g class="cls-2"><path d="M587 1226c24 3 45 72 54 93 18 24 26 102 73 83a22 22 0 0 0 12-11l29-69 44-88a12 12 0 0 1 9-7l6-1 123 34c-35 98-123 250-244 245-113-5-199-148-229-245Zm0 0" class="cls-4"/><path d="M464 1260c30 97 116 240 230 245 120 5 208-147 243-245l41 9q-39 134-136 222c-192 176-369-63-428-222Zm0 0" class="cls-3"/></g><path d="M681 1307q42-16 74 15l-29 69a22 22 0 0 1-12 11c-47 19-55-59-73-83q17-9 40-12m0 0" class="cls-16"/></svg>