<svg xmlns="http://www.w3.org/2000/svg" width="200" height="200" class="icon" viewBox="0 0 1024 1024"><path fill="#2c9eff" d="M516.422 16.058C242.502 16.058 20.48 238.08 20.48 512s222.022 495.942 495.942 495.942S1012.364 785.92 1012.364 512 790.342 16.058 516.422 16.058M765.44 507.345c-7.68 8.379-20.48 9.077-29.556.931v217.135c0 10.938-4.19 21.178-11.87 29.09-7.68 7.68-18.152 12.103-28.858 12.103H573.207V643.49c0-7.68-3.025-14.895-8.378-20.48-5.353-5.353-12.8-8.378-20.48-8.378h-56.087c-7.68 0-14.895 3.025-20.48 8.378-5.353 5.353-8.378 12.8-8.378 20.48v123.113H340.247a40.867 40.867 0 0 1-40.727-40.96V505.716l-3.49 3.259a20.527 20.527 0 0 1-27.463-30.488l221.79-210.618a40.727 40.727 0 0 1 54.923 0l218.996 210.618c3.957 3.724 6.517 8.611 6.75 14.197 0 5.352-1.862 10.705-5.586 14.661"/></svg>