<svg xmlns="http://www.w3.org/2000/svg" width="200" height="200" class="icon" viewBox="0 0 1024 1024"><path fill="#1e59e4" d="M672.634 954.358 533.736 815.46a1851 1851 0 0 1-116.263 69.317L139.12 606.423a1557 1557 0 0 1 68.465-117.116L69.538 351.262a32.805 32.805 0 0 1 0-46.42l115.968-115.967a262.444 262.444 0 0 1 332.877-31.493C725.32 10.479 936.259-34.662 997.343 26.488s16.009 272.088-130.894 478.96a262.444 262.444 0 0 1-31.493 332.877L718.988 954.292a32.805 32.805 0 0 1-46.354.066m-231.967-742.29a131.22 131.22 0 0 0-185.581 0l-92.774 92.774a32.805 32.805 0 0 0 0 46.42l69.58 69.58zM927.795 96.101C898.27 66.576 815.371 76.221 717.48 117.72l188.697 188.697c41.598-97.892 51.406-180.66 21.718-210.316zm-51.537 273.204L654.59 147.638a921.6 921.6 0 0 0-216.155 159.468A1580.3 1580.3 0 0 0 220.312 594.81l208.774 208.774A1720.5 1720.5 0 0 0 716.79 585.46a921.6 921.6 0 0 0 159.566-216.155zm-64.43 399.505a131.22 131.22 0 0 0 0-185.58L603.054 792.004l69.58 69.58a32.805 32.805 0 0 0 46.42 0zM487.054 536.843a131.222 131.222 0 1 1 185.58 0 131.22 131.22 0 0 1-185.482 0zm139.193-139.194a65.611 65.611 0 1 0 0 92.774 65.61 65.61 0 0 0 .099-92.774z"/><path fill="#ff5a06" d="M.122 1023.873s-4.855-180.726 46.387-231.968a131.222 131.222 0 1 1 185.58 185.58C180.75 1028.827.122 1023.874.122 1023.874m185.58-185.58a65.61 65.61 0 0 0-92.773 0c-25.622 25.62-46.42 139.193-46.42 139.193s113.572-20.799 139.193-46.42a65.61 65.61 0 0 0-.098-92.675z"/></svg>